<?xml version="1.0" encoding="utf-8"?>
<!-- Generator: Adobe Illustrator 16.0.0, SVG Export Plug-In . SVG Version: 6.00 Build 0)  -->
<!DOCTYPE svg PUBLIC "-//W3C//DTD SVG 1.1//EN" "http://www.w3.org/Graphics/SVG/1.1/DTD/svg11.dtd">
<svg version="1.1" id="Layer_1" xmlns="http://www.w3.org/2000/svg" xmlns:xlink="http://www.w3.org/1999/xlink" x="0px" y="0px"
	 width="354.035px" height="360.035px" viewBox="0 0 354.035 360.035" enable-background="new 0 0 354.035 360.035"
	 xml:space="preserve">
<path opacity="0.5" fill="#555658" enable-background="new    " d="M77.975,55.362"/>
<path opacity="0.3" fill="#000102" stroke="#000102" stroke-width="2" stroke-miterlimit="10" enable-background="new    " d="
	M78.275,56.555h13.523c0.316,0,0.475-0.14,0.475-0.416V42.055c0-0.279-0.159-0.416-0.475-0.416H80.129
	c-0.317,0-0.475-0.139-0.475-0.417v-0.625c0-0.277,0.158-0.416,0.475-0.416h13.307c0.282,0,0.626,0.315,0.626,0.627v32.239
	c0,0.312-0.344,0.575-0.626,0.575H77.368h2.546H61.301c-0.326,0-0.487-0.151-0.487-0.455V41.345c0-0.303,0.162-0.454,0.487-0.454
	h0.855c0.325,0,0.489,0.151,0.489,0.454v14.813c0,0.269,0.183,0.404,0.549,0.404L78.275,56.555v1.415l-15.082,0.005
	c-0.365,0-0.548,0.134-0.548,0.404v13.379c0,0.269,0.179,0.408,0.544,0.408h16.714h0.21h11.685c0.317,0,0.476-0.139,0.476-0.416
	V58.385c0-0.277-0.159-0.416-0.476-0.416H78.274L78.275,56.555L78.275,56.555z"/>
<path fill="none" stroke="#62DD62" stroke-width="2" stroke-miterlimit="10" d="M71.96,54.064v-8.301
	c0-0.08-0.152-0.119-0.454-0.119h-0.794c-0.304,0-0.454,0.04-0.454,0.119v8.301c0,0.08,0.15,0.12,0.454,0.12h0.794
	C71.808,54.184,71.96,54.144,71.96,54.064z"/>
<path fill="none" stroke="#62DD62" stroke-width="8" stroke-miterlimit="10" d="M73.676,40.786c0,1.405-1.139,2.544-2.543,2.544
	c-1.405,0-2.544-1.139-2.544-2.544s1.139-2.544,2.544-2.544C72.537,38.242,73.676,39.381,73.676,40.786z"/>
</svg>
