<?xml version="1.0" encoding="utf-8"?>
<!-- Generator: Adobe Illustrator 19.2.1, SVG Export Plug-In . SVG Version: 6.00 Build 0)  -->
<svg version="1.1" id="Layer_1" xmlns="http://www.w3.org/2000/svg" xmlns:xlink="http://www.w3.org/1999/xlink" x="0px" y="0px"
	 viewBox="0 0 792 593.2" style="enable-background:new 0 0 792 593.2;" xml:space="preserve">
<style type="text/css">
	.st0{fill:#4DB6AC;}
	.st1{fill:none;}
	.st2{fill:#FFFFFF;}
	.st3{font-family:'OpenSans';}
	.st4{font-size:30px;}
</style>
<rect class="st0" width="792" height="593.2"/>
<rect x="418.8" y="246.5" class="st1" width="162.7" height="112.8"/>
<text transform="matrix(1 0 0 1 431.334 270.9769)" class="st2 st3 st4">VISUAL </text>
<text transform="matrix(1 0 0 1 431.334 309.3769)" class="st2 st3 st4">DESIGN </text>
<text transform="matrix(1 0 0 1 431.334 347.7769)" class="st2 st3 st4">WORKS</text>
<path class="st2" d="M286.3,242.8h-22c-4,0-7.3,3.6-7.3,7.9v94.4c0,4.3,3.3,7.9,7.3,7.9h22c4,0,7.3-3.6,7.3-7.9v-94.4
	C293.6,246.4,290.4,242.8,286.3,242.8z M388.7,242.8h-22c-4,0-7.3,3.6-7.3,7.9v94.4c0,4.3,3.3,7.9,7.3,7.9h22c4,0,7.3-3.6,7.3-7.9
	v-94.4C396,246.4,392.7,242.8,388.7,242.8z M337.5,242.8h-22c-4,0-7.3,3.6-7.3,7.9v94.4c0,4.3,3.3,7.9,7.3,7.9h22
	c4,0,7.3-3.6,7.3-7.9v-94.4C344.8,246.4,341.6,242.8,337.5,242.8z"/>
</svg>
