<?xml version="1.0" encoding="utf-8"?>
<!-- Generator: Adobe Illustrator 19.2.1, SVG Export Plug-In . SVG Version: 6.00 Build 0)  -->
<svg version="1.1" id="Layer_1" xmlns="http://www.w3.org/2000/svg" xmlns:xlink="http://www.w3.org/1999/xlink" x="0px" y="0px"
	 viewBox="0 0 792 593.2" style="enable-background:new 0 0 792 593.2;" xml:space="preserve">
<style type="text/css">
	.st0{fill:#FF5722;}
	.st1{clip-path:url(#SVGID_2_);}
	.st2{clip-path:url(#SVGID_5_);}
	.st3{clip-path:url(#SVGID_6_);fill:#FFFFFF;}
	.st4{fill:#FFFFFF;}
	.st5{font-family:'OpenSans';}
	.st6{font-size:32px;}
</style>
<rect class="st0" width="792" height="593.2"/>
<g>
	<g>
		<g>
			<defs>
				<rect id="SVGID_1_" x="246.7" y="184.1" width="294.4" height="133.6"/>
			</defs>
			<clipPath id="SVGID_2_">
				<use xlink:href="#SVGID_1_"  style="overflow:visible;"/>
			</clipPath>
			<g class="st1">
				<g>
					<defs>
						<rect id="SVGID_3_" x="246.7" y="184.1" width="294.4" height="133.6"/>
					</defs>
					<defs>
						<rect id="SVGID_4_" x="246.7" y="184.1" width="294.4" height="133.6"/>
					</defs>
					<clipPath id="SVGID_5_">
						<use xlink:href="#SVGID_3_"  style="overflow:visible;"/>
					</clipPath>
					<clipPath id="SVGID_6_" class="st2">
						<use xlink:href="#SVGID_4_"  style="overflow:visible;"/>
					</clipPath>
					<path class="st3" d="M503.9,306v-3.1h2.3c1.5,0,1.9,0.5,1.9,1.4s-0.4,1.7-2.2,1.7 M505.5,307.9c0.7,0.1,1.3,0,1.8,0.5
						c0.6,0.6,0.6,1.5,0.7,2.6c0.1,0.8,0.3,1.5,0.4,2.2h2.5c-0.4-1.1-0.6-2.4-0.8-3.5c-0.2-1.3-0.4-2.1-2.1-2.4v-0.1
						c1.6-0.3,2.5-1.4,2.5-2.9c0-2.8-2.3-3.3-4.6-3.3H502v12.3h1.9v-5.3H505.5z M506.1,317.7c5.8,0,10.4-4.7,10.4-10.5
						c0-5.7-4.7-10.4-10.4-10.4c-5.8,0-10.5,4.7-10.5,10.4C495.6,313.1,500.3,317.7,506.1,317.7 M506.1,315.9
						c-4.8,0-8.6-3.9-8.6-8.6c0-4.7,3.8-8.6,8.6-8.6c4.8,0,8.6,3.9,8.6,8.6C514.6,312,510.8,315.9,506.1,315.9"/>
					<path class="st3" d="M488.5,212.7h-16.7v16.7h16.7c4,0,7.1,3.2,7.1,7.1c0,4-3.2,7.1-7.1,7.1h-16.7v16.7h16.7
						c13.2,0,23.9-10.7,23.9-23.9C512.4,223.5,501.7,212.7,488.5,212.7 M393.3,301c20,0,37.2-11.7,45.2-28.7h21.3V301h11.9v-28.6
						h16.7c19.8,0,35.8-16.1,35.8-35.8c0-19.8-16.1-35.8-35.8-35.8h-28.6v43h-17c-3.4-24.2-24.3-43-49.6-43h-58.7L276,301h14.1
						l16.7-28.7h60.1V301L393.3,301L393.3,301z M541.1,236.6c0,29-23.5,52.5-52.5,52.5v28.6h-45.3v-22.3
						c-12.3,13.7-30,22.3-49.9,22.3h-43.1V289h-33.7l-16.7,28.6h-53L324.6,184h68.7c19.9,0,37.6,8.6,49.9,22.3V184h45.3
						C517.5,184.1,541.1,207.6,541.1,236.6 M350.2,212.7v31h-26.6l-9.7,16.7H367v-47.7H350.2z M431.5,250.9
						c0,21.1-17.1,38.2-38.2,38.2h-14.5v-16.7h14.5c11.9,0,21.5-9.6,21.5-21.5s-9.6-21.5-21.5-21.5h-14.5v-16.7h14.5
						C414.4,212.7,431.5,229.8,431.5,250.9"/>
				</g>
			</g>
		</g>
		<rect x="494.8" y="296" class="st0" width="64.9" height="43.5"/>
	</g>
</g>
<text transform="matrix(1 0 0 1 218.3826 410.4014)" class="st4 st5 st6">UX DESIGN INTERNSHIP</text>
</svg>
