<?xml version="1.0" encoding="utf-8"?>
<!-- Generator: Adobe Illustrator 19.2.1, SVG Export Plug-In . SVG Version: 6.00 Build 0)  -->
<svg version="1.1" id="Layer_1" xmlns="http://www.w3.org/2000/svg" xmlns:xlink="http://www.w3.org/1999/xlink" x="0px" y="0px"
	 viewBox="0 0 792 593.2" style="enable-background:new 0 0 792 593.2;" xml:space="preserve">
<style type="text/css">
	.st0{fill:#FFEB3B;}
	.st1{fill:none;}
	.st2{fill:#FFFFFF;}
	.st3{font-family:'OpenSans-Bold';}
	.st4{font-size:38px;}
	.st5{letter-spacing:2;}
	.st6{font-family:'OpenSans';}
	.st7{font-size:30px;}
	.st8{letter-spacing:1;}
</style>
<rect x="-22.9" y="-24.4" class="st0" width="832.4" height="650.9"/>
<g>
	<rect x="435.8" y="251.7" class="st1" width="206.7" height="101.3"/>
	<text transform="matrix(1 0 0 1 435.7647 267.5435)" class="st2 st3 st4 st5">FAMCAM</text>
	<text transform="matrix(1 0 0 1 435.7647 323.2435)" class="st2 st6 st7 st8">android app</text>
	<text transform="matrix(1 0 0 1 435.7647 357.0435)" class="st2 st6 st7 st8">development</text>
</g>
<g>
	<path class="st2" d="M312.1,287.4c-19.8,0-35.9-16.1-35.9-35.9s16.1-35.9,35.9-35.9c19.8,0,35.9,16.1,35.9,35.9
		S331.9,287.4,312.1,287.4z"/>
	<path class="st2" d="M245.7,287.4c-12.6,0-22.7-10.4-22.7-23.3c0-12.9,10.2-23.3,22.7-23.3c12.6,0,22.7,10.4,22.7,23.3
		C268.3,276.9,258.2,287.4,245.7,287.4z"/>
	<path class="st2" d="M318.9,365.5h-66.8c-14,0-19.1-11.4-19.1-19.1v-33.6c0-14,11.4-19.1,19.1-19.1h66.8c14,0,19.1,11.4,19.1,19.1
		v33.6C338,360.4,326.6,365.5,318.9,365.5z"/>
	<path class="st2" d="M374.4,357.2L374.4,357.2c-1.8,0-3.7-0.6-5.7-1.7l-31.1-17.3v-17.4l31.1-17.2c0.4-0.2,2.9-1.6,5.7-1.6
		c3.9,0,8.6,2.7,8.6,10.1v34.8c0,0.3,0,2.2-0.8,4.2C381.1,354.9,378.1,357.2,374.4,357.2z"/>
</g>
</svg>
