<?xml version="1.0" encoding="utf-8"?>
<!-- Generator: Adobe Illustrator 19.2.1, SVG Export Plug-In . SVG Version: 6.00 Build 0)  -->
<svg version="1.1" id="Layer_1" xmlns="http://www.w3.org/2000/svg" xmlns:xlink="http://www.w3.org/1999/xlink" x="0px" y="0px"
	 viewBox="0 0 792 593.2" style="enable-background:new 0 0 792 593.2;" xml:space="preserve">
<style type="text/css">
	.st0{fill:#29B6F6;}
	.st1{fill:#FFFFFF;}
	.st2{fill:none;}
	.st3{font-family:'OpenSans-Bold';}
	.st4{font-size:36px;}
	.st5{font-family:'OpenSans';}
	.st6{font-size:34px;}
	.st7{fill:#A5D6A7;}
	.st8{fill:#81D4FA;}
</style>
<rect x="-27.5" y="-22.2" class="st0" width="846.3" height="641.5"/>
<path class="st1" d="M288.9,363.9L288.9,363.9L288.9,363.9L288.9,363.9L288.9,363.9c-0.2,0-0.4,0-0.6-0.1l-77.6-19
	c-0.1,0-0.2-0.1-0.3-0.1l0,0c-0.2-0.1-0.4-0.2-0.6-0.3c-0.2-0.1-0.4-0.3-0.5-0.5l0,0c-0.2-0.2-0.3-0.5-0.4-0.8
	c-0.1-0.2-0.1-0.4-0.1-0.6c0-0.1,0-0.2,0-0.3V262c0-0.2,0-0.4,0.1-0.6l0,0l0,0l0,0c0-0.1,0.1-0.2,0.1-0.3l0,0l0,0l0,0l0,0l0,0l0,0
	l0,0l0,0c0.2-0.4,0.4-0.7,0.8-1l0,0l0,0l0,0l0,0l0,0l0,0l0,0l0,0l43.7-33.8c0,0,0,0,0.1-0.1c0.5-0.4,1.1-0.5,1.7-0.5l0,0l0,0
	c0.1,0,0.1,0,0.2,0l0,0c0.1,0,0.2,0,0.3,0.1l77.6,19c0.1,0,0.2,0.1,0.3,0.1c0.2,0.1,0.4,0.2,0.5,0.3l0,0l0,0
	c0.2,0.2,0.4,0.3,0.6,0.6l0,0l0,0l0,0c0.2,0.2,0.3,0.4,0.4,0.7l0,0c0.1,0.2,0.1,0.4,0.1,0.6c0,0.1,0,0.2,0,0.3v80.2
	c0,0.2,0,0.5-0.1,0.7l0,0l0,0l0,0l0,0l0,0c0,0.1,0,0.2-0.1,0.2l0,0l0,0l0,0l0,0l0,0l0,0c-0.2,0.4-0.4,0.8-0.8,1.1l0,0l0,0l0,0l0,0
	l0,0l0,0l0,0l0,0l-43.7,33.8l0,0l0,0c-0.3,0.3-0.7,0.4-1.1,0.5l0,0l0,0l0,0l0,0l0,0l0,0l0,0C289.2,363.9,289,363.9,288.9,363.9z
	 M217.1,341.1l69.2,17v-39.2l-30.7-7.5L217.1,341.1z M291.5,320.1v36l35.4-27.3L291.5,320.1z M213.9,265.4V337l38.6-29.8v-32.4
	L213.9,265.4z M291.5,314.8l38.6,9.5v-71.7l-38.6,29.8V314.8z M257.6,306.5l28.7,7v-30.4l-28.7-7V306.5z M257.6,270.8l30.7,7.5
	l38.5-29.8l-69.2-17L257.6,270.8L257.6,270.8z M217.1,260.9l35.4,8.7v-36L217.1,260.9z"/>
<rect x="372.4" y="267.4" class="st2" width="198.1" height="58.8"/>
<text transform="matrix(1 0 0 1 372.4453 276.0999)" class="st1 st3 st4">MAPLE VILLAGE</text>
<text transform="matrix(1 0 0 1 374.4453 337.7503)" class="st1 st5 st6">landscape design</text>
<rect x="-154.6" y="330.3" class="st7" width="79.4" height="67.2"/>
<rect x="-132.7" y="175.9" class="st8" width="79.4" height="62.2"/>
<rect x="-142.1" y="417.2" class="st0" width="79.4" height="67.2"/>
</svg>
