<?xml version="1.0" encoding="utf-8"?>
<!-- Generator: Adobe Illustrator 19.2.1, SVG Export Plug-In . SVG Version: 6.00 Build 0)  -->
<svg version="1.1" id="Layer_1" xmlns="http://www.w3.org/2000/svg" xmlns:xlink="http://www.w3.org/1999/xlink" x="0px" y="0px"
	 viewBox="0 0 942 535" style="enable-background:new 0 0 942 535;" xml:space="preserve">
<style type="text/css">
	.st0{fill:#D6D6D6;}
	.st1{fill:#FFFFFF;}
	.st2{fill:#DC561F;}
	.st3{fill:#53585F;}
	.st4{fill:none;}
</style>
<rect class="st0" width="942" height="535"/>
<rect x="19.5" y="284" class="st1" width="34" height="9"/>
<rect x="10.5" y="164" class="st2" width="67" height="67"/>
<g>
	<path class="st1" d="M25.9,188.9h3.6l6,17.1h-3.8l-1.3-3.8h-5.8l-1.3,3.8h-3.4L25.9,188.9z M29.6,199.5l-2-5.8l0,0l-2,5.8H29.6z"/>
	<path class="st1" d="M37.6,189h5.2c5.2,0,9.1,2.2,9.1,8.4c0,6.4-4,8.6-9.1,8.6h-5.2C37.6,206,37.6,189,37.6,189z M43.1,203
		c3.7,0,5.1-1.7,5.1-5.5c0-3.6-1.4-5.3-5.2-5.3h-1.7V203H43.1z"/>
	<path class="st1" d="M54.7,189h6.2c3.6,0,6.9,1,6.9,5.5c0,4.6-3.6,5.5-7,5.5h-2.4v6h-3.7V189z M60.9,197.1c2.3,0,3.2-0.9,3.2-2.5
		s-0.9-2.5-3.2-2.5h-2.6v5H60.9z"/>
</g>
<g>
	<path class="st1" d="M19.2,397.3v-30.1h8v29.4c0,7.2,3.1,11.5,10.4,11.5c7.2,0,10.4-4.2,10.4-11.5v-29.4h7.9v30
		c0,10.8-6.1,18.1-18.3,18.1C24.5,415.4,19.2,408.1,19.2,397.3z"/>
	<path class="st1" d="M78.4,389.4l-14.1-22.2h9.2l9.9,15.9l9.5-15.9h8.3l-13.8,22.2l15.8,25.2h-8.8l-11.7-18.8l-11.6,18.8h-8.4
		L78.4,389.4z"/>
	<path class="st1" d="M126.7,367.2h13.5c14.8,0,24.6,6.9,24.6,23.5c0,16.9-9.9,23.9-24.6,23.9h-13.5V367.2z M140.9,407.4
		c10.8,0,15.9-4.7,15.9-16.7c0-11.4-5.1-16.1-16-16.1h-6.1v32.8L140.9,407.4L140.9,407.4z"/>
	<path class="st1" d="M173.3,367.2h30.6v7.4h-22.6v11.8h16.6v7.1h-16.6v13.8h23.9v7.3h-31.9V367.2z"/>
	<path class="st1" d="M210.5,403.5l6.3-3.3c2.8,5.6,7.2,8.3,13.1,8.3c5.8,0,9.7-1.9,9.7-6.1c0-4.1-2.9-6-10.8-8.3
		c-9.2-2.7-16.5-5.2-16.5-14.2c0-8.1,6.6-13.4,16.2-13.4c9.3,0,14.8,4.6,17.7,10.2l-5.8,4c-2.8-4.7-6.8-6.9-12-6.9s-8.3,1.9-8.3,5.4
		c0,4.4,3.4,5.9,11.1,8.2c9,2.6,16.1,5.6,16.1,14.5c0,7.7-6.6,13.8-17.9,13.8C220.2,415.5,213.5,410.6,210.5,403.5z"/>
	<path class="st1" d="M256.8,367.2h8.1v47.4h-8.1V367.2z"/>
	<path class="st1" d="M273.8,390.7c0-15.2,8.3-24.4,20.9-24.4c9,0,15.6,4.2,18.4,14.9l-7.4,2c-2.1-7.1-5.4-9.5-11-9.5
		s-12.7,3.5-12.7,16.8c0,13.2,6.3,17.8,13.1,17.8c6.3,0,10.6-3.7,11.1-10.7h-9.5v-6.5h17.2v23.4h-6.6v-6.8h-0.1
		c-1.5,3.4-5.6,7.7-12.9,7.7C280.4,415.5,273.8,405.2,273.8,390.7z"/>
	<path class="st1" d="M323.8,367.2h8.1l22.4,33.8h0.1v-33.8h7.4v47.4h-7.2l-23.2-34.5h-0.1v34.5h-7.4L323.8,367.2L323.8,367.2z"/>
</g>
<g>
	<path class="st1" d="M20.4,421.8h8.1v47.4h-8.1V421.8z"/>
	<path class="st1" d="M39.7,421.8h8.1l22.4,33.8h0.1v-33.8h7.4v47.4h-7.2l-23.2-34.5h-0.1v34.5h-7.4v-47.4H39.7z"/>
	<path class="st1" d="M99.5,429.2H84.9v-7.4h37.2v7.4h-14.6v39.9h-8C99.5,469.1,99.5,429.2,99.5,429.2z"/>
	<path class="st1" d="M129.2,421.8h30.6v7.4h-22.6V441h16.6v7.1h-16.6v13.8h23.9v7.3h-31.9V421.8z"/>
	<path class="st1" d="M168.9,421.8h17c11.3,0,17.8,4.5,17.8,14.2c0,7.6-3.9,11.8-10.5,13.4l11.1,19.7h-8.6l-10.6-18.7h-8.3v18.7
		h-7.9V421.8z M185.6,443.5c6.7,0,10.2-1.7,10.2-7.3c0-5.4-3.5-7.1-10.3-7.1h-8.7v14.4H185.6z"/>
	<path class="st1" d="M213.2,421.8h8.1l22.4,33.8h0.1v-33.8h7.4v47.4H244l-23.2-34.5h-0.1v34.5h-7.4v-47.4H213.2z"/>
	<path class="st1" d="M259.5,458l6.3-3.3c2.8,5.6,7.2,8.3,13.1,8.3c5.8,0,9.7-1.9,9.7-6.1c0-4.1-2.9-6-10.8-8.3
		c-9.2-2.7-16.5-5.2-16.5-14.2c0-8.1,6.6-13.4,16.2-13.4c9.3,0,14.8,4.6,17.7,10.2l-5.8,4c-2.8-4.7-6.8-6.9-12-6.9s-8.3,1.9-8.3,5.4
		c0,4.4,3.4,5.9,11.1,8.2c9,2.6,16.1,5.6,16.1,14.5c0,7.7-6.6,13.8-17.9,13.8C269.2,470,262.5,465.2,259.5,458z"/>
	<path class="st1" d="M305.1,421.8h8v18.9h21.5v-18.9h8v47.4h-8v-21.1h-21.5v21.1h-8V421.8z"/>
	<path class="st1" d="M353.9,421.8h8.1v47.4h-8.1V421.8z"/>
	<path class="st1" d="M373.2,421.8h16.6c10.2,0,18.2,3.6,18.2,14.5c0,11.5-8.8,14.8-18.5,14.8h-8.4v18h-7.9L373.2,421.8L373.2,421.8
		z M389.9,444.2c7,0,10.2-2.2,10.2-7.6c0-5.2-3.2-7.5-10.3-7.5h-8.7v15.1H389.9z"/>
</g>
<g>
	<path class="st3" d="M22,508.1c0-1.5,0.5-2.9,3.2-4.7c1.6-1,2.2-1.5,2.2-2.6c0-1-0.6-1.5-1.6-1.5c-0.9,0-1.8,0.6-2.4,1.5l-1.3-0.9
		c0.8-1.3,2-2.2,3.8-2.2c2,0,3.2,1.2,3.2,2.9c0,1.3-0.5,2.2-2.5,3.5c-1.7,1.1-2.5,1.9-2.7,2.6h5.2v1.5L22,508.1L22,508.1L22,508.1
		L22,508.1z"/>
	<path class="st3" d="M30.5,503.2c0-3.2,1.5-5.4,4.1-5.4s4.1,2.1,4.1,5.4c0,3.2-1.5,5.4-4.1,5.4S30.5,506.4,30.5,503.2z M36.9,503.2
		c0-2.6-0.9-3.8-2.3-3.8c-1.5,0-2.4,1.2-2.4,3.8s0.9,3.8,2.4,3.8S36.9,505.8,36.9,503.2z"/>
	<path class="st3" d="M39.8,506.8h1.9v-7c-0.5,0.3-1.3,0.5-1.9,0.5v-1.6c0.8,0,1.5-0.2,1.9-0.7h1.7v8.8h1.7v1.5h-5.3
		C39.8,508.3,39.8,506.8,39.8,506.8z"/>
	<path class="st3" d="M45.7,507l1.1-1.1c0.7,0.7,1.5,1.2,2.6,1.2c1.5,0,2.2-0.9,2.2-2.1c0-1.4-0.8-2-2-2c-0.9,0-1.5,0.3-2.1,1
		l-1.2-0.4l0.4-5.5h6l-0.1,1.5h-4.5l-0.2,2.7c0.4-0.4,1.1-0.8,2.2-0.8c2.1,0,3.3,1.4,3.3,3.4c0,2.2-1.5,3.7-3.9,3.7
		C47.8,508.6,46.5,507.9,45.7,507z"/>
	<path class="st3" d="M57.2,507.4l1.1-1.1c0.4,0.4,0.9,0.7,1.6,0.7c1,0,1.6-0.4,1.6-1.8V498h1.8v7.5c0,1.9-1.2,3.1-3.2,3.1
		C58.8,508.6,57.9,508.1,57.2,507.4z"/>
	<path class="st3" d="M65.2,504.6V498H67v6.4c0,1.6,0.7,2.5,2.3,2.5c1.6,0,2.3-0.9,2.3-2.5V498h1.7v6.6c0,2.4-1.3,4-4,4
		C66.3,508.5,65.2,506.9,65.2,504.6z"/>
	<path class="st3" d="M75.3,498h1.8l4.9,7.4l0,0V498h1.6v10.4H82l-5.1-7.5l0,0v7.5h-1.6V498z"/>
	<path class="st3" d="M85.8,498h6.7v1.6h-4.9v2.6h3.6v1.6h-3.6v3h5.2v1.6h-7C85.8,508.4,85.8,498,85.8,498z"/>
	<path class="st3" d="M97.4,503.4h3.5v1.2h-3.5V503.4z"/>
	<path class="st3" d="M108.9,498h1.7l3.7,10.4h-1.8l-0.8-2.5h-3.9l-0.9,2.5h-1.6L108.9,498z M111.1,504.4l-1.4-4.2l0,0l-1.4,4.2
		H111.1z"/>
	<path class="st3" d="M115.6,504.6V498h1.8v6.4c0,1.6,0.7,2.5,2.3,2.5s2.3-0.9,2.3-2.5V498h1.7v6.6c0,2.4-1.3,4-4,4
		C116.7,508.5,115.6,506.9,115.6,504.6z"/>
	<path class="st3" d="M125.2,503.1c0-3.3,1.8-5.3,4.6-5.3c2,0,3.4,0.9,4,3.3l-1.6,0.4c-0.5-1.6-1.2-2.1-2.4-2.1s-2.8,0.8-2.8,3.7
		s1.4,3.9,2.9,3.9c1.4,0,2.3-0.8,2.4-2.3h-2.1v-1.4h3.8v5.1h-1.4v-1.5l0,0c-0.3,0.7-1.2,1.7-2.8,1.7
		C126.6,508.6,125.2,506.3,125.2,503.1z"/>
	<path class="st3" d="M135.8,504.6V498h1.8v6.4c0,1.6,0.7,2.5,2.3,2.5s2.3-0.9,2.3-2.5V498h1.7v6.6c0,2.4-1.3,4-4,4
		C137,508.5,135.8,506.9,135.8,504.6z"/>
	<path class="st3" d="M145.4,505.9l1.4-0.7c0.6,1.2,1.6,1.8,2.9,1.8c1.3,0,2.1-0.4,2.1-1.3s-0.6-1.3-2.4-1.8c-2-0.6-3.6-1.1-3.6-3.1
		c0-1.8,1.4-2.9,3.5-2.9c2,0,3.2,1,3.9,2.2l-1.3,0.9c-0.6-1-1.5-1.5-2.6-1.5s-1.8,0.4-1.8,1.2c0,1,0.7,1.3,2.4,1.8
		c2,0.6,3.5,1.2,3.5,3.2c0,1.7-1.4,3-3.9,3C147.5,508.6,146,507.5,145.4,505.9z"/>
	<path class="st3" d="M157.6,499.6h-3.2V498h8.1v1.6h-3.2v8.7h-1.8L157.6,499.6L157.6,499.6z"/>
</g>
<g>
	<rect x="13.9" y="306" class="st4" width="121.2" height="55.3"/>
	<path class="st1" d="M19.3,306h29.8v7.4H27.3v12.7h15.8v7.1H27.3v20.2h-8V306z"/>
	<path class="st1" d="M48.6,336.4c0-12.9,9.2-17.7,16.2-17.7c7.6,0,14.9,4.5,14.9,18.4v1.9H56.5c0.3,6.1,4.1,8.8,9.1,8.8
		c4.4,0,7-1.5,9.5-4l4.2,4.1c-3.5,3.9-8.2,6.1-14.3,6.1C56.5,354.1,48.6,348.9,48.6,336.4z M72.5,333.1c-0.4-5.2-3-7.9-7.7-7.9
		c-3.8,0-7.4,2.2-8.1,7.9H72.5z"/>
	<path class="st1" d="M86.9,306.6h8.1v6.8h-8.1V306.6z M86.9,319.4h7.9v34h-7.9V319.4z"/>
</g>
</svg>
