<?xml version="1.0" encoding="utf-8"?>
<!-- Generator: Adobe Illustrator 16.0.0, SVG Export Plug-In . SVG Version: 6.00 Build 0)  -->
<!DOCTYPE svg PUBLIC "-//W3C//DTD SVG 1.1//EN" "http://www.w3.org/Graphics/SVG/1.1/DTD/svg11.dtd">
<svg version="1.1" id="Layer_1" xmlns="http://www.w3.org/2000/svg" xmlns:xlink="http://www.w3.org/1999/xlink" x="0px" y="0px"
	 width="354.035px" height="360.034px" viewBox="0 0 354.035 360.034" enable-background="new 0 0 354.035 360.034"
	 xml:space="preserve">
<path opacity="0.5" fill="#555658" d="M194.562,171.673"/>
<path opacity="0.3" fill="#000102" d="M187.312,171.979h97.965c2.295,0,3.445-1.012,3.445-3.015V66.927
	c0-2.015-1.15-3.012-3.445-3.012h-84.529c-2.295,0-3.439-1.009-3.439-3.019v-4.519c0-2.013,1.145-3.015,3.439-3.015h96.398
	c2.045,0,4.543,2.283,4.543,4.541v233.562c0,2.265-2.498,4.168-4.543,4.168H180.748l18.441-0.001H64.348
	c-2.361,0-3.534-1.098-3.534-3.293V61.786c0-2.195,1.173-3.292,3.534-3.292h6.189c2.355,0,3.541,1.097,3.541,3.292v107.318
	c0,1.947,1.326,2.925,3.978,2.925L187.312,171.979v10.25l-109.257,0.04c-2.651,0-3.978,0.972-3.978,2.926v96.928
	c0,1.949,1.291,2.96,3.942,2.96l121.085,0.001l1.52,0.002h84.652c2.295,0,3.445-1.009,3.445-3.016v-96.832
	c0-2.013-1.15-3.016-3.445-3.016h-97.965V171.979z"/>
<path fill="#62DD62" d="M141.354,169.484v-72.51c0-0.695-1.182-1.042-3.537-1.042h-6.189c-2.365,0-3.537,0.347-3.537,1.042v72.51
	c0,0.695,1.172,1.044,3.537,1.044h6.189C140.172,170.528,141.354,170.18,141.354,169.484z"/>
<path fill="none" stroke="#62DD62" stroke-width="8" stroke-miterlimit="10" d="M154.729,58.068
	c0,10.951-8.878,19.828-19.824,19.828c-10.952,0-19.828-8.876-19.828-19.828c0-10.949,8.876-19.826,19.828-19.826
	C145.851,38.242,154.729,47.119,154.729,58.068z"/>
</svg>
