<?xml version="1.0" encoding="utf-8"?>
<!-- Generator: Adobe Illustrator 16.0.0, SVG Export Plug-In . SVG Version: 6.00 Build 0)  -->
<!DOCTYPE svg PUBLIC "-//W3C//DTD SVG 1.1//EN" "http://www.w3.org/Graphics/SVG/1.1/DTD/svg11.dtd">
<svg version="1.1" id="Layer_1" xmlns="http://www.w3.org/2000/svg" xmlns:xlink="http://www.w3.org/1999/xlink" x="0px" y="0px"
	 width="686.25px" height="303.75px" viewBox="0 0 686.25 303.75" enable-background="new 0 0 686.25 303.75" xml:space="preserve">
<rect x="237.271" y="91.217" fill="none" width="423.89" height="210.629"/>
<text transform="matrix(1 0 0 1 237.2715 155.1221)" fill="#0D5487" font-family="'OpenSans-Semibold'" font-size="90">FEI  ZHAO</text>
<text transform="matrix(1 0 0 1 237.2715 222.3906)" fill="#0D5487" font-family="'OpenSans'" font-size="48">UX / UI DESIGNER</text>
<path opacity="0.5" fill="#555658" stroke="#FCFCFC" stroke-miterlimit="10" enable-background="new    " d="M126.717,157.207"/>
<path fill="#FFCF05" stroke="#FFCF05" stroke-width="4" stroke-miterlimit="10" d="M122.657,157.378h54.83
	c1.284,0,1.928-0.565,1.928-1.687v-57.11c0-1.127-0.644-1.685-1.928-1.685h-47.31c-1.285,0-1.926-0.565-1.926-1.69v-2.529
	c0-1.125,0.641-1.686,1.926-1.686h53.952c1.146,0,2.544,1.278,2.544,2.54v130.723c0,1.266-1.398,2.331-2.544,2.331h-65.146h10.321
	h-75.47c-1.321,0-1.977-0.612-1.977-1.841V95.705c0-1.229,0.655-1.842,1.977-1.842h3.467c1.315,0,1.98,0.613,1.98,1.842v60.064
	c0,1.09,0.742,1.637,2.226,1.637L122.657,157.378v5.737l-61.148,0.021c-1.483,0-2.226,0.544-2.226,1.638v54.25
	c0,1.088,0.723,1.656,2.207,1.656h67.77h0.848h47.38c1.284,0,1.928-0.562,1.928-1.688v-54.196c0-1.128-0.644-1.688-1.928-1.688
	h-54.83L122.657,157.378L122.657,157.378z"/>
<path fill="#FFCF05" d="M96.936,148.094V115.29c0-0.316-0.662-0.474-1.979-0.474h-3.465c-1.324,0-1.979,0.157-1.979,0.474v32.805
	c0,0.314,0.654,0.472,1.979,0.472h3.465C96.273,148.566,96.936,148.409,96.936,148.094z"/>
<circle fill="none" stroke="#FFCF05" stroke-width="8" stroke-miterlimit="10" cx="93.325" cy="93.625" r="11.097"/>
</svg>
