<?xml version="1.0" encoding="utf-8"?>
<!-- Generator: Adobe Illustrator 19.2.1, SVG Export Plug-In . SVG Version: 6.00 Build 0)  -->
<svg version="1.1" id="Layer_1" xmlns="http://www.w3.org/2000/svg" xmlns:xlink="http://www.w3.org/1999/xlink" x="0px" y="0px"
	 viewBox="0 0 792 593.2" style="enable-background:new 0 0 792 593.2;" xml:space="preserve">
<style type="text/css">
	.st0{fill:#0097A7;}
	.st1{fill:#FCFCFC;}
	.st2{fill:none;}
	.st3{fill:#FFFFFF;}
</style>
<rect x="-30.2" y="-25" class="st0" width="861.5" height="654.4"/>
<g>
	<path class="st1" d="M319,275.4C319,275.4,319,275.4,319,275.4c0-0.1,0-0.1,0-0.1c-0.1-1-0.2-2-0.4-3c-0.1-0.5-0.1-0.9-0.2-1.3
		c-0.2-1.1-0.4-2.1-0.7-3.2c-0.1-0.4-0.2-0.7-0.3-1.1c-0.3-1.1-0.6-2.1-1-3.2c-0.1-0.3-0.2-0.6-0.3-0.9c-0.4-1-0.8-2.1-1.3-3.1
		c-0.1-0.3-0.3-0.6-0.4-0.9c-0.5-1-1-1.9-1.5-2.9c-0.2-0.4-0.5-0.8-0.7-1.2c-0.5-0.8-1-1.7-1.6-2.5c-0.4-0.6-0.8-1.1-1.2-1.6
		c-0.5-0.6-0.9-1.2-1.4-1.8c-1-1.1-1.9-2.3-3-3.3c-1.1-1.1-2.2-2.1-3.3-3c-0.6-0.5-1.2-0.9-1.7-1.3c-0.6-0.4-1.2-0.9-1.7-1.3
		c-0.8-0.5-1.6-1-2.4-1.5c-0.4-0.3-0.8-0.5-1.3-0.8c-0.9-0.5-1.8-1-2.8-1.4c-0.3-0.2-0.7-0.3-1-0.5c-1-0.5-2-0.9-3-1.3
		c-0.3-0.1-0.6-0.2-1-0.4c-1-0.4-2.1-0.7-3.1-1c-0.4-0.1-0.7-0.2-1.1-0.3c-1-0.3-2.1-0.5-3.2-0.7c-0.4-0.1-0.9-0.1-1.3-0.2
		c-1-0.2-2-0.3-3.1-0.4c0,0,0,0,0,0c0,0,0,0,0,0c-1.4-0.1-2.9-0.2-4.3-0.2c-13,0-25.2,5.1-34.4,14.2c-10.5,10.5-15.2,24.7-14,38.5
		c0,0.1,0,0.1,0,0.2c0,0.1,0,0.2,0,0.3c0,0.1,0,0.1,0,0.2c0.1,1.4,0.3,2.8,0.6,4.2c0.1,0.4,0.2,0.9,0.3,1.3c0.2,1,0.4,2,0.7,2.9
		c0.2,0.6,0.4,1.2,0.6,1.8c0.3,0.8,0.5,1.6,0.8,2.3c0.3,0.7,0.5,1.4,0.8,2c0.3,0.7,0.6,1.4,0.9,2c0.3,0.7,0.7,1.4,1.1,2
		c0.4,0.7,0.8,1.3,1.2,1.9c0.4,0.6,0.8,1.2,1.2,1.9c0.5,0.7,1,1.4,1.6,2.2c0.4,0.5,0.7,1,1.1,1.4c1,1.2,2,2.3,3.1,3.4
		c1.1,1.1,2.2,2.1,3.3,3c0.6,0.5,1.2,0.9,1.8,1.4c0.5,0.4,1.1,0.8,1.6,1.2c0.8,0.6,1.6,1.1,2.5,1.6c0.4,0.2,0.8,0.5,1.1,0.7
		c0.9,0.5,1.9,1,2.9,1.5c0.3,0.1,0.6,0.3,0.9,0.4c1,0.5,2.1,0.9,3.1,1.3c0.3,0.1,0.6,0.2,0.9,0.3c1.1,0.4,2.1,0.7,3.2,1
		c0.3,0.1,0.6,0.2,1,0.2c1.1,0.3,2.2,0.5,3.3,0.7c0.4,0.1,0.8,0.1,1.1,0.2c1.1,0.2,2.1,0.3,3.2,0.4c0,0,0,0,0,0c0.1,0,0.1,0,0.2,0h0
		c1.4,0.1,2.8,0.2,4.2,0.2c13,0,25.2-5.1,34.4-14.2c9.2-9.2,14.2-21.4,14.2-34.4C319.2,278.3,319.1,276.8,319,275.4z M276.1,235.6
		c0.4,0,0.8,0.1,1.1,0.2c3.2,0.5,6.3,1.3,9.3,2.4c0.1,0,0.2,0.1,0.3,0.1c0.9,0.4,1.8,0.8,2.7,1.2c0.3,0.1,0.6,0.3,0.9,0.4
		c0.8,0.4,1.6,0.8,2.3,1.3c0.4,0.2,0.8,0.5,1.3,0.7c0.7,0.4,1.3,0.8,1.9,1.3c0.6,0.4,1.1,0.8,1.7,1.2c0.5,0.4,1,0.7,1.4,1.1
		c1,0.9,2,1.8,3,2.7c1,1,1.8,1.9,2.7,3c0.4,0.5,0.8,1,1.1,1.5c0.4,0.5,0.8,1.1,1.2,1.6c0.5,0.7,0.9,1.3,1.3,2
		c0.2,0.4,0.5,0.8,0.7,1.2c0.4,0.8,0.9,1.6,1.3,2.4c0.1,0.3,0.3,0.6,0.4,0.9c0.4,0.9,0.9,1.8,1.2,2.8c0,0.1,0,0.1,0.1,0.2
		c1.2,3,2,6.1,2.4,9.3c0.1,0.4,0.1,0.8,0.2,1.2c-3.5,1.4-7.4,2.2-11.2,2.2c-7.9,0-15.3-3.1-20.9-8.7
		C274.1,259.4,271.6,246.6,276.1,235.6z M265.1,323.8c-0.3,0-0.7-0.1-1-0.2c-3.3-0.5-6.5-1.3-9.6-2.5c0,0,0,0-0.1,0
		c-1-0.4-1.9-0.8-2.8-1.2c-0.3-0.1-0.5-0.2-0.8-0.4c-0.8-0.4-1.6-0.8-2.4-1.3c-0.4-0.2-0.8-0.5-1.2-0.7c-0.7-0.4-1.4-0.9-2-1.3
		c-0.5-0.4-1.1-0.8-1.6-1.2c-0.5-0.4-1-0.8-1.5-1.2c-1-0.8-2-1.7-3-2.7c-1-1-1.9-2-2.8-3.1c-0.3-0.4-0.7-0.8-1-1.2
		c-0.5-0.7-1-1.3-1.5-2c-0.4-0.5-0.7-1.1-1-1.6c-0.4-0.6-0.7-1.2-1.1-1.8c-0.3-0.6-0.6-1.2-0.9-1.8c-0.3-0.6-0.6-1.3-0.9-1.9
		c-0.2-0.6-0.5-1.1-0.7-1.7c-0.4-1.1-0.8-2.2-1.2-3.3c-0.1-0.2-0.1-0.5-0.2-0.7c-0.3-1.2-0.6-2.4-0.9-3.6c-0.1-0.3-0.1-0.7-0.2-1
		c-0.1-0.8-0.2-1.5-0.3-2.3c3.5-1.4,7.4-2.2,11.2-2.2c7.9,0,15.3,3.1,20.9,8.7C267.1,300.1,269.6,312.8,265.1,323.8z M302,311.2
		c-8.4,8.4-19.6,13-31.4,13c-0.4,0-0.8,0-1.1-0.1c4.4-12.2,1.4-26.1-7.8-35.4c-6.4-6.4-14.8-9.9-23.9-9.9c-3.9,0-7.8,0.7-11.5,2
		c-0.3-11.8,4-23.6,12.9-32.6c8.4-8.4,19.6-13,31.4-13c0.4,0,0.8,0,1.2,0.1c-4.4,12.2-1.4,26.1,7.9,35.4c6.4,6.4,14.8,9.9,23.9,9.9
		l0,0c3.9,0,7.9-0.7,11.6-2.1c0,0.4,0.1,0.8,0.1,1.2C315.1,291.6,310.4,302.8,302,311.2z M221.5,325.9l-15.7,15.7
		c-0.8,0.8-0.8,2.1,0,2.9c0.4,0.4,0.9,0.6,1.5,0.6c0.5,0,1.1-0.2,1.5-0.6l15.7-15.7c0.8-0.8,0.8-2.1,0-2.9
		C223.6,325.1,222.3,325.1,221.5,325.9z M214.7,312.2c-0.5-1-1.8-1.4-2.8-0.9l-18.9,9.6c-1,0.5-1.4,1.8-0.9,2.8
		c0.4,0.7,1.1,1.1,1.9,1.1c0.3,0,0.6-0.1,0.9-0.2l18.9-9.6C214.9,314.5,215.3,313.2,214.7,312.2z M238.1,335.6
		c-1-0.5-2.3-0.1-2.8,0.9l-9.6,18.9c-0.5,1-0.1,2.3,0.9,2.8c0.3,0.2,0.6,0.2,0.9,0.2c0.8,0,1.5-0.4,1.9-1.1l9.6-18.9
		C239.6,337.4,239.2,336.1,238.1,335.6z"/>
	<g>
		<rect x="346.4" y="263.6" class="st2" width="251.7" height="62.3"/>
		<path class="st3" d="M357.5,274.7h8.7V286c-1.4,0.5-2.7,0.8-4,1c-1.2,0.2-2.5,0.3-3.8,0.3c-3.3,0-5.8-1-7.6-2.9
			c-1.7-1.9-2.6-4.7-2.6-8.4c0-3.5,1-6.3,3-8.3c2-2,4.8-3,8.4-3c2.3,0,4.4,0.5,6.5,1.4l-1.5,3.7c-1.6-0.8-3.3-1.2-5-1.2
			c-2,0-3.6,0.7-4.8,2c-1.2,1.4-1.8,3.2-1.8,5.4c0,2.4,0.5,4.2,1.5,5.5s2.4,1.9,4.3,1.9c1,0,2-0.1,3-0.3v-4.6h-4.2V274.7z"/>
		<path class="st3" d="M389.3,265v14.2c0,1.6-0.4,3-1.1,4.3c-0.7,1.2-1.8,2.2-3.1,2.8c-1.4,0.7-3,1-4.9,1c-2.8,0-5-0.7-6.6-2.2
			c-1.6-1.4-2.3-3.4-2.3-5.9V265h4.6v13.4c0,1.7,0.3,2.9,1,3.7c0.7,0.8,1.8,1.2,3.4,1.2c1.5,0,2.6-0.4,3.3-1.2c0.7-0.8,1-2,1-3.7
			V265H389.3z"/>
		<path class="st3" d="M408.1,287l-1.6-5.2h-8l-1.6,5.2h-5l7.7-22h5.7l7.8,22H408.1z M405.4,277.9c-1.5-4.7-2.3-7.4-2.5-8
			c-0.2-0.6-0.3-1.1-0.4-1.5c-0.3,1.3-1.3,4.4-2.8,9.5H405.4z"/>
		<path class="st3" d="M428.4,265h4.7l-7.5,21.9h-5.1l-7.4-21.9h4.7l4.1,13.1c0.2,0.8,0.5,1.7,0.7,2.7c0.2,1,0.4,1.7,0.5,2.1
			c0.1-0.9,0.5-2.5,1.1-4.8L428.4,265z"/>
		<path class="st3" d="M449.3,287l-1.6-5.2h-8l-1.6,5.2h-5l7.7-22h5.7l7.8,22H449.3z M446.6,277.9c-1.5-4.7-2.3-7.4-2.5-8
			c-0.2-0.6-0.3-1.1-0.4-1.5c-0.3,1.3-1.3,4.4-2.8,9.5H446.6z"/>
		<path class="st3" d="M474.3,287l-5.3-17.2h-0.1c0.2,3.5,0.3,5.8,0.3,7V287H465V265h6.3l5.2,16.8h0.1l5.5-16.8h6.3V287h-4.3v-10.4
			c0-0.5,0-1.1,0-1.7c0-0.6,0.1-2.3,0.2-5.1h-0.1l-5.7,17.2H474.3z"/>
		<path class="st3" d="M513.9,276c0,3.6-0.9,6.4-2.7,8.4s-4.4,2.9-7.7,2.9c-3.4,0-5.9-1-7.7-2.9c-1.8-2-2.7-4.8-2.7-8.4
			c0-3.7,0.9-6.4,2.7-8.4s4.4-2.9,7.8-2.9c3.4,0,6,1,7.7,2.9C513,269.6,513.9,272.3,513.9,276z M497.9,276c0,2.5,0.5,4.3,1.4,5.5
			c0.9,1.2,2.3,1.9,4.2,1.9c3.7,0,5.6-2.5,5.6-7.4c0-4.9-1.8-7.4-5.5-7.4c-1.9,0-3.2,0.6-4.2,1.9C498.4,271.7,497.9,273.5,497.9,276
			z"/>
		<path class="st3" d="M527,287h-4.7v-18.1h-6V265h16.6v3.9h-6V287z"/>
		<path class="st3" d="M536.3,287V265h4.7V287H536.3z"/>
		<path class="st3" d="M566.4,276c0,3.6-0.9,6.4-2.7,8.4c-1.8,2-4.4,2.9-7.7,2.9s-5.9-1-7.7-2.9s-2.7-4.8-2.7-8.4
			c0-3.7,0.9-6.4,2.7-8.4s4.4-2.9,7.8-2.9c3.4,0,6,1,7.7,2.9C565.5,269.6,566.4,272.3,566.4,276z M550.4,276c0,2.5,0.5,4.3,1.4,5.5
			c0.9,1.2,2.3,1.9,4.2,1.9c3.7,0,5.6-2.5,5.6-7.4c0-4.9-1.8-7.4-5.5-7.4c-1.9,0-3.2,0.6-4.2,1.9C550.8,271.7,550.4,273.5,550.4,276
			z"/>
		<path class="st3" d="M590.4,287h-5.9l-9.5-16.6h-0.1c0.2,2.9,0.3,5,0.3,6.3V287h-4.2V265h5.9l9.5,16.4h0.1c-0.1-2.9-0.2-4.9-0.2-6
			V265h4.2V287z"/>
		<path class="st3" d="M351.8,323h-2.5v-21.4h11.9v2.2h-9.4v7.8h8.9v2.2h-8.9V323z"/>
		<path class="st3" d="M364.8,323v-21.4h2.5V323H364.8z"/>
		<path class="st3" d="M379.8,323h-2.5v-19.2h-6.8v-2.2h16.1v2.2h-6.8V323z"/>
		<path class="st3" d="M406.5,323h-2.8L392,305h-0.1c0.2,2.1,0.2,4,0.2,5.8V323h-2.3v-21.4h2.8l11.7,17.9h0.1c0-0.3-0.1-1.1-0.1-2.5
			s-0.1-2.5-0.1-3.1v-12.3h2.3V323z"/>
		<path class="st3" d="M424.4,323h-11.9v-21.4h11.9v2.2h-9.4v6.9h8.9v2.2h-8.9v7.9h9.4V323z"/>
		<path class="st3" d="M441.2,317.3c0,1.9-0.7,3.4-2.1,4.4s-3.2,1.6-5.6,1.6c-2.5,0-4.5-0.3-5.9-1v-2.4c0.9,0.4,1.8,0.7,2.9,0.9
			s2.1,0.3,3.1,0.3c1.7,0,2.9-0.3,3.8-0.9s1.3-1.5,1.3-2.6c0-0.7-0.1-1.3-0.4-1.8c-0.3-0.5-0.8-0.9-1.5-1.3
			c-0.7-0.4-1.8-0.9-3.2-1.4c-2-0.7-3.4-1.6-4.3-2.5c-0.9-1-1.3-2.2-1.3-3.8c0-1.7,0.6-3,1.9-3.9s2.9-1.5,4.9-1.5
			c2.1,0,4.1,0.4,5.9,1.2l-0.8,2.2c-1.8-0.7-3.5-1.1-5.2-1.1c-1.3,0-2.3,0.3-3.1,0.8s-1.1,1.4-1.1,2.4c0,0.7,0.1,1.4,0.4,1.8
			s0.7,0.9,1.4,1.3c0.6,0.4,1.6,0.8,3,1.3c2.2,0.8,3.8,1.7,4.6,2.6C440.8,314.6,441.2,315.8,441.2,317.3z"/>
		<path class="st3" d="M457.7,317.3c0,1.9-0.7,3.4-2.1,4.4s-3.2,1.6-5.6,1.6c-2.5,0-4.5-0.3-5.9-1v-2.4c0.9,0.4,1.8,0.7,2.9,0.9
			s2.1,0.3,3.1,0.3c1.7,0,2.9-0.3,3.8-0.9s1.3-1.5,1.3-2.6c0-0.7-0.1-1.3-0.4-1.8c-0.3-0.5-0.8-0.9-1.5-1.3
			c-0.7-0.4-1.8-0.9-3.2-1.4c-2-0.7-3.4-1.6-4.3-2.5c-0.9-1-1.3-2.2-1.3-3.8c0-1.7,0.6-3,1.9-3.9s2.9-1.5,4.9-1.5
			c2.1,0,4.1,0.4,5.9,1.2l-0.8,2.2c-1.8-0.7-3.5-1.1-5.2-1.1c-1.3,0-2.3,0.3-3.1,0.8s-1.1,1.4-1.1,2.4c0,0.7,0.1,1.4,0.4,1.8
			s0.7,0.9,1.4,1.3c0.6,0.4,1.6,0.8,3,1.3c2.2,0.8,3.8,1.7,4.6,2.6C457.2,314.6,457.7,315.8,457.7,317.3z"/>
		<path class="st3" d="M476.4,323h-2.5v-19.2h-6.8v-2.2h16.1v2.2h-6.8V323z"/>
		<path class="st3" d="M488.9,314.1v8.9h-2.5v-21.4h5.9c2.6,0,4.6,0.5,5.8,1.5c1.3,1,1.9,2.5,1.9,4.5c0,2.8-1.4,4.7-4.3,5.7l5.8,9.6
			h-2.9l-5.2-8.9H488.9z M488.9,311.9h3.4c1.8,0,3-0.3,3.9-1s1.2-1.7,1.2-3.1c0-1.4-0.4-2.4-1.3-3.1c-0.8-0.6-2.2-0.9-4-0.9h-3.2
			V311.9z"/>
		<path class="st3" d="M518.4,323l-2.7-6.8h-8.6l-2.6,6.8H502l8.5-21.5h2.1L521,323H518.4z M515,313.9l-2.5-6.6
			c-0.3-0.8-0.7-1.9-1-3.1c-0.2,0.9-0.5,2-0.9,3.1l-2.5,6.6H515z"/>
		<path class="st3" d="M533.1,303.5c-2.4,0-4.2,0.8-5.6,2.4c-1.4,1.6-2,3.7-2,6.4c0,2.8,0.7,5,2,6.5c1.3,1.5,3.2,2.3,5.6,2.3
			c1.5,0,3.2-0.3,5.1-0.8v2.2c-1.5,0.6-3.3,0.8-5.5,0.8c-3.2,0-5.6-1-7.3-2.9c-1.7-1.9-2.6-4.6-2.6-8.2c0-2.2,0.4-4.1,1.2-5.8
			c0.8-1.7,2-2.9,3.6-3.8c1.6-0.9,3.4-1.3,5.5-1.3c2.2,0,4.2,0.4,5.9,1.2l-1.1,2.1C536.4,303.9,534.7,303.5,533.1,303.5z"/>
		<path class="st3" d="M558.3,323h-2.9l-7.8-10.4l-2.2,2v8.4h-2.5v-21.4h2.5v10.6l9.7-10.6h2.9l-8.6,9.3L558.3,323z"/>
		<path class="st3" d="M573.2,323h-11.9v-21.4h11.9v2.2h-9.4v6.9h8.9v2.2h-8.9v7.9h9.4V323z"/>
		<path class="st3" d="M580.5,314.1v8.9H578v-21.4h5.9c2.6,0,4.6,0.5,5.8,1.5c1.3,1,1.9,2.5,1.9,4.5c0,2.8-1.4,4.7-4.3,5.7l5.8,9.6
			h-2.9l-5.2-8.9H580.5z M580.5,311.9h3.4c1.8,0,3-0.3,3.9-1s1.2-1.7,1.2-3.1c0-1.4-0.4-2.4-1.3-3.1c-0.8-0.6-2.2-0.9-4-0.9h-3.2
			V311.9z"/>
	</g>
</g>
</svg>
