<?xml version="1.0" encoding="utf-8"?>
<!-- Generator: Adobe Illustrator 19.2.1, SVG Export Plug-In . SVG Version: 6.00 Build 0)  -->
<svg version="1.1" id="Layer_1" xmlns="http://www.w3.org/2000/svg" xmlns:xlink="http://www.w3.org/1999/xlink" x="0px" y="0px"
	 viewBox="0 0 792 593.2" style="enable-background:new 0 0 792 593.2;" xml:space="preserve">
<style type="text/css">
	.st0{fill:#9E9E9E;}
	.st1{fill:#FFFFFF;}
	.st2{fill:none;}
	.st3{font-family:'OpenSans-Semibold';}
	.st4{font-size:33.1953px;}
</style>
<rect x="-30.6" y="-42" class="st0" width="869.1" height="677.2"/>
<g>
	<g id="interface_-_grid_thumb">
		<g>
			<path class="st1" d="M378.3,308.4h-34.6c-4.8,0-8.6,3.9-8.6,8.6v34.6c0,4.8,3.9,8.6,8.6,8.6h34.6c4.8,0,8.6-3.9,8.6-8.6V317
				C387,312.2,383.1,308.4,378.3,308.4z M378.3,347.2c0,2.4-1.9,4.3-4.3,4.3h-25.9c-2.4,0-4.3-1.9-4.3-4.3v-25.9
				c0-2.4,1.9-4.3,4.3-4.3H374c2.4,0,4.3,1.9,4.3,4.3V347.2z M309.2,308.4h-34.6c-4.8,0-8.6,3.9-8.6,8.6v34.6c0,4.8,3.9,8.6,8.6,8.6
				h34.6c4.8,0,8.6-3.9,8.6-8.6V317C317.8,312.2,314,308.4,309.2,308.4z M309.2,347.2c0,2.4-1.9,4.3-4.3,4.3H279
				c-2.4,0-4.3-1.9-4.3-4.3v-25.9c0-2.4,1.9-4.3,4.3-4.3h25.9c2.4,0,4.3,1.9,4.3,4.3V347.2z M378.3,239.2h-34.6
				c-4.8,0-8.6,3.9-8.6,8.7v34.6c0,4.8,3.9,8.6,8.6,8.6h34.6c4.8,0,8.6-3.9,8.6-8.6v-34.6C387,243,383.1,239.2,378.3,239.2z
				 M378.3,278.1c0,2.4-1.9,4.3-4.3,4.3h-25.9c-2.4,0-4.3-1.9-4.3-4.3v-25.9c0-2.4,1.9-4.3,4.3-4.3H374c2.4,0,4.3,1.9,4.3,4.3V278.1
				z M309.2,239.2h-34.6c-4.8,0-8.6,3.9-8.6,8.7v34.6c0,4.8,3.9,8.6,8.6,8.6h34.6c4.8,0,8.6-3.9,8.6-8.6v-34.6
				C317.8,243,314,239.2,309.2,239.2z M309.2,278.1c0,2.4-1.9,4.3-4.3,4.3H279c-2.4,0-4.3-1.9-4.3-4.3v-25.9c0-2.4,1.9-4.3,4.3-4.3
				h25.9c2.4,0,4.3,1.9,4.3,4.3V278.1z"/>
		</g>
	</g>
	<rect x="418.8" y="246.5" class="st2" width="162.7" height="112.8"/>
	<text transform="matrix(1 0 0 1 420.3345 266.8232)" class="st1 st3 st4">VISUAL</text>
	<text transform="matrix(1 0 0 1 420.3345 311.6735)" class="st1 st3 st4">DESIGN</text>
	<text transform="matrix(1 0 0 1 420.3345 356.5232)" class="st1 st3 st4">WORKS</text>
</g>
</svg>
