<?xml version="1.0" encoding="utf-8"?>
<!-- Generator: Adobe Illustrator 19.2.1, SVG Export Plug-In . SVG Version: 6.00 Build 0)  -->
<svg version="1.1" id="Layer_1" xmlns="http://www.w3.org/2000/svg" xmlns:xlink="http://www.w3.org/1999/xlink" x="0px" y="0px"
	 viewBox="0 0 792 593.2" style="enable-background:new 0 0 792 593.2;" xml:space="preserve">
<style type="text/css">
	.st0{fill:#FF7043;}
	.st1{clip-path:url(#SVGID_2_);}
	.st2{clip-path:url(#SVGID_5_);}
	.st3{clip-path:url(#SVGID_6_);fill:#FFFFFF;}
	.st4{fill:none;}
	.st5{fill:#FFFFFF;}
</style>
<rect class="st0" width="792" height="593.2"/>
<g>
	<g>
		<g>
			<defs>
				<rect id="SVGID_1_" x="272.7" y="198.6" width="246.5" height="111.9"/>
			</defs>
			<clipPath id="SVGID_2_">
				<use xlink:href="#SVGID_1_"  style="overflow:visible;"/>
			</clipPath>
			<g class="st1">
				<g>
					<defs>
						<rect id="SVGID_3_" x="272.7" y="198.6" width="246.5" height="111.9"/>
					</defs>
					<defs>
						<rect id="SVGID_4_" x="272.7" y="198.6" width="246.5" height="111.9"/>
					</defs>
					<clipPath id="SVGID_5_">
						<use xlink:href="#SVGID_3_"  style="overflow:visible;"/>
					</clipPath>
					<clipPath id="SVGID_6_" class="st2">
						<use xlink:href="#SVGID_4_"  style="overflow:visible;"/>
					</clipPath>
					<path class="st3" d="M488.1,300.7v-2.6h1.9c1.3,0,1.6,0.4,1.6,1.2c0,0.8-0.3,1.4-1.9,1.5 M489.5,302.3c0.6,0,1.1,0,1.5,0.4
						c0.5,0.5,0.5,1.3,0.6,2.2c0.1,0.6,0.2,1.3,0.3,1.8h2c-0.3-0.9-0.5-2-0.6-3c-0.2-1.1-0.3-1.7-1.7-2v-0.1
						c1.4-0.3,2.1-1.2,2.1-2.4c0-2.3-1.9-2.8-3.8-2.8h-3.3v10.2h1.6v-4.4L489.5,302.3L489.5,302.3z M490,310.5
						c4.8,0,8.7-3.9,8.7-8.7c0-4.8-3.9-8.7-8.7-8.7c-4.8,0-8.7,3.9-8.7,8.7C481.2,306.6,485.1,310.5,490,310.5 M490,309
						c-4,0-7.2-3.2-7.2-7.2c0-3.9,3.2-7.2,7.2-7.2s7.2,3.2,7.2,7.2C497.1,305.8,493.9,309,490,309"/>
					<path class="st3" d="M475.3,222.6h-14v14h14c3.3,0,6,2.7,6,6s-2.7,6-6,6h-14v14h14c11,0,20-9,20-20
						C495.2,231.5,486.3,222.6,475.3,222.6 M395.5,296.5c16.7,0,31.2-9.8,37.9-24h17.8v24h10v-24h14c16.6,0,30-13.4,30-30
						s-13.4-30-30-30h-24v36H437c-2.9-20.3-20.4-36-41.5-36h-49.2l-48.9,83.9h11.7l14-24h50.3v24h22.1V296.5z M519.2,242.6
						c0,24.3-19.7,44-44,44v24h-38v-18.7c-10.3,11.5-25.2,18.7-41.8,18.7h-36.2v-24h-28.3l-14,24h-44.4l65.5-112h57.6
						c16.6,0,31.5,7.2,41.8,18.7v-18.7h38C499.5,198.6,519.2,218.3,519.2,242.6 M359.4,222.6v26h-22.3l-8.2,14h44.5v-40H359.4z
						 M427.5,254.6c0,17.7-14.3,32-32,32h-12.2v-14h12.2c9.9,0,18-8,18-18c0-9.9-8.1-18-18-18h-12.2v-14h12.2
						C413.2,222.6,427.5,236.9,427.5,254.6"/>
				</g>
			</g>
		</g>
		<rect x="479.2" y="292.1" class="st0" width="68.3" height="45.8"/>
		<g>
			<rect x="291.5" y="383.5" class="st4" width="327" height="46.5"/>
			<path class="st5" d="M312.4,384.9v14.8c0,1.7-0.4,3.2-1.1,4.4c-0.7,1.3-1.8,2.2-3.1,2.9c-1.4,0.7-3,1-4.9,1c-2.8,0-5-0.8-6.6-2.2
				c-1.6-1.5-2.4-3.6-2.4-6.2v-14.7h3.8v14.5c0,1.9,0.4,3.3,1.3,4.2c0.9,0.9,2.2,1.3,4,1.3c3.5,0,5.3-1.8,5.3-5.5V385L312.4,384.9
				L312.4,384.9z"/>
			<path class="st5" d="M335.1,407.8h-4.3l-5.7-9.3l-5.8,9.3h-4l7.6-11.8l-7.1-11h4.2l5.3,8.6l5.3-8.6h4l-7.1,11.1L335.1,407.8z"/>
			<path class="st5" d="M354.8,407.8V385h3.7v22.8H354.8z"/>
			<path class="st5" d="M379.3,407.8h-3.7v-10.6c0-1.3-0.3-2.3-0.8-3s-1.4-1-2.6-1c-1.6,0-2.7,0.5-3.4,1.4c-0.7,0.9-1.1,2.5-1.1,4.6
				v8.6H364v-17.3h2.9l0.5,2.3h0.2c0.5-0.8,1.3-1.5,2.2-1.9c1-0.4,2-0.7,3.2-0.7c4.1,0,6.2,2.1,6.2,6.3L379.3,407.8L379.3,407.8z"/>
			<path class="st5" d="M390.9,405.1c0.9,0,1.8-0.1,2.7-0.4v2.8c-0.4,0.2-0.9,0.3-1.6,0.4c-0.6,0.1-1.3,0.2-2,0.2
				c-3.5,0-5.2-1.8-5.2-5.5v-9.3h-2.4v-1.6l2.5-1.3l1.2-3.7h2.3v3.8h4.9v2.8h-4.9v9.2c0,0.9,0.2,1.5,0.7,2
				C389.6,404.9,390.2,405.1,390.9,405.1z"/>
			<path class="st5" d="M404.6,408.1c-2.7,0-4.8-0.8-6.3-2.4s-2.3-3.7-2.3-6.5s0.7-5,2.1-6.7c1.4-1.6,3.3-2.4,5.8-2.4
				c2.3,0,4.1,0.7,5.4,2.1s2,3.3,2,5.7v2h-11.5c0.1,1.7,0.5,3,1.4,3.9s2.1,1.4,3.6,1.4c1,0,2-0.1,2.9-0.3c0.9-0.2,1.8-0.5,2.8-1v3
				c-0.9,0.4-1.8,0.7-2.7,0.9S405.7,408.1,404.6,408.1z M403.9,393c-1.2,0-2.1,0.4-2.8,1.1c-0.7,0.7-1.1,1.8-1.3,3.2h7.8
				c0-1.4-0.4-2.5-1-3.2S405.1,393,403.9,393z"/>
			<path class="st5" d="M424.2,390.2c0.7,0,1.3,0.1,1.8,0.2l-0.4,3.4c-0.5-0.1-1.1-0.2-1.6-0.2c-1.5,0-2.7,0.5-3.6,1.4
				c-0.9,1-1.4,2.2-1.4,3.7v9h-3.7v-17.3h2.9l0.5,3h0.2c0.6-1,1.3-1.8,2.2-2.5C422.2,390.5,423.2,390.2,424.2,390.2z"/>
			<path class="st5" d="M444.5,407.8h-3.7v-10.6c0-1.3-0.3-2.3-0.8-3s-1.4-1-2.6-1c-1.6,0-2.7,0.5-3.4,1.4c-0.7,0.9-1.1,2.5-1.1,4.6
				v8.6h-3.7v-17.3h2.9l0.5,2.3h0.2c0.5-0.8,1.3-1.5,2.2-1.9c1-0.4,2-0.7,3.2-0.7c4.1,0,6.2,2.1,6.2,6.3L444.5,407.8L444.5,407.8z"
				/>
			<path class="st5" d="M461.2,402.8c0,1.7-0.6,3-1.8,3.9c-1.2,0.9-3,1.4-5.3,1.4s-4.2-0.3-5.5-1v-3.2c2,0.9,3.9,1.4,5.7,1.4
				c2.3,0,3.4-0.7,3.4-2c0-0.4-0.1-0.8-0.4-1.1c-0.2-0.3-0.7-0.6-1.2-0.9s-1.4-0.7-2.4-1.1c-2-0.8-3.3-1.5-4-2.3s-1.1-1.8-1.1-3
				c0-1.5,0.6-2.6,1.8-3.4c1.2-0.8,2.8-1.2,4.9-1.2c2,0,4,0.4,5.8,1.2l-1.2,2.8c-1.9-0.8-3.4-1.2-4.7-1.2c-1.9,0-2.9,0.6-2.9,1.7
				c0,0.5,0.3,1,0.8,1.4s1.6,0.9,3.3,1.5c1.4,0.6,2.5,1.1,3.1,1.5c0.6,0.5,1.1,1,1.4,1.6C461,401.3,461.2,402,461.2,402.8z"/>
			<path class="st5" d="M480.3,407.8h-3.7v-10.6c0-1.3-0.3-2.3-0.8-3s-1.4-1-2.6-1c-1.5,0-2.7,0.5-3.4,1.4s-1.1,2.5-1.1,4.6v8.6H465
				v-24.3h3.7v6.2c0,1-0.1,2-0.2,3.2h0.2c0.5-0.8,1.2-1.5,2.1-1.9c0.9-0.5,1.9-0.7,3.1-0.7c4.2,0,6.3,2.1,6.3,6.3v11.2H480.3z"/>
			<path class="st5" d="M485.2,385.9c0-0.7,0.2-1.2,0.5-1.5c0.4-0.4,0.9-0.5,1.5-0.5s1.1,0.2,1.5,0.5c0.4,0.4,0.5,0.9,0.5,1.5
				s-0.2,1.1-0.5,1.5s-0.9,0.5-1.5,0.5c-0.7,0-1.2-0.2-1.5-0.5S485.2,386.5,485.2,385.9z M489.1,407.8h-3.7v-17.3h3.7V407.8z"/>
			<path class="st5" d="M503.1,408.1c-2.2,0-3.9-0.8-5.1-2.4h-0.2c0.1,1.5,0.2,2.3,0.2,2.7v7.1h-3.7v-25h3c0.1,0.3,0.3,1.1,0.5,2.3
				h0.2c1.1-1.8,2.9-2.6,5.2-2.6c2.2,0,3.8,0.8,5,2.3s1.8,3.8,1.8,6.6c0,2.8-0.6,5-1.8,6.6C507,407.3,505.3,408.1,503.1,408.1z
				 M502.3,393.2c-1.5,0-2.5,0.4-3.2,1.3s-1,2.2-1,4.1v0.5c0,2.1,0.3,3.6,1,4.6c0.7,0.9,1.8,1.4,3.3,1.4c1.3,0,2.2-0.5,2.9-1.6
				c0.7-1,1-2.5,1-4.5c0-1.9-0.3-3.4-1-4.4C504.6,393.7,503.6,393.2,502.3,393.2z"/>
		</g>
	</g>
</g>
</svg>
