<?xml version="1.0" encoding="UTF-8"?>
<svg width="854px" height="648px" viewBox="0 0 854 648" version="1.1" xmlns="http://www.w3.org/2000/svg" xmlns:xlink="http://www.w3.org/1999/xlink">
    <title>Artboard</title>
    <defs>
        <circle id="path-1" cx="56.8959837" cy="56.8959837" r="56.8959837"></circle>
    </defs>
    <g id="Artboard" stroke="none" stroke-width="1" fill="none" fill-rule="evenodd">
        <ellipse id="Oval-11" fill="#44C338" opacity="0.174781436" cx="46.1166043" cy="54.1665875" rx="8.11660434" ry="8.05533215"></ellipse>
        <ellipse id="Oval-11" fill="#6DBE4F" opacity="0.610351562" cx="780.242009" cy="434.031742" rx="8.11660434" ry="8.05533215"></ellipse>
        <ellipse id="Oval-11" fill="#6DBE4F" opacity="0.516903832" cx="679.450137" cy="292.34252" rx="4.50922463" ry="4.83319929"></ellipse>
        <ellipse id="Oval-11-Copy" fill="#44C338" opacity="0.127325149" cx="746.247918" cy="214.754397" rx="7.21475941" ry="7.24979894"></ellipse>
        <ellipse id="Oval-11-Copy-8" fill="#44C338" opacity="0.0932849702" cx="645.002169" cy="128.311027" rx="17.1350536" ry="17.0367394"></ellipse>
        <ellipse id="Oval-11-Copy-2" fill="#44C338" opacity="0.299200149" cx="101.307006" cy="223.037372" rx="12.625829" ry="12.8885314"></ellipse>
        <ellipse id="Oval-11-Copy-6" fill="#44C338" opacity="0.122930618" cx="767.045699" cy="32.8885314" rx="13.5276739" ry="12.8885314"></ellipse>
        <g id="ILLUSTRATION" transform="translate(320.000000, 302.267090)">
            <g id="Phone" transform="translate(0.000000, 37.085526)">
                <rect id="Rectangle" fill="#D2DDE4" x="32.4671053" y="203.460526" width="110.388158" height="8.65789474" rx="3"></rect>
                <rect id="Rectangle" fill="#D2DDE4" x="32.4671053" y="183.980263" width="110.388158" height="8.65789474" rx="3"></rect>
                <rect id="Rectangle" stroke="#D2DDE4" stroke-width="2" fill="#FFFFFF" x="-1" y="-1" width="162.171053" height="294.203947" rx="15"></rect>
                <path d="M116.881579,207.789474 L45.7315788,207.789474 L45.7315788,207.789474 C44.1035087,207.012919 43.2894737,205.534931 43.2894737,203.35551 C43.2894737,201.176089 44.1993119,199.768112 46.0189883,199.131579 L116.881579,199.131579 C119.272391,199.131579 121.210526,201.069715 121.210526,203.460526 C121.210526,205.851338 119.272391,207.789474 116.881579,207.789474 Z" id="Path-7" fill="#6DBE4F"></path>
                <path d="M116.881579,229.434211 L45.7315788,229.434211 L45.7315788,229.434211 C44.1035087,228.657656 43.2894737,227.179668 43.2894737,225.000247 C43.2894737,222.820826 44.1993119,221.412849 46.0189883,220.776316 L116.881579,220.776316 C119.272391,220.776316 121.210526,222.714452 121.210526,225.105263 C121.210526,227.496075 119.272391,229.434211 116.881579,229.434211 Z" id="Path-7" fill="#6DBE4F"></path>
                <g id="Group" transform="translate(23.809211, 51.947368)">
                    <mask id="mask-2" fill="white">
                        <use xlink:href="#path-1"></use>
                    </mask>
                    <use id="Mask" fill="#E4ECF1" xlink:href="#path-1"></use>
                    <ellipse id="Oval" fill="#B3C1CD" mask="url(#mask-2)" cx="56.4334147" cy="100.840036" rx="62.9093803" ry="27.7541384"></ellipse>
                    <circle id="Oval" fill="#B3C1CD" mask="url(#mask-2)" cx="56.4334147" cy="43.4814834" r="22.2033107"></circle>
                </g>
                <rect id="Rectangle" fill="#F2F7FA" x="6.49342105" y="21.6447368" width="8.65789474" height="248.914474" rx="2.25"></rect>
            </g>
            <g id="Checkmark" transform="translate(123.052632, 0.000000)">
                <circle id="Oval" fill="#FFFFFF" cx="37" cy="37" r="32.6470588"></circle>
                <path d="M52.8915,28.1385 L35.9899,50.3385 C35.2943,51.2524 34.2176,51.7926 33.0706,51.8 L33.0447,51.8 C31.9088,51.8 30.8358,51.2746 30.1328,50.3792 L21.1344,38.8833 C19.8764,37.2775 20.1576,34.9502 21.7671,33.6922 C23.3729,32.4305 25.7039,32.7117 26.9619,34.3249 L33.004,42.0431 L47.0048,23.6578 C48.2406,22.0335 50.5605,21.7153 52.1922,22.9548 C53.8165,24.1943 54.131,26.5142 52.8915,28.1385 M0,37 C0,57.4314 16.5649,74 37,74 C57.4351,74 74,57.4314 74,37 C74,16.5649 57.4351,0 37,0 C16.5649,0 0,16.5649 0,37 Z" id="path-1" fill="#78BB61"></path>
            </g>
        </g>
    </g>
</svg>