<?xml version="1.0" encoding="UTF-8"?>
<svg width="854px" height="576px" viewBox="0 0 854 576" version="1.1" xmlns="http://www.w3.org/2000/svg" xmlns:xlink="http://www.w3.org/1999/xlink">
    <title>Artboard</title>
    <defs>
        <ellipse id="path-1" cx="53.6382411" cy="53.7408602" rx="53.6382411" ry="53.7408602"></ellipse>
    </defs>
    <g id="Artboard" stroke="none" stroke-width="1" fill="none" fill-rule="evenodd">
        <ellipse id="Oval-11" fill="#44C338" opacity="0.174781436" cx="87.0886866" cy="68.8371404" rx="7.66856424" ry="7.61067431"></ellipse>
        <ellipse id="Oval-11" fill="#6DBE4F" opacity="0.610351562" cx="780.690049" cy="427.733573" rx="7.66856424" ry="7.61067431"></ellipse>
        <ellipse id="Oval-11" fill="#6DBE4F" opacity="0.516903832" cx="685.461932" cy="293.865658" rx="4.26031347" ry="4.56640458"></ellipse>
        <ellipse id="Oval-11-Copy" fill="#44C338" opacity="0.127325149" cx="748.572447" cy="220.560433" rx="6.81650155" ry="6.84960688"></ellipse>
        <ellipse id="Oval-11-Copy-8" fill="#44C338" opacity="0.0932849702" cx="652.915507" cy="138.888775" rx="16.1891912" ry="16.0963039"></ellipse>
        <ellipse id="Oval-11-Copy-2" fill="#44C338" opacity="0.299200149" cx="139.232554" cy="228.386184" rx="11.9288777" ry="12.1770789"></ellipse>
        <ellipse id="Oval-11-Copy-6" fill="#44C338" opacity="0.122930618" cx="768.222181" cy="48.7336423" rx="12.7809404" ry="12.1770789"></ellipse>
        <g id="ILLUSTRATION" transform="translate(333.853599, 248.444012)">
            <g id="Phone" transform="translate(0.146401, 35.555988)">
                <rect id="Rectangle" fill="#D2DDE4" x="30.6081081" y="192.177778" width="104.067568" height="8.17777778" rx="3"></rect>
                <rect id="Rectangle" fill="#D2DDE4" x="30.6081081" y="173.777778" width="104.067568" height="8.17777778" rx="3"></rect>
                <rect id="Rectangle" stroke="#D2DDE4" stroke-width="2" fill="#FFFFFF" x="-1" y="-1" width="153" height="278" rx="15"></rect>
                <path d="M110.181381,196.266667 L43.1130862,196.266667 L43.1130862,196.266667 C41.5782359,195.533175 40.8108108,194.137148 40.8108108,192.078585 C40.8108108,190.020022 41.6685536,188.690124 43.3840392,188.088889 L110.181381,188.088889 C112.439612,188.088889 114.27027,189.919547 114.27027,192.177778 C114.27027,194.436009 112.439612,196.266667 110.181381,196.266667 Z" id="Path-7" fill="#6DBE4F"></path>
                <path d="M110.181381,216.711111 L43.1130862,216.711111 L43.1130862,216.711111 C41.5782359,215.97762 40.8108108,214.581593 40.8108108,212.52303 C40.8108108,210.464467 41.6685536,209.134568 43.3840392,208.533333 L110.181381,208.533333 C112.439612,208.533333 114.27027,210.363991 114.27027,212.622222 C114.27027,214.880453 112.439612,216.711111 110.181381,216.711111 Z" id="Path-7" fill="#6DBE4F"></path>
                <g id="Group" transform="translate(22.445946, 49.066667)">
                    <mask id="mask-2" fill="white">
                        <use xlink:href="#path-1"></use>
                    </mask>
                    <use id="Mask" fill="#E4ECF1" xlink:href="#path-1"></use>
                    <ellipse id="Oval" fill="#B3C1CD" mask="url(#mask-2)" cx="53.2021578" cy="95.2480287" rx="59.3073235" ry="26.2150538"></ellipse>
                    <ellipse id="Oval" fill="#B3C1CD" mask="url(#mask-2)" cx="53.2021578" cy="41.0702509" rx="20.9319965" ry="20.972043"></ellipse>
                </g>
                <rect id="Rectangle" fill="#F2F7FA" x="6.12162162" y="20.4444444" width="8.16216216" height="235.111111" rx="2.25"></rect>
            </g>
            <g id="Checkmark" transform="translate(116.146401, -0.444012)">
                <circle id="Oval" fill="#FFFFFF" cx="35" cy="35" r="30.8823529"></circle>
                <path d="M50.0325,26.6175 L34.0445,47.6175 C33.3865,48.482 32.368,48.993 31.283,49 L31.2585,49 C30.184,49 29.169,48.503 28.504,47.656 L19.992,36.7815 C18.802,35.2625 19.068,33.061 20.5905,31.871 C22.1095,30.6775 24.3145,30.9435 25.5045,32.4695 L31.22,39.7705 L44.464,22.379 C45.633,20.8425 47.8275,20.5415 49.371,21.714 C50.9075,22.8865 51.205,25.081 50.0325,26.6175 M0,35 C0,54.327 15.6695,70 35,70 C54.3305,70 70,54.327 70,35 C70,15.6695 54.3305,0 35,0 C15.6695,0 0,15.6695 0,35 Z" id="path-1" fill="#78BB61"></path>
            </g>
        </g>
    </g>
</svg>