<?xml version="1.0" encoding="utf-8"?>
<!-- Generator: Adobe Illustrator 19.2.1, SVG Export Plug-In . SVG Version: 6.00 Build 0)  -->
<svg version="1.1" id="Layer_1" xmlns="http://www.w3.org/2000/svg" xmlns:xlink="http://www.w3.org/1999/xlink" x="0px" y="0px"
	 viewBox="0 0 792 593.2" style="enable-background:new 0 0 792 593.2;" xml:space="preserve">
<style type="text/css">
	.st0{fill:#80DEEA;}
	.st1{fill:#FFFFFF;}
	.st2{fill:none;}
	.st3{enable-background:new    ;}
</style>
<rect x="-8.4" y="-6" class="st0" width="811.5" height="607.6"/>
<g>
	<polygon class="st1" points="316.5,304.6 314.5,312.5 360.1,324.1 362.1,316.1 343.9,311.5 382.4,300.7 380,293 328.2,307.5 	"/>
	<polygon class="st1" points="370.3,337.5 317.9,324 309.4,315.7 303.7,321.5 337.3,354.4 343.1,348.6 329.8,335.6 368.3,345.5 	"/>
	<polygon class="st1" points="234.5,342 240.4,347.8 253.4,334.5 243.5,373 251.5,375 264.9,322.6 273.2,314.2 267.3,308.4 	"/>
	<polygon class="st1" points="276.4,319.3 264.9,364.8 272.6,366.9 277.4,348.7 288.2,387.1 296,384.8 281.5,332.9 284.4,321.2 	"/>
	<polygon class="st1" points="218,344.3 255.6,305.6 267,302.3 264.9,294.5 219.6,307.3 221.7,315.2 239.7,310.1 212,338.5 	"/>
	<polygon class="st1" points="297.6,321.9 289.8,324.1 302.4,369.4 310.5,367.2 305.4,349 333.8,377 339.6,371 300.8,333.3 	"/>
	<polygon class="st1" points="286.6,271.8 294.5,269.6 281.7,224.3 273.8,226.5 278.9,244.5 250.4,216.7 244.7,222.7 283.4,260.3 	
		"/>
	<polygon class="st1" points="274.8,277.9 280.5,272.2 246.7,239.2 241.1,245.1 254.5,258.1 216,248.2 214,256.2 266.3,269.7 	"/>
	<polygon class="st1" points="256,286.2 267.6,289.1 269.7,281.1 224,269.6 222.1,277.5 240.3,282.2 202,293 204.2,300.7 	"/>
	<polygon class="st1" points="311,279.5 316.8,285.3 349.7,251.7 343.9,245.8 330.7,259.2 340.7,220.6 332.6,218.7 319.3,271 	"/>
	<polygon class="st1" points="299.7,272.5 307.8,274.4 311,261.8 319.4,228.9 311.4,226.8 306.8,245 296,206.6 288.2,208.9 
		302.8,260.8 	"/>
	<polygon class="st1" points="317.2,291.3 319.3,299.2 364.7,286.4 362.5,278.5 344.4,283.6 372.2,255.2 366.2,249.4 328.6,288.1 	
		"/>
</g>
<g>
	<rect x="435.2" y="237.9" class="st2" width="206.7" height="101.3"/>
	<g class="st3">
		<path class="st1" d="M438.5,260.2v-34.3h7.3v34.3H438.5z"/>
		<path class="st1" d="M467.6,260.2h-7.3V232H451v-6h25.9v6h-9.3V260.2z"/>
		<path class="st1" d="M503.2,260.2l-2.5-8.2h-12.5l-2.5,8.2h-7.8l12.1-34.4h8.9l12.1,34.4H503.2z M498.9,246
			c-2.3-7.4-3.6-11.6-3.9-12.5s-0.5-1.7-0.6-2.3c-0.5,2-2,6.9-4.4,14.8H498.9z"/>
		<path class="st1" d="M535.5,250.7c0,3.1-1.1,5.5-3.3,7.3s-5.3,2.7-9.3,2.7c-3.7,0-6.9-0.7-9.7-2.1v-6.8c2.3,1,4.3,1.8,5.9,2.2
			s3.1,0.6,4.4,0.6c1.6,0,2.8-0.3,3.7-0.9s1.3-1.5,1.3-2.7c0-0.7-0.2-1.3-0.6-1.8s-0.9-1-1.7-1.5s-2.2-1.3-4.4-2.3
			c-2.1-1-3.7-1.9-4.7-2.8s-1.9-2-2.5-3.2s-0.9-2.6-0.9-4.2c0-3,1-5.4,3.1-7.1s4.9-2.6,8.5-2.6c1.8,0,3.5,0.2,5.1,0.6s3.3,1,5.1,1.8
			l-2.3,5.6c-1.8-0.8-3.3-1.3-4.5-1.6s-2.4-0.4-3.5-0.4c-1.4,0-2.4,0.3-3.2,1s-1.1,1.5-1.1,2.5c0,0.6,0.1,1.2,0.4,1.7
			s0.8,0.9,1.4,1.4s2.2,1.2,4.6,2.4c3.2,1.5,5.4,3.1,6.6,4.6S535.5,248.5,535.5,250.7z"/>
		<path class="st1" d="M562.7,260.2l-2.5-8.2h-12.5l-2.5,8.2h-7.8l12.1-34.4h8.9l12.1,34.4H562.7z M558.5,246
			c-2.3-7.4-3.6-11.6-3.9-12.5s-0.5-1.7-0.6-2.3c-0.5,2-2,6.9-4.4,14.8H558.5z"/>
	</g>
	<g class="st3">
		<path class="st1" d="M447.3,314.4l-6.2-17.9H441c0.2,2.7,0.2,5.1,0.2,7.5v10.4H438V293h4.9l5.9,17h0.1l6.1-17h5v21.4h-3.4v-10.6
			c0-1.1,0-2.5,0.1-4.2s0.1-2.7,0.1-3.1h-0.1l-6.4,17.9L447.3,314.4L447.3,314.4z"/>
		<path class="st1" d="M479.7,306.3c0,2.6-0.7,4.7-2,6.2s-3.2,2.2-5.7,2.2c-1.5,0-2.9-0.3-4-1s-2.1-1.7-2.7-2.9s-0.9-2.8-0.9-4.5
			c0-2.6,0.7-4.7,2-6.2s3.2-2.2,5.7-2.2c2.3,0,4.2,0.8,5.6,2.3C479,301.7,479.7,303.7,479.7,306.3z M467.9,306.3
			c0,3.7,1.4,5.6,4.1,5.6s4.1-1.9,4.1-5.6s-1.4-5.6-4.1-5.6c-1.4,0-2.5,0.5-3.1,1.4S467.9,304.5,467.9,306.3z"/>
		<path class="st1" d="M489.7,311.9c0.8,0,1.7-0.1,2.5-0.4v2.6c-0.4,0.2-0.9,0.3-1.5,0.4s-1.2,0.2-1.9,0.2c-3.3,0-4.9-1.7-4.9-5.2
			v-8.7h-2.2v-1.5l2.4-1.3l1.2-3.4h2.1v3.6h4.6v2.6h-4.6v8.7c0,0.8,0.2,1.4,0.6,1.8C488.5,311.7,489,311.9,489.7,311.9z"/>
		<path class="st1" d="M495.2,293.9c0-0.6,0.2-1.1,0.5-1.4s0.8-0.5,1.4-0.5s1.1,0.2,1.4,0.5s0.5,0.8,0.5,1.4s-0.2,1-0.5,1.4
			c-0.3,0.3-0.8,0.5-1.4,0.5s-1.1-0.2-1.4-0.5C495.4,294.9,495.2,294.5,495.2,293.9z M498.9,314.4h-3.4v-16.2h3.4V314.4z"/>
		<path class="st1" d="M518.2,306.3c0,2.6-0.7,4.7-2,6.2s-3.2,2.2-5.7,2.2c-1.5,0-2.9-0.3-4-1s-2.1-1.7-2.7-2.9s-0.9-2.8-0.9-4.5
			c0-2.6,0.7-4.7,2-6.2s3.2-2.2,5.7-2.2c2.3,0,4.2,0.8,5.6,2.3C517.5,301.7,518.2,303.7,518.2,306.3z M506.4,306.3
			c0,3.7,1.4,5.6,4.1,5.6s4.1-1.9,4.1-5.6s-1.4-5.6-4.1-5.6c-1.4,0-2.5,0.5-3.1,1.4S506.4,304.5,506.4,306.3z"/>
		<path class="st1" d="M536.4,314.4h-3.5v-10c0-1.2-0.3-2.2-0.8-2.8s-1.3-0.9-2.4-0.9c-1.5,0-2.5,0.4-3.2,1.3s-1,2.3-1,4.3v8.1h-3.4
			v-16.2h2.7l0.5,2.1h0.2c0.5-0.8,1.2-1.4,2.1-1.8s1.9-0.6,3-0.6c3.9,0,5.8,2,5.8,5.9L536.4,314.4L536.4,314.4z"/>
	</g>
	<g class="st3">
		<path class="st1" d="M455.4,352.5c0,3.5-1,6.2-2.9,8.1s-4.8,2.8-8.5,2.8h-6V342h6.6c3.4,0,6.1,0.9,8,2.8S455.4,349.2,455.4,352.5z
			 M451.7,352.6c0-5.1-2.4-7.7-7.2-7.7h-3v15.5h2.5C449.2,360.4,451.7,357.8,451.7,352.6z"/>
		<path class="st1" d="M466.7,363.7c-2.5,0-4.5-0.7-5.9-2.2s-2.1-3.5-2.1-6.1s0.7-4.7,2-6.2s3.1-2.3,5.4-2.3c2.1,0,3.8,0.6,5.1,1.9
			s1.9,3.1,1.9,5.4v1.9h-10.8c0,1.6,0.5,2.8,1.3,3.6c0.8,0.8,1.9,1.3,3.4,1.3c1,0,1.8-0.1,2.7-0.3c0.8-0.2,1.7-0.5,2.7-0.9v2.8
			c-0.8,0.4-1.7,0.7-2.5,0.8S467.8,363.7,466.7,363.7z M466.1,349.5c-1.1,0-2,0.3-2.6,1s-1.1,1.7-1.2,3h7.4c0-1.3-0.3-2.4-1-3
			C468.1,349.9,467.2,349.5,466.1,349.5z"/>
		<path class="st1" d="M487.8,358.8c0,1.6-0.6,2.8-1.7,3.6c-1.2,0.8-2.8,1.3-5,1.3s-3.9-0.3-5.2-1v-3c1.9,0.9,3.7,1.3,5.3,1.3
			c2.1,0,3.2-0.6,3.2-1.9c0-0.4-0.1-0.8-0.4-1s-0.6-0.6-1.2-0.8s-1.3-0.6-2.2-1c-1.9-0.7-3.1-1.4-3.8-2.2s-1-1.7-1-2.8
			c0-1.4,0.6-2.5,1.7-3.2s2.6-1.2,4.6-1.2c1.9,0,3.7,0.4,5.4,1.2l-1.1,2.6c-1.7-0.7-3.2-1.1-4.4-1.1c-1.8,0-2.7,0.5-2.7,1.6
			c0,0.5,0.2,0.9,0.7,1.3s1.5,0.8,3.1,1.5c1.3,0.5,2.3,1,2.9,1.4s1.1,0.9,1.3,1.5C487.7,357.3,487.8,358,487.8,358.8z"/>
		<path class="st1" d="M491.3,342.9c0-0.6,0.2-1.1,0.5-1.4s0.8-0.5,1.4-0.5s1.1,0.2,1.4,0.5s0.5,0.8,0.5,1.4s-0.2,1-0.5,1.4
			c-0.3,0.3-0.8,0.5-1.4,0.5s-1.1-0.2-1.4-0.5C491.5,343.9,491.3,343.5,491.3,342.9z M495,363.4h-3.4v-16.2h3.4V363.4z"/>
		<path class="st1" d="M513.6,347.2v1.9l-2.8,0.5c0.3,0.3,0.5,0.8,0.6,1.3s0.2,1,0.2,1.6c0,1.7-0.6,3-1.7,3.9s-2.7,1.4-4.8,1.4
			c-0.5,0-1,0-1.4-0.1c-0.7,0.5-1.1,1-1.1,1.6c0,0.4,0.2,0.6,0.5,0.8s1,0.3,1.9,0.3h2.8c1.8,0,3.1,0.4,4.1,1.1
			c1,0.7,1.4,1.9,1.4,3.3c0,1.8-0.8,3.3-2.3,4.2s-3.7,1.5-6.6,1.5c-2.2,0-3.9-0.4-5.1-1.2s-1.7-1.9-1.7-3.3c0-1,0.3-1.8,0.9-2.5
			s1.5-1.2,2.6-1.4c-0.5-0.2-0.8-0.5-1.1-0.9c-0.3-0.4-0.4-0.9-0.4-1.4c0-0.6,0.2-1.1,0.5-1.5s0.8-0.8,1.5-1.2
			c-0.8-0.4-1.5-0.9-2-1.8c-0.5-0.8-0.8-1.8-0.8-2.9c0-1.8,0.6-3.1,1.7-4.1s2.7-1.5,4.7-1.5c0.5,0,0.9,0,1.4,0.1s0.9,0.1,1.1,0.2
			h5.9V347.2z M500.9,365.9c0,0.7,0.3,1.3,1,1.7s1.6,0.6,2.8,0.6c1.9,0,3.3-0.3,4.2-0.8s1.4-1.2,1.4-2.1c0-0.7-0.3-1.2-0.8-1.5
			s-1.4-0.4-2.8-0.4h-2.6c-1,0-1.8,0.2-2.4,0.7S500.9,365.1,500.9,365.9z M502.3,352.4c0,1,0.3,1.8,0.8,2.3s1.3,0.8,2.2,0.8
			c2,0,3-1.1,3-3.2c0-1.1-0.2-1.9-0.7-2.4c-0.5-0.6-1.2-0.9-2.2-0.9s-1.8,0.3-2.3,0.8S502.3,351.4,502.3,352.4z"/>
		<path class="st1" d="M530.9,363.4h-3.5v-10c0-1.2-0.3-2.2-0.8-2.8s-1.3-0.9-2.4-0.9c-1.5,0-2.5,0.4-3.2,1.3s-1,2.3-1,4.3v8.1h-3.4
			v-16.2h2.7l0.5,2.1h0.2c0.5-0.8,1.2-1.4,2.1-1.8s1.9-0.6,3-0.6c3.9,0,5.8,2,5.8,5.9L530.9,363.4L530.9,363.4z"/>
	</g>
</g>
</svg>
