<?xml version="1.0" encoding="utf-8"?>
<!-- Generator: Adobe Illustrator 19.2.1, SVG Export Plug-In . SVG Version: 6.00 Build 0)  -->
<svg version="1.1" id="Layer_1" xmlns="http://www.w3.org/2000/svg" xmlns:xlink="http://www.w3.org/1999/xlink" x="0px" y="0px"
	 viewBox="0 0 792 593.2" style="enable-background:new 0 0 792 593.2;" xml:space="preserve">
<style type="text/css">
	.st0{fill:#29B6F6;}
	.st1{fill:#FFFFFF;}
	.st2{fill:none;}
	.st3{enable-background:new    ;}
	.st4{fill:#A5D6A7;}
	.st5{fill:#81D4FA;}
</style>
<rect x="-27.5" y="-22.2" class="st0" width="846.3" height="641.5"/>
<path class="st1" d="M287.9,363.9L287.9,363.9L287.9,363.9L287.9,363.9L287.9,363.9c-0.2,0-0.4,0-0.6-0.1l-77.6-19
	c-0.1,0-0.2-0.1-0.3-0.1l0,0c-0.2-0.1-0.4-0.2-0.6-0.3c-0.2-0.1-0.4-0.3-0.5-0.5l0,0c-0.2-0.2-0.3-0.5-0.4-0.8
	c-0.1-0.2-0.1-0.4-0.1-0.6c0-0.1,0-0.2,0-0.3V262c0-0.2,0-0.4,0.1-0.6l0,0l0,0l0,0c0-0.1,0.1-0.2,0.1-0.3l0,0l0,0l0,0l0,0l0,0l0,0
	l0,0l0,0c0.2-0.4,0.4-0.7,0.8-1l0,0l0,0l0,0l0,0l0,0l0,0l0,0l0,0l43.7-33.8c0,0,0,0,0.1-0.1c0.5-0.4,1.1-0.5,1.7-0.5l0,0l0,0
	c0.1,0,0.1,0,0.2,0l0,0c0.1,0,0.2,0,0.3,0.1l77.6,19c0.1,0,0.2,0.1,0.3,0.1c0.2,0.1,0.4,0.2,0.5,0.3l0,0l0,0
	c0.2,0.2,0.4,0.3,0.6,0.6l0,0l0,0l0,0c0.2,0.2,0.3,0.4,0.4,0.7l0,0c0.1,0.2,0.1,0.4,0.1,0.6c0,0.1,0,0.2,0,0.3v80.2
	c0,0.2,0,0.5-0.1,0.7l0,0l0,0l0,0l0,0l0,0c0,0.1,0,0.2-0.1,0.2l0,0l0,0l0,0l0,0l0,0l0,0c-0.2,0.4-0.4,0.8-0.8,1.1l0,0l0,0l0,0l0,0
	l0,0l0,0l0,0l0,0l-43.7,33.8l0,0l0,0c-0.3,0.3-0.7,0.4-1.1,0.5l0,0l0,0l0,0l0,0l0,0l0,0l0,0C288.2,363.9,288,363.9,287.9,363.9z
	 M216.1,341.1l69.2,17v-39.2l-30.7-7.5L216.1,341.1z M290.5,320.1v36l35.4-27.3L290.5,320.1z M212.9,265.4V337l38.6-29.8v-32.4
	L212.9,265.4z M290.5,314.8l38.6,9.5v-71.7l-38.6,29.8V314.8z M256.6,306.5l28.7,7v-30.4l-28.7-7V306.5z M256.6,270.8l30.7,7.5
	l38.5-29.8l-69.2-17L256.6,270.8L256.6,270.8z M216.1,260.9l35.4,8.7v-36L216.1,260.9z"/>
<rect x="372.4" y="267.4" class="st2" width="198.1" height="58.8"/>
<g class="st3">
	<path class="st1" d="M386.3,276.1l-6.5-21.3h-0.2c0.2,4.3,0.4,7.2,0.4,8.7v12.6h-5.1V249h7.8l6.4,20.7h0.1L396,249h7.8v27.1h-5.4
		v-12.8c0-0.6,0-1.3,0-2.1c0-0.8,0.1-2.9,0.3-6.3h-0.2l-7,21.2H386.3z"/>
	<path class="st1" d="M427.3,276.1l-2-6.5h-9.9l-2,6.5h-6.2l9.6-27.2h7l9.6,27.2H427.3z M424,264.8c-1.8-5.9-2.8-9.2-3.1-9.9
		c-0.2-0.8-0.4-1.4-0.5-1.8c-0.4,1.6-1.6,5.5-3.5,11.7H424z"/>
	<path class="st1" d="M455.6,257.4c0,2.9-0.9,5.2-2.7,6.7c-1.8,1.5-4.4,2.3-7.8,2.3h-2.5v9.6h-5.8V249h8.7c3.3,0,5.8,0.7,7.5,2.1
		C454.8,252.5,455.6,254.6,455.6,257.4z M442.7,261.7h1.9c1.8,0,3.1-0.3,4-1c0.9-0.7,1.3-1.7,1.3-3.1c0-1.3-0.4-2.3-1.1-3
		c-0.7-0.6-1.9-1-3.5-1h-2.6V261.7z"/>
	<path class="st1" d="M460.8,276.1V249h5.8v22.4h11v4.8H460.8z"/>
	<path class="st1" d="M497.9,276.1h-15.6V249h15.6v4.7H488v6h9.2v4.7H488v7h9.9V276.1z"/>
	<path class="st1" d="M528.9,249h5.8l-9.2,27.1h-6.3L510,249h5.8l5.1,16.1c0.3,1,0.6,2.1,0.9,3.3c0.3,1.3,0.5,2.2,0.6,2.6
		c0.1-1.1,0.6-3.1,1.4-6L528.9,249z"/>
	<path class="st1" d="M538.1,276.1V249h5.8v27.1H538.1z"/>
	<path class="st1" d="M550.7,276.1V249h5.8v22.4h11v4.8H550.7z"/>
	<path class="st1" d="M572.1,276.1V249h5.8v22.4h11v4.8H572.1z"/>
	<path class="st1" d="M610.2,276.1l-2-6.5h-9.9l-2,6.5h-6.2l9.6-27.2h7l9.6,27.2H610.2z M606.9,264.8c-1.8-5.9-2.8-9.2-3.1-9.9
		c-0.2-0.8-0.4-1.4-0.5-1.8c-0.4,1.6-1.6,5.5-3.5,11.7H606.9z"/>
	<path class="st1" d="M630.1,260.9h10.8v14.1c-1.7,0.6-3.4,1-4.9,1.2c-1.5,0.2-3.1,0.3-4.7,0.3c-4.1,0-7.2-1.2-9.4-3.6
		c-2.2-2.4-3.2-5.9-3.2-10.4c0-4.4,1.3-7.8,3.8-10.2c2.5-2.4,6-3.7,10.4-3.7c2.8,0,5.5,0.6,8.1,1.7l-1.9,4.6c-2-1-4-1.5-6.2-1.5
		c-2.5,0-4.5,0.8-6,2.5s-2.2,3.9-2.2,6.7c0,2.9,0.6,5.2,1.8,6.7c1.2,1.6,3,2.3,5.3,2.3c1.2,0,2.4-0.1,3.7-0.4v-5.7h-5.1V260.9z"/>
	<path class="st1" d="M663,276.1h-15.6V249H663v4.7h-9.9v6h9.2v4.7h-9.2v7h9.9V276.1z"/>
</g>
<g class="st3">
	<path class="st1" d="M379.3,337.8h-3.4V315h3.4V337.8z"/>
	<path class="st1" d="M395.9,337.8l-0.7-2.3h-0.1c-0.8,1-1.6,1.7-2.4,2c-0.8,0.4-1.8,0.5-3,0.5c-1.6,0-2.8-0.4-3.7-1.3
		s-1.3-2.1-1.3-3.6c0-1.7,0.6-2.9,1.9-3.8s3.1-1.3,5.7-1.4l2.8-0.1V327c0-1-0.2-1.8-0.7-2.3c-0.5-0.5-1.2-0.8-2.2-0.8
		c-0.8,0-1.6,0.1-2.4,0.4s-1.5,0.5-2.2,0.9l-1.1-2.5c0.9-0.5,1.8-0.8,2.9-1s2-0.4,3-0.4c2.1,0,3.6,0.4,4.7,1.3
		c1.1,0.9,1.6,2.3,1.6,4.2v10.9H395.9z M390.8,335.4c1.2,0,2.3-0.3,3-1s1.1-1.7,1.1-2.9V330l-2.1,0.1c-1.6,0.1-2.8,0.3-3.5,0.8
		c-0.7,0.5-1.1,1.2-1.1,2.2c0,0.7,0.2,1.3,0.6,1.7C389.3,335.2,389.9,335.4,390.8,335.4z"/>
	<path class="st1" d="M418.9,337.8h-3.5v-10c0-1.2-0.3-2.2-0.8-2.8c-0.5-0.6-1.3-0.9-2.4-0.9c-1.5,0-2.5,0.4-3.2,1.3s-1,2.3-1,4.3
		v8.1h-3.4v-16.2h2.7l0.5,2.1h0.2c0.5-0.8,1.2-1.4,2.1-1.8s1.9-0.6,3-0.6c3.9,0,5.8,2,5.8,5.9V337.8z"/>
	<path class="st1" d="M430.7,338c-2,0-3.6-0.7-4.7-2.2s-1.7-3.5-1.7-6.2c0-2.7,0.6-4.7,1.7-6.2c1.1-1.5,2.7-2.2,4.8-2.2
		c2.1,0,3.8,0.8,4.9,2.4h0.2c-0.2-1.2-0.2-2.1-0.2-2.8V315h3.5v22.8h-2.7l-0.6-2.1h-0.2C434.4,337.2,432.8,338,430.7,338z
		 M431.6,335.3c1.4,0,2.4-0.4,3.1-1.2s1-2.1,1-3.9v-0.5c0-2-0.3-3.5-1-4.4s-1.7-1.3-3.1-1.3c-1.2,0-2.1,0.5-2.8,1.5
		c-0.7,1-1,2.4-1,4.2c0,1.8,0.3,3.2,1,4.1C429.4,334.8,430.3,335.3,431.6,335.3z"/>
	<path class="st1" d="M456.3,333.1c0,1.6-0.6,2.8-1.7,3.6c-1.2,0.8-2.8,1.3-5,1.3c-2.2,0-3.9-0.3-5.2-1v-3c1.9,0.9,3.7,1.3,5.3,1.3
		c2.1,0,3.2-0.6,3.2-1.9c0-0.4-0.1-0.8-0.4-1s-0.6-0.6-1.2-0.8s-1.3-0.6-2.2-1c-1.9-0.7-3.1-1.4-3.8-2.2c-0.7-0.7-1-1.7-1-2.8
		c0-1.4,0.6-2.5,1.7-3.2c1.1-0.8,2.6-1.2,4.6-1.2c1.9,0,3.7,0.4,5.4,1.2l-1.1,2.6c-1.7-0.7-3.2-1.1-4.4-1.1c-1.8,0-2.7,0.5-2.7,1.6
		c0,0.5,0.2,0.9,0.7,1.3c0.5,0.4,1.5,0.8,3.1,1.5c1.3,0.5,2.3,1,2.9,1.4s1.1,0.9,1.3,1.5C456.1,331.7,456.3,332.4,456.3,333.1z"/>
	<path class="st1" d="M468,338c-2.5,0-4.3-0.7-5.6-2.1c-1.3-1.4-1.9-3.5-1.9-6.2c0-2.7,0.7-4.8,2-6.3c1.3-1.5,3.3-2.2,5.8-2.2
		c1.7,0,3.2,0.3,4.6,1l-1,2.8c-1.5-0.6-2.7-0.8-3.6-0.8c-2.8,0-4.2,1.9-4.2,5.6c0,1.8,0.3,3.2,1,4.1c0.7,0.9,1.7,1.4,3.1,1.4
		c1.5,0,3-0.4,4.4-1.1v3c-0.6,0.4-1.3,0.6-2,0.8C469.9,338,469,338,468,338z"/>
	<path class="st1" d="M488,337.8l-0.7-2.3h-0.1c-0.8,1-1.6,1.7-2.4,2c-0.8,0.4-1.8,0.5-3,0.5c-1.6,0-2.8-0.4-3.7-1.3
		c-0.9-0.9-1.3-2.1-1.3-3.6c0-1.7,0.6-2.9,1.9-3.8s3.1-1.3,5.7-1.4l2.8-0.1V327c0-1-0.2-1.8-0.7-2.3c-0.5-0.5-1.2-0.8-2.2-0.8
		c-0.8,0-1.6,0.1-2.4,0.4s-1.5,0.5-2.2,0.9l-1.1-2.5c0.9-0.5,1.8-0.8,2.9-1s2-0.4,3-0.4c2.1,0,3.6,0.4,4.7,1.3
		c1,0.9,1.6,2.3,1.6,4.2v10.9H488z M482.9,335.4c1.2,0,2.3-0.3,3-1c0.8-0.7,1.1-1.7,1.1-2.9V330l-2.1,0.1c-1.6,0.1-2.8,0.3-3.5,0.8
		c-0.7,0.5-1.1,1.2-1.1,2.2c0,0.7,0.2,1.3,0.6,1.7C481.4,335.2,482,335.4,482.9,335.4z"/>
	<path class="st1" d="M505,338c-2.1,0-3.6-0.7-4.8-2.2H500c0.1,1.4,0.2,2.2,0.2,2.5v6.6h-3.4v-23.4h2.8c0.1,0.3,0.2,1,0.5,2.2h0.2
		c1.1-1.6,2.7-2.5,4.8-2.5c2,0,3.6,0.7,4.7,2.2c1.1,1.5,1.7,3.5,1.7,6.2s-0.6,4.7-1.7,6.2C508.6,337.3,507,338,505,338z
		 M504.2,324.1c-1.4,0-2.4,0.4-3,1.2c-0.6,0.8-0.9,2.1-0.9,3.8v0.5c0,2,0.3,3.4,0.9,4.3c0.6,0.9,1.6,1.3,3.1,1.3
		c1.2,0,2.1-0.5,2.8-1.5s1-2.4,1-4.2c0-1.8-0.3-3.2-1-4.1C506.3,324.5,505.4,324.1,504.2,324.1z"/>
	<path class="st1" d="M524,338c-2.5,0-4.5-0.7-5.9-2.2c-1.4-1.5-2.1-3.5-2.1-6.1c0-2.6,0.7-4.7,2-6.2s3.1-2.3,5.4-2.3
		c2.1,0,3.8,0.6,5.1,1.9s1.9,3.1,1.9,5.4v1.9h-10.8c0,1.6,0.5,2.8,1.3,3.6c0.8,0.8,1.9,1.3,3.4,1.3c1,0,1.8-0.1,2.7-0.3
		c0.8-0.2,1.7-0.5,2.7-0.9v2.8c-0.8,0.4-1.7,0.7-2.5,0.8S525.1,338,524,338z M523.4,323.9c-1.1,0-2,0.3-2.6,1
		c-0.7,0.7-1.1,1.7-1.2,3h7.4c0-1.3-0.3-2.4-1-3C525.4,324.2,524.5,323.9,523.4,323.9z"/>
	<path class="st1" d="M550.5,338c-2,0-3.6-0.7-4.7-2.2s-1.7-3.5-1.7-6.2c0-2.7,0.6-4.7,1.7-6.2c1.1-1.5,2.7-2.2,4.8-2.2
		c2.1,0,3.8,0.8,4.9,2.4h0.2c-0.2-1.2-0.2-2.1-0.2-2.8V315h3.5v22.8h-2.7l-0.6-2.1h-0.2C554.2,337.2,552.6,338,550.5,338z
		 M551.4,335.3c1.4,0,2.4-0.4,3.1-1.2s1-2.1,1-3.9v-0.5c0-2-0.3-3.5-1-4.4s-1.7-1.3-3.1-1.3c-1.2,0-2.1,0.5-2.8,1.5
		c-0.7,1-1,2.4-1,4.2c0,1.8,0.3,3.2,1,4.1C549.2,334.8,550.2,335.3,551.4,335.3z"/>
	<path class="st1" d="M572.3,338c-2.5,0-4.5-0.7-5.9-2.2c-1.4-1.5-2.1-3.5-2.1-6.1c0-2.6,0.7-4.7,2-6.2s3.1-2.3,5.4-2.3
		c2.1,0,3.8,0.6,5.1,1.9s1.9,3.1,1.9,5.4v1.9h-10.8c0,1.6,0.5,2.8,1.3,3.6c0.8,0.8,1.9,1.3,3.4,1.3c1,0,1.8-0.1,2.7-0.3
		c0.8-0.2,1.7-0.5,2.7-0.9v2.8c-0.8,0.4-1.7,0.7-2.5,0.8S573.4,338,572.3,338z M571.7,323.9c-1.1,0-2,0.3-2.6,1
		c-0.7,0.7-1.1,1.7-1.2,3h7.4c0-1.3-0.3-2.4-1-3C573.6,324.2,572.8,323.9,571.7,323.9z"/>
	<path class="st1" d="M594.9,333.1c0,1.6-0.6,2.8-1.7,3.6c-1.2,0.8-2.8,1.3-5,1.3c-2.2,0-3.9-0.3-5.2-1v-3c1.9,0.9,3.7,1.3,5.3,1.3
		c2.1,0,3.2-0.6,3.2-1.9c0-0.4-0.1-0.8-0.4-1s-0.6-0.6-1.2-0.8s-1.3-0.6-2.2-1c-1.9-0.7-3.1-1.4-3.8-2.2c-0.7-0.7-1-1.7-1-2.8
		c0-1.4,0.6-2.5,1.7-3.2c1.1-0.8,2.6-1.2,4.6-1.2c1.9,0,3.7,0.4,5.4,1.2l-1.1,2.6c-1.7-0.7-3.2-1.1-4.4-1.1c-1.8,0-2.7,0.5-2.7,1.6
		c0,0.5,0.2,0.9,0.7,1.3c0.5,0.4,1.5,0.8,3.1,1.5c1.3,0.5,2.3,1,2.9,1.4s1.1,0.9,1.3,1.5C594.8,331.7,594.9,332.4,594.9,333.1z"/>
	<path class="st1" d="M599.9,317.3c0-0.6,0.2-1.1,0.5-1.4c0.3-0.3,0.8-0.5,1.4-0.5c0.6,0,1.1,0.2,1.4,0.5c0.3,0.3,0.5,0.8,0.5,1.4
		c0,0.6-0.2,1-0.5,1.4c-0.3,0.3-0.8,0.5-1.4,0.5c-0.6,0-1.1-0.2-1.4-0.5C600.1,318.3,599.9,317.8,599.9,317.3z M603.6,337.8h-3.4
		v-16.2h3.4V337.8z"/>
	<path class="st1" d="M623.7,321.5v1.9l-2.8,0.5c0.3,0.3,0.5,0.8,0.6,1.3s0.2,1,0.2,1.6c0,1.7-0.6,3-1.7,3.9s-2.7,1.4-4.8,1.4
		c-0.5,0-1,0-1.4-0.1c-0.7,0.5-1.1,1-1.1,1.6c0,0.4,0.2,0.6,0.5,0.8c0.3,0.2,1,0.3,1.9,0.3h2.8c1.8,0,3.1,0.4,4.1,1.1
		s1.4,1.9,1.4,3.3c0,1.8-0.8,3.3-2.3,4.2s-3.7,1.5-6.6,1.5c-2.2,0-3.9-0.4-5.1-1.2s-1.7-1.9-1.7-3.3c0-1,0.3-1.8,0.9-2.5
		c0.6-0.7,1.5-1.2,2.6-1.4c-0.5-0.2-0.8-0.5-1.1-0.9c-0.3-0.4-0.4-0.9-0.4-1.4c0-0.6,0.2-1.1,0.5-1.5s0.8-0.8,1.5-1.2
		c-0.8-0.4-1.5-0.9-2-1.8c-0.5-0.8-0.8-1.8-0.8-2.9c0-1.8,0.6-3.1,1.7-4.1c1.1-1,2.7-1.5,4.7-1.5c0.5,0,0.9,0,1.4,0.1
		c0.5,0.1,0.9,0.1,1.1,0.2H623.7z M610.9,340.3c0,0.7,0.3,1.3,1,1.7c0.7,0.4,1.6,0.6,2.8,0.6c1.9,0,3.3-0.3,4.2-0.8s1.4-1.2,1.4-2.1
		c0-0.7-0.3-1.2-0.8-1.5c-0.5-0.3-1.4-0.4-2.8-0.4h-2.6c-1,0-1.8,0.2-2.4,0.7C611.2,338.9,610.9,339.5,610.9,340.3z M612.4,326.8
		c0,1,0.3,1.8,0.8,2.3c0.5,0.5,1.3,0.8,2.2,0.8c2,0,3-1.1,3-3.2c0-1.1-0.2-1.9-0.7-2.4c-0.5-0.6-1.2-0.9-2.2-0.9
		c-1,0-1.8,0.3-2.3,0.8C612.7,324.9,612.4,325.7,612.4,326.8z"/>
	<path class="st1" d="M642.4,337.8H639v-10c0-1.2-0.3-2.2-0.8-2.8c-0.5-0.6-1.3-0.9-2.4-0.9c-1.5,0-2.5,0.4-3.2,1.3s-1,2.3-1,4.3
		v8.1h-3.4v-16.2h2.7l0.5,2.1h0.2c0.5-0.8,1.2-1.4,2.1-1.8s1.9-0.6,3-0.6c3.9,0,5.8,2,5.8,5.9V337.8z"/>
</g>
</svg>
