<?xml version="1.0" encoding="utf-8"?>
<!-- Generator: Adobe Illustrator 19.2.1, SVG Export Plug-In . SVG Version: 6.00 Build 0)  -->
<svg version="1.1" id="Layer_1" xmlns="http://www.w3.org/2000/svg" xmlns:xlink="http://www.w3.org/1999/xlink" x="0px" y="0px"
	 viewBox="0 0 792 593.2" style="enable-background:new 0 0 792 593.2;" xml:space="preserve">
<style type="text/css">
	.st0{fill:#795548;}
	.st1{opacity:0.9;}
	.st2{fill:#FFFFFF;fill-opacity:0.96;stroke:#795548;stroke-width:10.24;stroke-miterlimit:10.43;}
	.st3{fill:#FFFFFF;}
	.st4{fill:#BCAAA4;}
	.st5{fill:#8D6E63;}
	.st6{fill:#1B5E20;}
	.st7{fill:none;stroke:#FFFFFF;stroke-width:3.000000e-02;stroke-miterlimit:10.43;}
	.st8{fill:none;stroke:#FFFFFF;stroke-width:0.55;stroke-miterlimit:10.43;}
	.st9{fill:#2D4B1E;}
	.st10{enable-background:new    ;}
</style>
<rect x="-7" y="-25" class="st0" width="800" height="645.5"/>
<g id="layer1" class="st1">
	<path id="path6716" class="st2" d="M467.6,282.6l0.1-0.2l0.1-0.1l0.1-0.2V282l0.1-0.2l0.1-0.2l0.1-0.1l0.1-0.2v-0.2l0.1-0.2
		l0.1-0.2l0.1-0.1v-0.2l0.1-0.1v-0.1l0.1-0.1l0.1-0.1v-0.1h0.1c1-1.3,1.9-2.9,3.1-3.6s1.4-2.2,1.9-4.5c0.2-4,0.7-4.3,0.9-4.7
		c0.3-1.2,0.8-2.4,1.4-3.5c0.7-1.2,1.5-3.7,1.2-4.4c-0.7-1.4-1.3-2.9-1.7-4.4c-0.8-5-0.2-6.7,0.9-8.3c1.5-2.3,2.5-3.7,4-4.5
		c0.7-0.3,0.6-1.7,0.5-2.7c-0.4-2.5,0.3-2.2,0.7-3.5c0.4-1.1,0.6-2.3,0.8-3.4c-0.1-0.7-0.2-1.5-0.3-2.2c-0.2-1-0.3-2-0.1-3
		c0.5-0.7,0.8-1.6,0.8-2.5c0.2-0.5,0.3-0.9,0.6-1.4c0.3-0.9,0.5-1.8,0.5-2.7c0-0.3,0.3-2.2,0.6-3.6c0.4-1.6,0.4-3.3-0.1-4.9
		c-0.2-1.1-0.9-1.7-0.8-2.1s-0.1-2.1-0.2-3c-0.1-0.6,2.2-3.8,2.7-4.4c0-1,0-2-0.2-3c0-0.4-0.6-2.8-0.6-3.4s0.1-1.1,0.1-1.7
		s-0.1-1.6-0.2-2.9c-0.1-1.7,0-3.4,0.1-5.2c0-0.5-0.8-0.5-2.4-1.3s-4.8-4-5.3-4.2c-1.5-0.5-3.1-0.7-4.6-0.7
		c-1.9,0.2-3.8,0.5-5.7,0.9c-1.3,0-2.5-0.2-3.7-0.6c-0.9-0.3-1.8-0.5-2.8-0.5c-2,0.2-4,0.2-5.9,0c-1.2-0.2-2.3-0.6-3.4-1.1
		c-0.6-0.3-1.1-0.6-1.6-1c-0.6-0.6-0.7-0.9-1.2-1s-4.7-0.4-5.5-1.2c-1.3-1.4-2.2-3.2-2.5-5.1c-0.6-2.9,0.4-4.9,1.5-5.4
		c1.7-0.8,4-2.2,5.2-2.4c0.6-0.1-0.7-2.2-1.3-4.3c-0.3-0.8-1.5-0.6-4.1-3.6c-1.4-1.5-2.6-3.2-3.8-4.9c-0.6-0.9,0.1-1.4-0.5-1.5
		c-2.3,0-4.7-0.2-7-0.6c-2.5-0.5-5-1.2-7.5-2.1c-1.1-0.3-3.8-1.3-4.6-1.6s-2.5-1-4-1.5s-2.1-1.7-2.9-1.7s-3.6,2-7,2.4
		s-4.5-0.3-6.3-0.6s-3.6-0.6-5.9-0.8s-8.7,1-9.8,1.2s-2.7,0.9-4.1,0.9c-0.9,0-5.9,1.4-6.7,1.6s-2.1-0.3-2.8-0.1
		c-1,0.3-2.5,0.6-3,0.7s-7,2.3-8.1,2.5c-1.6,0.4-3.1,0.9-4.6,1.4c-0.9,0.5-1.7,1-2.5,1.7c-1.5,1.2-3.1,2-4.9,2.5
		c-1,0.4-2.1,0.7-3.2,0.7c-2,0.1-2.5,0.5-2.5,0.8c0,1.4-0.5,4,0,4.3c1.1,0.6,3.7,4.9,3.8,7.6c0.1,2,0,3.9-0.3,5.9
		c0,0.6-0.2,1.2-0.6,1.7c-0.3,0.4-2.7,1.2-4.1,1.4s-2.2,0.1-7.3-1.2c-4-1-4.3-1.4-4.8-2c-0.6-0.6-1.3-1.1-2.1-1.5
		c-0.8-0.3-1.5-0.7-2.2-1.2c-0.7-0.6-3.8,0.9-8,1.2c-0.8,0.1-2.2,2.6-4.9,4c-1.3,0.5-2.5,1.2-3.7,1.9c-1.9,1.3-4.1,1.5-3.9,2.1
		c0.5,1.1-0.4,1.6-0.1,4.2c0.4,4.4-0.6,6.7-0.6,8.8c-0.1,1.1,1.2,2.4,1.7,2.8c0.8,0.9,1.4,1.9,1.8,3.1c0.2,1.1-0.2,4.8-0.7,7.8
		c-0.5,2.4-0.8,4.9-0.8,7.3c0.3,1.1,0.8,2.1,1.4,3.1c0.9,2.1,1.5,4.3,1.7,6.5c0,1.4-0.2,2.8-0.4,4.1c0.2,0.9,0.6,1.7,1.1,2.5
		c0.9,1.5,1.6,3,2.4,4.6c0.3,0.7,0.6,1.5,0.7,2.3c0,0-0.2,1.5-0.2,2.4s-0.4,4-0.7,8s-0.3,7.1,0.1,7.5c0.6,0.5,1.1,1.1,1.6,1.7
		c0.3,0.5,2.7,4.8,3,5.4c0.5,1.1,0.8,2.3,1.1,3.5c0.2,1.2,0.6,3.6,0.7,4.3c0.2,0.8,1.2,6,1.4,6.8c0.2,1.1,0.6,4,0.8,5.2
		c0.1,1.3,0.2,3.5,0.3,4s0.5,1.2,0.8,2.1c0.5,1.5,1,3.1,1.4,4.6c0.2,0.7-0.1,1.6,0,2.1c0.3,0.6,0.7,1.1,1.1,1.6
		c0.2,0.5,2,4.1,2.8,5.3c0.7,1.1,3.3,6,4,7.6c0.1,0.1,0.2,0.3,0.2,0.5c-0.1,0.5,0.1,1,0.4,1.3c0.3,0.2,0.9,1.4,1.4,1.5
		c0.6,0.1,1.1,0.4,1.5,0.8c0.3,0.5,2.5,2.6,3.4,3.5s1.4,1.5,1.3,2.2c-0.2,0.7-0.1,1.4,0.3,2c1.3,1,2.4,2.2,3.4,3.5
		c1.1,1.6,2.1,3.3,2.9,5.1c0.5,1.2,0.9,2.5,1.1,3.8c0,0.5,0.3,1.1,0.7,1.4c0.6,0.7,1.3,1.3,2.1,1.7c0.9,0.7,1.8,1.5,2.5,2.4
		c1.3,1.2,2.2,2.8,2.5,4.5c0.2,0.8,0.2,1.5,0.5,1.5c0.4,0,0.8,0.2,1.1,0.6c0.1,0.4,0.4,0.7,0.7,1c0.9,0.5,1.4,1.4,1.6,2.4
		c0.1,0.5,0.3,2.2,0.5,2.9c0.1,0.5,2.7,3.3,3.4,4.3s1.4,1.1,3.3,2.1s2,1.7,2.1,2.2s0.1,3.2,0.2,3.5c0.5,0.6,0.7,0.3,1.5,1.2
		s1.7,2.2,2.1,2.8s4.3,3,6.3,4.9c0.8,0.9,1.7,1.7,2.6,2.4c0.6,0.4,1.5,0.8,2.1,1.1c1.4,0.6,2.7,1.3,3.9,2.2c0.5,0.3,1.7,0.9,2.5,1.4
		c0.9,0.6,3.4,2,4.4,2c2,0,3,0.8,4.1,0.5c4.7-0.9,5.8-1.6,6.8-2.6s2.6-3.2,3.1-3.6c1.1-1.2,2.3-2.3,3.5-3.3c3.7-3.6,3.3-2.9,5.6-4.4
		c1.2-0.8,2.4-1.1,3.1-2.2c1.1-1.8,2.9-4.4,3.1-5.5c0.2-0.7,0.6-0.8,0.9-1.6s0.1-1.1,0.9-1.5c0.6-0.3,2.1-2,2.9-2.4
		c0.5-0.3,0.1-1.8,0.7-2.5c1.2-1.1,2.5-2,3.9-2.9c3.1-2.2,5.3-5.1,6.4-6.3c0.9-1,1-2.5,0.2-3.7l0.9-1.4c0,0,1.6-1.8,2.6-2.8
		s3.5-4.1,4.2-4.8c0.6-0.5,0.2-3.3,0.3-4.1s1.9-2.2,2.5-2.9c0.6-0.6,1-1.5,1-2.4c0.1-1.1,0.9-6.1,1.2-7c0.1-0.4,0.3-0.8,0.6-1.1
		c0.5-0.7,1-1.3,1.6-1.9c0.6-0.7,3.7-4.4,5.2-5.7l0.3-0.2c0.7-0.5,0.3-1.1,0.3-1.7c0.1-0.6,0.4-1.2,0.7-1.7c0.4-0.8,0.8-1.5,1.4-2.2
		c1.3-1.5,1.1-2.3,3.2-3.9c0.8-0.6,0.5-2.2,0.5-2.2c0-0.6,0.1-1.1,0.4-1.6c0.8-1.4,1.8-2.7,3-3.9c0.4-0.7,0.7-1.4,0.7-2.2
		c-0.1-1,0.1-2,0.5-2.9c0.1-0.2,0.2-0.5,0.4-0.7C467.4,283.1,467.5,282.8,467.6,282.6z"/>
	<path id="path6642" class="st3" d="M337.4,283.9l0.1-0.2c-0.1-0.4-0.8-0.4-0.9-0.7c-0.2-0.6-0.5-1-1-1.3c-0.4-0.3-0.9-0.4-1.4-0.3
		c-0.4,0-0.6-0.4-0.6-0.8c0-0.1,0-0.2,0.1-0.2c0-0.1,0-0.2-0.1-0.1h-0.4h-0.5h-0.4c-0.8,0-1.7,0.2-2.5,0.5c-0.4,0.2-0.9,0.3-1.4,0.4
		c-0.6-0.1-1.2,0.6-1.8,0.6c-0.5,0-1.6,1.6-2.6,1.7c-0.6,0.1,0,0.1-3.2,1.3c-1,0.3-1.9,0.7-2.8,1.3c1,0.1,1.9,0.1,2.9-0.1
		c0.9,0,1.7-0.1,2.6-0.3c2.1-0.3,5.3-0.5,6.6-0.7c1-0.2,1.6,0.3,2.5,0c0.4-0.1,0.9-0.2,1.3-0.2c0.4-0.1,0.5,0,0.8-0.1
		c0.6,0,1.1,0,1.7-0.2c0.3-0.1,0.5-0.3,0.7-0.5L337.4,283.9z"/>
	<path id="path6644" class="st4" d="M466.8,282.8L466.8,282.8L466.8,282.8v-0.1h0.1v-0.1l0.1-0.1l0,0v-0.1l0.1-0.1v-0.1l0.1-0.1V282
		l0,0c0.2-0.8,0.6-1.7,1-2.4c1-1.4,1.9-2.9,3.1-3.6s1.4-2.2,1.9-4.5c0.2-4,0.7-4.3,1-4.7c0.3-1.2,0.8-2.4,1.3-3.5
		c0.7-1.2,1.5-3.8,1.2-4.4c-0.7-1.4-1.3-2.9-1.7-4.4c-0.8-5-0.2-6.7,0.9-8.3c1.5-2.3,2.5-3.8,4-4.5c0.7-0.3,0.6-1.7,0.5-2.7
		c-0.4-2.5,0.3-2.2,0.8-3.5c0.4-1.1,0.6-2.3,0.7-3.5c-0.1-0.7-0.2-1.4-0.3-2.1c-0.2-1-0.2-2,0-3c0.5-0.7,0.8-1.6,0.9-2.5
		c0.1-0.5,0.3-0.9,0.5-1.3c0.3-0.9,0.5-1.8,0.5-2.8c0-0.3,0.4-2.2,0.6-3.6c0.4-1.6,0.3-3.3-0.1-4.9c-0.3-1.2-0.9-1.7-0.9-2.1
		s-0.1-2.1-0.2-3c-0.1-0.6,2.3-3.8,2.7-4.4c0.2-0.3-0.2-2.5-0.2-3s-0.6-2.8-0.6-3.4s0.1-1,0.1-1.6s-0.1-1.6-0.1-2.9
		c-0.1-2.2,0.1-4.5,0.1-5.2s-0.8-0.5-2.4-1.3s-4.8-4-5.3-4.2c-1.5-0.4-3-0.7-4.6-0.7c-1.9,0.2-3.8,0.5-5.7,0.9
		c-1.3,0-2.5-0.2-3.7-0.6c-0.9-0.3-1.9-0.5-2.9-0.6c-2,0.2-3.9,0.3-5.9,0.1c-1.2-0.2-2.4-0.6-3.5-1.1c-0.6-0.3-1.1-0.6-1.6-1
		c-0.7-0.6-0.7-1-1.2-1s-4.7-0.5-5.5-1.2c-1.3-1.4-2.2-3.2-2.5-5.1c-0.6-2.8,0.4-4.9,1.5-5.4c1.7-0.8,4-2.2,5.2-2.4
		c0.6-0.1-0.7-2.2-1.3-4.3c-0.3-0.8-1.5-0.6-4.1-3.6c-1.2-1.4-3.2-4-3.8-4.9s0.1-1.4-0.5-1.5c-2.3,0-4.7-0.2-7-0.7
		c-2.5-0.5-5-1.2-7.5-2.1c-1.1-0.3-3.8-1.2-4.6-1.6s-2.5-1-4-1.5s-2.1-1.7-2.9-1.7s-3.6,2-7,2.4s-4.5-0.3-6.3-0.6s-3.6-0.6-5.8-0.8
		s-8.7,1-9.8,1.2s-2.7,0.9-4.1,0.9c-0.9,0-5.9,1.4-6.7,1.6s-2.1-0.3-2.8-0.1c-1,0.3-2.5,0.6-2.9,0.7s-7,2.3-8.1,2.5
		c-1.6,0.4-3.2,0.9-4.7,1.4c-0.9,0.5-1.7,1-2.5,1.7c-1.4,1.2-3.1,2-4.9,2.5c-1,0.4-2.1,0.6-3.2,0.7c-2,0.1-2.5,0.5-2.5,0.9
		c-0.1,1.3-0.5,3.9,0,4.2c1.1,0.6,3.7,4.9,3.9,7.6c0.1,2,0,3.9-0.4,5.9c0,0.6-0.2,1.2-0.6,1.7c-1.3,0.8-2.7,1.2-4.1,1.3
		c-1.5,0.1-2.2,0.2-7.3-1.1c-3.9-1.1-4.3-1.4-4.8-2.1c-0.6-0.6-1.3-1.1-2.1-1.4c-0.8-0.3-1.5-0.7-2.1-1.2c-0.7-0.6-3.8,1-8.1,1.3
		c-0.8,0.1-2.2,2.6-4.8,4c-1.3,0.5-2.5,1.2-3.8,1.9c-1.9,1.3-4.1,1.5-3.9,2.1c0.5,1.1-0.4,1.6-0.1,4.3c0.4,4.3-0.6,6.6-0.6,8.7
		c0.2,1.1,0.8,2.1,1.7,2.8c0.8,0.9,1.4,1.9,1.8,3.1c0.3,1.1-0.2,4.8-0.7,7.7c-0.5,2.4-0.8,4.9-0.8,7.4c0.3,1.1,0.8,2.1,1.4,3.1
		c0.9,2.1,1.4,4.3,1.6,6.5c0,1.4-0.1,2.8-0.4,4.1c0.2,0.9,0.6,1.7,1.1,2.5c0.6,0.8,2,3.9,2.4,4.6c0.3,0.7,0.5,1.5,0.6,2.2
		c0,0-0.1,1.5-0.2,2.4s-0.4,4-0.7,8s-0.3,7.1,0.1,7.5c0.6,0.5,1.1,1.1,1.6,1.7c0.3,0.5,2.8,4.8,3,5.4c0.5,1.1,0.9,2.3,1.1,3.5
		s0.6,3.6,0.7,4.2c0.1,0.8,1.1,6,1.3,6.8c0.4,1.7,0.6,3.4,0.8,5.2c0.1,1.3,0.2,3.5,0.3,3.9h-0.1c0.9-0.6,1.8-1.1,2.8-1.3
		c3.2-1.2,2.6-1.2,3.2-1.3c1-0.2,2.1-1.7,2.6-1.7s1.2-0.6,1.7-0.6s0.9-0.2,1.4-0.3c0.8-0.3,1.6-0.5,2.5-0.5l2.6-0.5
		c1.1-0.2,26.9-9.4,31.7-11.3s0.4,1.4,6.7-0.9c3.5-1.3,6.9-2.7,10.2-4.4c1.6-0.5,9.3-4.5,9.3-4.5c1-0.5,2.1-0.8,3.2-0.8
		c1.2,0.1,2.4,0,3.6-0.1c0.8-0.2,1.6-0.3,2.4-0.2c1.2,0.2,2.3,0.2,3.5,0.1c1.2-0.2,1.4-1.1,1.9-1.2c0.6-0.1,1.1-0.4,1.5-0.8
		c0.7-1,1.5-0.7,1.9-1.3c0.6-1,1.4-0.7,3.1-2c0.3-0.3,2,0.1,2.6-0.2s3-2.2,3.5-2.5s0.9-1.1,1.6-1c1.5,0.3,1.7-0.1,2.4,0.6
		c1.1,1,3.5,2.7,3.6,2.9c0.5,1.2,2.2,1.2,2.3,2.8c0,0.8,0.8,0.7,0.7,2c-0.1,0.3,2.4-0.1,3.4,0.8c0.7,0.6,3.2,3,3.6,3.2
		c0.7,0.4,1.8,1.4,2.4,1.6c1.1,0.5,5.2,2.8,6.4,4.4c0.6,0.7,1.6,0.6,2.2,1c1.6,1.1,5.9,3.8,6.4,4.8s4.4,3.6,4.5,4.2s1.9,1.6,2,2.2
		s2.5,2.2,3.4,2.9c0.8,0.5,1.5,1.1,2.1,1.9L466.8,282.8z"/>
	<path id="path6646" class="st5" d="M457.2,302.8v-0.1l0.1-0.2l0.1-0.2l0.1-0.1l0.1-0.2l0.1-0.2l0.1-0.1l0.1-0.2v-0.2l0.1-0.1
		l0.1-0.1l0.1-0.2l0.1-0.1v-0.1l0.1-0.1l0.1-0.1l0.1-0.1v-0.1l0.1-0.1c1.3-1.4,1.1-2.2,3.2-3.8c0.8-0.6,0.5-2.3,0.5-2.3
		c0-0.5,0.2-1.1,0.5-1.6c0.8-1.4,1.8-2.8,3-3.9c0.4-0.7,0.6-1.5,0.7-2.3c-0.1-1,0.1-2,0.6-2.9v-0.2c-0.6-0.7-1.2-1.3-2-1.7
		c-0.8-0.7-3.3-2.4-3.4-2.9s-1.9-1.5-2-2.2c-0.2-0.6-4-3.2-4.5-4.1c-0.5-1.1-4.8-3.6-6.4-4.8c-0.6-0.5-1.6-0.2-2.2-1
		c-1.2-1.6-5.4-4-6.4-4.5c-0.5-0.2-1.6-1.2-2.4-1.6c-0.4-0.2-3-2.6-3.6-3.2c-1-0.8-3.4-0.4-3.4-0.8c0.1-1.2-0.7-1.1-0.7-2
		c0-1.6-1.9-1.6-2.4-2.8c-0.1-0.2-2.5-2-3.5-2.9c-0.8-0.7-1-0.2-2.5-0.6c-0.7-0.1-1,0.6-1.5,1s-3,2.2-3.5,2.5s-2.3-0.1-2.6,0.2
		c-1.7,1.4-2.5,1-3,2c-0.4,0.7-1.2,0.4-1.9,1.4c-0.4,0.4-0.9,0.7-1.4,0.8c-0.6,0.2-0.8,1-1.9,1.2c-1.2,0.1-2.3,0.1-3.5,0
		c-0.8-0.1-1.7,0-2.5,0.2c-1.2,0.1-2.4,0.1-3.6,0.1c-1.1,0-2.2,0.3-3.2,0.8c0,0-7.7,4-9.3,4.5l-0.7,0.3c-0.1,0.7-0.5,1.4-1.1,1.9
		c-0.5,0.3-1,0.1-1.3,0.5s0.3,0.7,0.5,1c0.3,0.4,0.3,0.9,0,1.4c-0.4,0.4-0.8,0.8-1.1,1.4c-0.3,0.4-1.4,1-1.1,1.5
		c0.2,0.4,0.4,0.9,0.5,1.4c0,0.7-0.1,1.3-0.4,1.9c-0.1,0.5,0.5,0.4,0.1,1s-1,1-0.7,1.5s-0.8,0.3-1.1,0.3c-0.3,0.2-0.6,0.5-0.6,0.9
		c-0.1,0.5,0.1,1.2-0.8,1.2c-0.8-0.1-1.7,0-2.5,0.3c-0.3,0.3,0.2,0.8-0.2,1c-0.3,0.2-0.7,0.2-1,0c-0.3,0.1-0.6,0.2-0.8,0.4
		c-0.1,0.2-0.3,0.5-0.4,0.7c-0.3,0.2-0.5,0.5-0.7,0.8c0.1,0.3,0.1,0.6-0.1,0.9c-0.3,0.3-0.6,0.6-1,0.7c-0.4,0.2-0.5-0.2-0.8,0.4
		c0,0.3-0.1,0.6-0.3,0.9c-0.4,0.3-0.9,0.6-1.4,0.7c-1.2,0.4-2.4,0.7-3.7,0.8c-0.3,0-2.4-0.1-2.4-0.7c-0.1-1.2-1.1-1.3-1.2-1.7
		c-0.3-0.9-1.5-1.3-1.5-1.9c-0.1-0.8-3.1-0.6-3.2,0s0,3.2,0,3.9c-0.1,1.1,0,2.4,0.2,7.8c0,2.7,0.1,5.4,0.4,8.1
		c0.1,1.3,0.5,2.6,1.1,3.8l0.8-0.2c-0.1,0,1.2-0.3,0.7-0.8c0.8,0,0.8-0.8-0.5-0.8c1-0.2,0.9-0.7,0.3-0.8c0.8-0.2,1.1-0.5,0.8-1
		c0.7,0.1,0.5-0.5,0.3-0.7c0.5,0.1,0.8-0.1,0.7-0.5c0.8,0.6,1.4-0.1,0.5-0.4c0.7-0.1,0.5-0.3-0.6-0.5c0.4,0.1,1.1-0.2,0.9-0.6
		c0.5,0.4,1.2-0.2,0.3-0.9c0.4-0.3,0.7-0.7,0.8-1.2c0,0.6-0.2,1.6,0.4,1.5c-0.3,0.3-0.3,0.7,0.8,0.7c-1,0.2-1.3,0.9,0,1
		c-0.5,0.4,0.8,0.3,1.4,0.5c-0.8,0.1-1,0.3-0.6,0.5c-0.8,0.3,0.1,0.6,1.4,0.8c-1.2,0.1-1.5,0.8-1,1.2c0.3,0.2,0.7,0.2,1.1,0.1
		c0.3-0.2,0.5-0.3,0.9-0.4s0.6-0.5-0.5-0.8c0.5,0.1,1.3,0.1,1.1-0.2c1.2-0.2,1.2-0.8-0.6-1.3c0.5,0.2,2.4-0.1,1.5-0.6
		c0.5-0.1,0.1-0.9-0.6-0.8c0.4-0.2,0.5-0.8-0.2-1.1c0.7,0,1.5-0.1,0.8-0.5c0.5,0,0.8-0.2,0.6-0.5c1,0.2,0.7-0.4,0.3-0.6
		c0.2-0.1,1-0.3,0.2-0.8c0.6,0,1.3-0.1,1.2-0.3c0.7-0.1,1.2-0.8-0.1-0.7c0.2-0.1,0.2-0.4,0.1-0.6c-0.1-0.1-0.1-0.1-0.2-0.2
		c0.6,0,1.1-0.6,1.1-1.2c0-0.1,0-0.3-0.1-0.4c0.5,0.1,0.4-1.4,0.3-1.9c0.3,0.8,0.5,1.4,0.9,1.4c-0.5,0.3,0,0.9,0.6,1.1
		c-0.5,0.2,0.4,0.8,0.8,0.7c-0.8,0.4-0.8,1.3,1,1.9c-0.8-0.1-0.3,0.7,0,0.9c-0.3-0.2-1.3-0.2-1,0.2c-0.4,0.1-0.6,0.8,0.6,0.5
		c-0.1,0.3,0.5,0.6,1.4,0.7c-0.5,0.5-0.3,0.7,0.4,0.8c-0.3,0.2-0.6,0.4-0.1,0.7c-0.5,0.3-1,1.1,1,1.1c-0.9,0.3-0.1,0.6,0.4,0.8
		c-1.7,0-1.2,1.3,0.1,1.3c-0.7,0.2-0.3,0.8,0.5,1.1c-0.5,0.4,1.1,0.6,0.7-0.2c1-0.1,1.4-0.7,0.7-0.9c1.2-0.3,0.5-1.8,0.1-1.7
		c0.6-0.1,1.3-0.5,0.7-1c0.8,0.2,1.8-0.6-0.4-0.8c1.7-0.2,1.3-1,0.5-1.2c0.2-0.1,2.3,0.2,1.5-0.7c0.5-0.2-0.1-0.5-0.7-0.5
		c0.5-0.1,1.2-0.7,0.6-1c0.3,0.1,0.6,0,0.3-0.7c0.3,0.2,1.6,0.3,1.2-0.4c0.5-0.2,0.1-0.5-0.2-0.8c0.7-0.3,0.3-1.3,0-1.5
		c3.8-0.2,0.3-1.5,0.1-1.6c0.8,0,1.7-0.2,1.3-0.7c1.9,0.4,0.8-1.2,0.3-1.5c0.2,0,1-0.4,0.5-0.9c0.9,0.5,1.5,0.3,0.6-0.7
		c0.4-0.1,0.2-0.6-0.2-0.7c0.8,0.1,0.8-1.7,0.8-1.7s0.6,1.7,1.4,1.8c-0.8,0.3-0.6,1.6-0.1,1.6c-0.2,0.6,0.8,0.5,1.3,0.6
		c-1.5,0-1.2,0.8,0.1,1.1c-0.6,0.3,0,0.8,0.8,0.6c-0.8,0.3-0.7,0.8,0.2,1.4c-0.4,0.1-0.6,0.5-0.4,0.9c0,0.1,0.1,0.2,0.1,0.2
		c-0.6,0,0,0.8,1.2,1.1c-1.5,0.1-1.9,0.5,0,1.2c-0.3,0.1-0.2,0.5,0.5,0.7c-1,0.5-1,1.3,0.8,1.4c-0.7,0.2-0.1,0.4,0.5,0.8
		c-3.2,0.2-1.5,1.6-0.2,1.3c-1.1,0.5,0.6,0.4,1.3,0.7c-1.1,0.1-2.4,0.3-1.9,0.6c-0.6,0.1-0.7,1,1.9,1c-0.5,0.2,0.4,1.1,0.8,1.3
		c-3,0.4-1.6,0.8-0.1,1.2c-0.5,0.1-0.8,0.9,0.8,0.8c-1,0.2-1.9,0.7-1.1,1.2s0.7,0.6,9.9,1.4c7.3,0.7,8.5,0.8,10.2,1.1
		c2,0.3,0.5-1-0.1-1.5c3,0.5,1.5-1,1.1-1.3c0.4,0,1.3-0.2,0.6-0.7c1.6,0.2,1.1-0.8,0.8-1.2c2.1-0.5,1-1.1,0.3-1.5
		c0.4-0.1,0.7-0.3,0.5-0.7c1.4,0.5,1-0.2,0.5-0.5c0.6,0,1.4-0.8,0.5-1.2c0.9-0.2,0.6-0.6,0.4-0.7c2.2-0.1-0.3-1.2,0.3-0.9
		c1-0.3,1.7-1.4,0.8-1.7c0.8-0.1,1.4-0.8,0.6-1.2c0.4-0.3,0.6-0.8,0.3-1.3l0,0c1.5,0.2,1-1,0.6-1.1c1.1,0.2,1.2-2.3,1.2-2.3
		s0.1,1.6,1.1,1.7c-0.6,0.3,0.6,1.1,1.1,1.2c-1,0-1.1,0.6-0.6,0.8c-0.8,0.1,0.1,1,0.7,1.3c-1.4,0.2-0.2,0.8,0.1,1.1
		c-0.7,0.1-0.6,0.6,0.1,0.8c-0.7,0.3-0.1,1.1,0.2,1.2c0.4,0.1,0.9,0,1.2-0.3c0.6-0.6-0.2-1.1-0.5-1.2c1.4-0.2,1.3-1.3,0.8-1.5
		c1.1-0.1,0.8-1.2,0.4-1.5c0.8,0.1,0.8-1,0.9-1.6c0.2,0.8,0.2,1.5,0.7,1.7c-0.4,0.3-0.4,0.9-0.1,1.2c0.2,0.2,0.4,0.3,0.7,0.3
		c-0.4,0.2,0.1,0.9,0.6,1.1c-1.3,0.3,0.3,1.4,0.6,1.4c-0.7,0.7,0.5,1.3,0.5,1.3c-0.4,0.4-0.6,0.9-0.5,1.5c0.2,0.7,1.3,0.6,1.6,0.3
		c0.7-0.5-0.1-1.3-0.4-1.5c0.4,0,0.8-0.3,0.8-0.8c0-0.3-0.2-0.6-0.5-0.7c1.1,0,2.6-0.4,1-0.8c-0.2,0,1.3-0.6,0.3-0.8
		c1.4,0.1,0.5-1.3,0.5-1.3s1.5-0.2,0.7-0.8c0.4,0.1,0.8-0.1,1-0.4c0-0.1,0-0.1,0-0.2c-0.1,0.7,0.4,1.3,1.1,1.4
		c-0.8,0.4,0.2,0.5,0.4,0.6c-1.3,0.4-0.3,0.9,0.3,1.1c-0.7,0.2-0.6,0.7-0.1,1c-0.6,0.2,0.1,0.6,0.6,0.7c-0.9,0.7-0.5,1.5,0.2,1.6
		c-0.8,1.3,0.5,1.1,0.8,0.8c0.3-0.1,0.5-0.4,0.4-0.7c-0.2-0.2-0.4-0.3-0.6-0.3c1.2-0.3,0.6-1.1,0.2-1.3c1.6-0.2,1.2-1.2,0.8-1.4
		c0.5-0.1,0.9-0.2,0.6-0.6c0.4,0,0.2-0.5,0.4-1c-0.1,0.5,0.1,1.1,0.5,1.4c-0.3,0.3,0.1,0.5,0.3,0.6c-1.1-0.2-0.2,0.7,0.1,0.7
		c-0.5,0.4-0.1,0.6,0.3,0.6c-0.3,0.3-0.1,0.4,0.3,0.5c-0.5,0.3,0.1,1.1,0.9,0.8c1.2-0.4,0-1.1,0-1.1c0.7,0,1.2-0.3,0.8-0.6
		c1.2,0.3,2-0.7,1-1.2c0.3-0.1,0.5-0.5,0.4-0.9c-0.1-0.3-0.3-0.4-0.6-0.4c1.2,0.2,2-0.1,1.3-1c0.7,0.1,0.6-0.6,0.7-1
		c0.2,0.8,0.5,0.8,0.7,0.8c-0.4,0.5-0.1,0.7,0.2,0.9c-0.1,0.3,0.1,0.6,0.4,0.6c0.1,0,0.2,0,0.3,0c-0.3,0.2,0.1,0.5,0.4,0.6
		c-1.4,0.1-1,0.8-0.4,0.8c-0.1,0.5,0,0.6,0.8,0.5c-0.5,0.6,0.4,0.7,0.7,0.7c-1.2,0-1,1.3-0.2,1c-0.1,0.7,1.1,0.2,1.5,0.4
		c-0.8,0.8-0.6,1.4,1.1,1.1c-0.8,1.2,0.7,0.8,0.8,0.5c1.1,0.7,1.4-0.3,0.7-0.7c0.5-0.1,0.3-0.5-0.4-0.7c1,0,0.7-0.3,0.5-0.6
		c0.7,0.2,1-0.2,0.7-0.6c0.4,0,0.7-0.3,0.8-0.7v-0.1c0.1,0.3,0.3,0.5,0.6,0.4l0,0c-0.3,0.6,0.2,0.8,1,0.6c-0.3,0.6,0.1,0.8,0.5,0.9
		c-0.1,0.3,0.1,0.6,0.3,0.8L457.2,302.8z"/>
	<path id="path6662" class="st3" d="M401.2,260.3l-0.2-0.1l-0.1,0.1h-0.5l-0.2,0.1l-0.2,0.1l-0.2,0.1h-0.2l-0.2,0.1l-0.3,0.1
		l-0.2,0.1l-0.1,0.1h-0.1l-0.1,0.1l-0.2,0.1l-0.1,0.1l-0.2,0.1l-0.1,0.1l-0.2,0.1l-0.1,0.1l-0.2,0.1l-0.2,0.1l-0.1,0.1
		c-0.8,0.4-5.8,4-8.1,4.9c-1.2,0.6-2.1,1.7-2.4,3c0.1,0.7,1.9,0.1,3.6-0.3c2.1-0.6,2.2-0.9,2.3-1.4c0.1-0.3,1.3-1,2.4-2.1
		c0.8-0.9-0.2-1.1,0.6-1.6s2.5-2.4,3.3-2.6C399.7,261.2,400.5,260.8,401.2,260.3z M447.6,272.2L447.6,272.2L447.6,272.2l0.1,0.1h0.1
		v0.1l0.1,0.1l0.1,0.1v0.1l0.1,0.1l0.1,0.1l0,0l0.1,0.1l0.1,0.1l0.1,0.1l0.1,0.1l0.1,0.1l0.1,0.1l0.1,0.1v0.1l0.1,0.1l0.1,0.1
		l0.1,0.1v0.1l0.1,0.1l0.1,0.1l0.1,0.1h0.1v0.1l0,0c0.4,0.3,0.8,0.7,1.1,0.3s-0.7-0.6-1.4-1.3s-0.3-1-1.1-1.2S447.4,272,447.6,272.2
		z M434.4,264.7L434.4,264.7L434.4,264.7L434.4,264.7l0.1,0.2l0,0v0.1l0.1,0.1l0.1,0.1l0.1,0.1l0.1,0.1v0.1l0.1,0.1l0.1,0.1l0.1,0.1
		l0.1,0.1l0.3,0.2l0.2,0.2l0.2,0.2l0.1,0.1l0.1,0.1l0.1,0.1h0.1l0.1,0.1l0.1,0.1v0.1l0.1,0.1l0.1,0.1l0.1,0.1l0,0h0.1
		c0.5,0.5,1.1,1,1.5,1.6c0.1,0.2,0.3,0.3,0.5,0.3c0.1,0,0.2-0.2,0.3-0.3c0-0.3-1.2-1.5-0.7-1.5s0.8,1,1.4,1.5
		c0.5,0.5,0.9,1.1,1.2,1.7c0.4,0.6,0.9,1.2,1.5,1.7c0.4,0.3,0.7,0.7,0.8,1.2c0-0.4,0-0.9,0-1.3c-0.1-0.7-1.2-1.3-2-2
		c-0.5-0.5-0.3-1.1-0.8-1.7s-2.1-3.4-2.6-3.7s-0.7,0.4-1,0.8s-1-1.4-1.4-1.9s-1-2-1.5-1.6C433.4,262.3,434.3,264.2,434.4,264.7z
		 M422.8,261.3v0.1l0,0v0.1l0,0v0.1l0,0l0,0h0.1v0.1l0,0v0.1v0.1l0,0v0.1h0.1v0.1l0,0v0.1l0,0v0.1l0,0v0.1l0,0
		c0,0.3-0.4,0.2-0.4,0.4c-0.2,0.5,0.1,1,0.5,1.1l0,0c0.4,0.1,0.8,0.1,1.2,0.1c0.5-0.1,1.5,0.2,1.7-0.1s-0.2-0.8-0.6-1
		c-0.3-0.4-0.6-0.8-0.7-1.3c-0.4-0.5-1-0.8-1.7-0.7C422.7,260.6,422.7,260.9,422.8,261.3L422.8,261.3z M432.8,267.4l0.1,0.2l0.1,0.1
		l0.1,0.2l0.1,0.1l0.1,0.1l0.1,0.1l0.1,0.1l0.1,0.1l0.1,0.1l0.1,0.1l0.1,0.1l0.1,0.1l0.1,0.1l0.1,0.1h0.2l0.1,0.1l0.2,0.1h0.1
		l0.2,0.1l0.2,0.1l0.2,0.1l0.2,0.1l0.2,0.1l0.2,0.1l0.2,0.1l0.2,0.1l0.2,0.1l0.2,0.1l0.2,0.1l0.2,0.1l0.2,0.1l0.2,0.1
		c0.6,0.3-3.7-3.2-4.8-4.5c-1-1.1-2.2-2.9-3.1-2.9S432.3,266.5,432.8,267.4L432.8,267.4z M409.1,262l-0.1,0.1v0.1h-0.1l-0.1,0.1
		l-0.1,0.1l-0.1,0.1l-0.1,0.1l-0.1,0.1l-0.2,0.1l-0.1,0.1L408,263l-0.2,0.1l-0.1,0.1l-0.2,0.1l-0.3,0.2l-0.3,0.2l-0.3,0.2l-0.3,0.3
		l-0.1,0.1l-0.1,0.1l-0.2,0.1l-0.1,0.1l-0.1,0.1l-0.1,0.1l-0.1,0.1l-0.1,0.1l-0.1,0.1l-0.1,0.1c-0.3,0.4-0.4,0.9,0,1.4
		c0.2,0.1,0.4,0.1,0.5,0l0,0c0.2-0.5,0.5-0.9,0.9-1.2c0.6-0.5,1.1-1.1,1.6-1.7C408.6,263.1,410,261.8,409.1,262z M402.1,265.3h-0.2
		l0,0h-0.1v0.1h-0.1l-0.1,0.1h-0.1l0,0h-0.1l-0.1,0.1l0,0l-0.1,0.1h-0.1v0.1H401h-0.1h0.1c-0.5,0.4-0.7,0.5-0.5,0.7s0.4,0.4,0.7,0.1
		c0.3-0.4,0.6-0.7,1-1C402.5,265.5,402.4,265.3,402.1,265.3L402.1,265.3z M407.7,260.4L407.7,260.4h-0.2h-0.1l-0.1,0.1l-0.1,0.1
		h-0.1l-0.1,0.1l-0.1,0.1h-0.2l-0.1,0.1l-0.1,0.1l-0.2,0.1l-0.1,0.1l-0.2,0.1l-0.3,0.2l-0.3,0.2l-0.3,0.1l-0.1,0.1l-0.2,0.1
		l-0.1,0.1h-0.2l-0.1,0.1l-0.1,0.1l-0.1,0.1l-0.1,0.1H404h-0.1l-0.1,0.1l-0.1,0.1c-0.6,0.2-1.1,0.6-1.4,1.1c0,0.2,0.2,0.3,1,0.3
		c0.5,0.1,1.1-0.1,1.4-0.5c0.6-0.5,1.6-1.4,2.1-1.8S407.9,260.4,407.7,260.4L407.7,260.4z M466.7,284.1h-0.2l-0.1-0.1h-0.1l-0.1-0.1
		H466l0,0h-0.2l-0.1-0.1h-0.2h-0.1h-0.2l-0.1-0.1c-1.7-0.7-3.5-1.2-5.3-1.4c-0.7,0-2.7-2.4-5.7-3.6c-0.8-0.3-6.1-3.5-6.8-3.6
		c-2.3-0.3-2.9-1.1-2.6-0.3c0.6,0.6,1,1.4,1.1,2.3c0.2,0.7,0.4,1.3,0.6,2c-0.1,0.6-7.4-1.9-9.1-4.5c-2.4-3.6-2.9-4.5-4.1-5.4
		c-1.2-0.6-2.2-1.5-2.9-2.7c-0.2-0.2-0.1-0.7-0.5-0.8c-0.8-0.1-1.4,0.1-1.9-0.8c-0.3-0.6-0.8,0.3-1.2,0.6s-1,0.1-0.8,0.6
		s-0.5,0.6-0.2,0.8c1.2,1.2,0.6,2.2,1.2,2.5c0.3,0.4,0.5,0.9,0.5,1.4c-0.1,1.1,0.6,1.3,0.7,1.9s0.3,1.5,0,1.5
		c-0.8-0.3-1.4-0.7-2-1.3c-0.6-0.5-1.1-0.5-1.2-1.1c-0.5-0.6-0.9-1.2-1.3-1.8c0.6,1,1.1,2,1.5,3.1c0.3,1,0.7,2,1.4,2.9
		c0.3,0.6,0.2,1.3-0.1,1.8c-0.7-0.3-1.4-0.7-1.9-1.3c-0.6-1.1-2.4-1.3-3.9-3.9c-0.5-1,0.1-3,0.1-3.6c0-0.8-1-1.3-1.7-2.6
		c-0.8-1.1,0.2-4,0-4.9s0.2-2-0.2-2c-0.6,0-2.5,1.9-4.7,3c-0.4,0.2-1.2,0.9-1.5,1c-1.6,0.4-2.9,1.6-3.4,3.1c-1,2.1-1.7,3.2-2.1,4
		s0.2,1-0.4,1.5c-0.5,0.3-4,3.9-4.5,4.4c-1.9,1.9-2,1.2-2,1c0.2-1,2.4-3.4,3.7-5.5c0.8-1.3-0.8,0.1-1.5-0.3
		c-1.1-0.6,0.1-1.9,0.3-2.1c0.5-0.5,0.1-0.9,0.4-1.2c0.8-0.8,0.3-1,0.6-1.2c0.5-0.4,0.3-0.4,0-0.3c-1.1,0.5-2.1,1.2-3,1.9
		c-0.6,0.5-5.1,3.4-4.1,2c0.3-0.4,0.7-0.8,1.1-1.1c0.5-0.5,0.8-1.1,0.9-1.7c-0.1-0.3,0-0.7,0.2-1c2.4-2-0.3-0.5-0.6-0.2
		c-1.3,1.1-2.7,2-4.2,2.9c-0.7,0.3-2.6,1.2-2.7,1.7s-0.5,1-0.8,0.8c-0.7-0.4-1.6-0.2-2.1,0.5c-0.7,0.6-1.1-0.1-1.5,0
		c-1.1,0.2-1.7-0.2-2.2-0.1c-0.8,0.2-4,2.5-5,2.2l-0.5,0.1l-0.2-0.2v-0.2c0.3-0.6,0.5-1.2,0.4-1.9c-0.1-0.5-0.2-1-0.5-1.4
		c-0.2-0.6,0.9-1.1,1.2-1.5c0.3-0.5,0.6-1,1-1.4c0.3-0.3,0.3-0.8,0.1-1.2c-0.1-0.3-0.7-0.7-0.5-1.1s0.8-0.2,1.4-0.5
		c0.6-0.5,0.9-1.2,1-2l0.7-0.3c1.6-0.5,9.3-4.5,9.3-4.5c1-0.5,2.1-0.7,3.2-0.8c1.2,0.1,2.4,0.1,3.6-0.1c0.8-0.2,1.6-0.3,2.4-0.2
		c1.1,0.2,2.3,0.2,3.5,0.1c1.2-0.2,1.4-1.1,1.9-1.2c0.5-0.2,1-0.5,1.5-0.8c0.7-1,1.5-0.7,1.9-1.3c0.6-1,1.3-0.7,3-2
		c0.3-0.3,2,0.1,2.6-0.2s3-2.2,3.5-2.5s0.9-1.1,1.6-1c1.5,0.3,1.7-0.1,2.4,0.6c1.1,1,3.5,2.6,3.6,2.9c0.5,1.2,2.2,1.2,2.3,2.8
		c0.1,0.8,0.8,0.7,0.7,2c-0.1,0.3,2.4-0.1,3.4,0.7c0.7,0.6,3.2,3.1,3.6,3.2c0.7,0.4,1.9,1.4,2.4,1.6c1.1,0.5,5.2,2.8,6.4,4.4
		c0.6,0.7,1.6,0.5,2.2,1c1.6,1.2,5.9,3.8,6.4,4.8s4.4,3.6,4.5,4.2s1.9,1.6,2,2.2s2.5,2.2,3.4,2.9c0.8,0.5,1.5,1.1,2.1,1.8
		L466.7,284.1z"/>
	<path id="path6666" class="st6" d="M449.1,314.4L449.1,314.4l-0.1,0.1v0.1v0.1v0.1h-0.1v0.1l-0.1,0.1v0.1v0.1v0.2l-0.1,0.1v0.1
		c-0.5,2.3-0.9,4.6-1.2,7c0,0.9-0.4,1.7-1,2.3c-0.6,0.7-2.4,2.1-2.5,2.9s0.2,3.6-0.3,4.1c-0.7,0.7-3.2,3.8-4.2,4.8s-2.6,2.8-2.6,2.8
		l-0.9,1.3c0.8,1.1,0.7,2.7-0.2,3.7c-1.1,1.1-3.4,4.1-6.4,6.3c-1.3,0.9-2.6,1.8-3.9,2.9c-0.5,0.7-0.2,2.2-0.7,2.5
		c-0.8,0.5-2.2,2.1-2.9,2.4c-0.6,0.3-1,0.9-1,1.5c-0.3,0.5-0.6,1-0.8,1.6c-0.9,1.9-2,3.8-3.2,5.5c-0.7,1.1-1.9,1.4-3.1,2.2
		c-2.1,1.1-4,2.6-5.6,4.3c-1.3,0.9-3,2.9-3.5,3.2s-2.1,2.7-3.1,3.8s-2.1,1.6-6.8,2.5c-1.1,0.3-2.1-0.5-4-0.5c-1,0-3.5-1.5-4.4-2
		c-0.7-0.5-2-1-2.5-1.4c-1.2-0.8-2.5-1.5-3.9-2.1c-0.8-0.3-1.5-0.7-2.2-1.2c-0.9-0.7-1.8-1.5-2.6-2.4c-2.1-1.9-5.8-4.2-6.3-4.9
		c-0.7-1-1.4-1.9-2.1-2.9c-0.7-0.8-1-0.6-1.4-1.2c-0.2-0.3-0.1-2.9-0.3-3.4s-0.2-1.2-2.1-2.2s-2.7-1.2-3.3-2.1
		c-0.7-1.1-3.2-3.8-3.4-4.4s-0.4-2.3-0.5-2.9c-0.2-1-0.8-1.9-1.6-2.4c-0.3-0.3-0.5-0.7-0.7-1.1c-0.3-0.3-0.7-0.5-1.1-0.6
		c-0.3-0.1-0.3-0.7-0.5-1.5c-0.2-1.8-1-3.4-2.3-4.7c-0.7-0.9-1.6-1.6-2.5-2.3c-0.8-0.4-1.5-1-2.1-1.7c-0.4-0.4-0.7-0.9-0.7-1.5
		c-0.2-1.3-0.6-2.6-1.2-3.9c-0.8-1.7-1.7-3.4-2.8-5c-1-1.3-2.1-2.4-3.4-3.4c-0.4-0.6-0.5-1.3-0.3-2c0.1-0.8-0.5-1.3-1.2-2.3
		s-3.1-3.1-3.4-3.5c-0.4-0.4-0.9-0.6-1.5-0.7c-0.5-0.1-1.1-1.3-1.4-1.5c-0.3-0.4-0.5-0.9-0.4-1.3c0-0.2-0.1-0.4-0.2-0.5
		c-0.1-0.2-0.2-0.5-0.3-0.7l-0.1-0.2c0.2,0,0.4-0.2,0.6-0.2c0.4-0.2,0.3-0.3-0.2-0.4c0.4-0.1,0.8-0.5,0.5-0.6
		c0.5-0.2,0.8-0.7,0.5-0.8c0.2-0.4,0.4-0.8,0.5-1.2c0.1,0.4,0.2,0.7,0.5,1c-0.4,0,0,0.2,0.2,0.4c-0.2,0.1,0.1,0.2,0.3,0.5
		c-0.3,0.1-0.2,0.3,0.1,0.4c-0.2,0.2,0.2,0.2,0.5,0.1c-0.1,0.1-0.2,0.3-0.3,0.3c0.9-0.1,1.8-0.3,2.6-0.8c0.9-0.6,0.6-0.8-0.2-1.2
		c0.7-0.2,2.4-0.7,1.8-1.2c0.5-0.3-0.2-0.6-0.7-0.7c2-0.4,2.1-0.8,1.9-0.9c1.1-0.6-0.2-0.9-0.6-1.1c1.4,0.3,1.1-0.2,0.9-0.5
		c1.1,0.5,1.2-0.7,0.7-1c0.4-0.1,0.5-0.7-0.2-1.1c1.1,0.1,1.8-0.1,0.9-0.7c0.6-0.2,0.6-0.5,0.4-0.7c0.6-0.4,0.2-0.8-0.1-0.9
		c0.3-0.1,0.5-0.4,0.4-0.8c0-0.1-0.1-0.2-0.2-0.3c0.4-0.6,0.6-1.3,0.7-2c0,0.6,0.3,1.2,0.8,1.6c-0.2,0.2-0.2,0.5,0,0.7
		c0.1,0.1,0.2,0.1,0.3,0.1c-0.5,0.7-0.2,0.9,0.6,1c-0.3,0.4-0.5,0.7,0.5,0.8c-0.9,0.6-0.6,1,0.3,0.9c-0.9,0.3-0.3,0.9,0.6,0.7
		c-0.7,0.5-0.7,1.1,0.3,0.9c-1,0.5-1.1,1.2,0.5,1.1c-0.5,0-1,1.3,0.9,1.7c0.2-1.5,0.7-11.9,0.8-13.8c0.1-2.1-0.1-3.5-0.1-3.5
		c-0.4,0-0.7,0-1.1,0c-0.8,0.3-1.8,0.2-2.6-0.1c-0.8-0.3-1.7-0.3-2.5-0.1c-0.8,0-1.5,0.1-2.2,0.3c-0.9,0.3-1.8,0.1-2.5-0.5
		c-0.4-0.3,0-1.1,0.7-1.1c1.6,0.1,2-0.5,2.1-0.8c0.5-0.9-0.6-0.7-0.8-1.2c-0.2-0.5-0.5-1-1-1.3c-0.4-0.3-0.9-0.4-1.4-0.3
		c-0.4-0.1-0.6-0.5-0.6-0.9v-0.1c0-0.2-0.2,0.1-0.8,0s-0.2-0.1-0.8-0.2s-0.2-0.6-0.8-0.7c-0.5,0-0.6,0.3-1.4,0.3
		c-0.6,0-1.3-0.1-1.9-0.3c-0.5,0-0.9-0.1-1.3-0.2c-0.4-0.3-0.2-0.8-0.4-1.4c0.2-0.5,0.5-0.9,0.8-1.4c0.3-0.4,0.8-0.6,2.1-0.4
		c0.8,0.1,1.6,0.2,2.5,0.1c1.3-0.2,0.7,0.4,1.6,0.3s2.1-0.6,2.2-1.1c0.2-0.4,0.1-0.9-0.2-1.2c-0.4-0.1-0.8-0.3-1.2-0.6
		c-0.3-0.4-0.4-0.9-0.3-1.4c0.2-0.5,0.7-1,1.2-1.2c1.1-0.7,0.5-1.1,0.8-1.2c0.5-0.2,1-0.3,1.5-0.3c0.9,0.1,1.7,0.2,2.6,0.4
		c1,0,2,0.3,2.8,0.3c2-0.1,0.1-1.1,1.2-0.9c0.7,0,1.3-0.2,1.9-0.4c1-0.5,1-1.4,1.5-1.8c0.2-0.5,0.3-1.1,0.2-1.6
		c-0.1-0.6-0.5-1.1-1.1-1.3c-0.6-0.1-1.2,0-2-0.1c-0.4-0.1-0.9-0.1-1.3,0.1c-0.3,0.1-0.6,0.2-0.8,0.5c-0.4,0.2-0.7,0.4-1.1,0.7
		c-0.5,0.4-0.2,1-0.7,1.3c-1.1,0.6-1-0.1-1.5,0.1c-0.4,0.1-0.9,0-1.3-0.1c-0.5-0.1-1.3-0.3-1.4-0.7c0-0.4-0.3-0.7-0.7-0.8
		c-0.2-0.2-0.4-0.4-0.7-0.5c-0.4,0-0.8,0.1-1.1,0.4c-0.3,0.3-0.4,0.7-0.5,1.1c-0.5,0.7-0.3,1.2-0.8,1.2s0-0.5-0.8-0.3
		c-0.5,0.1-0.4,0.5-1,0.7c-0.5,0.2-0.6,0.3-1.3,0.6s-1-0.1-1.6-0.2c-0.5-0.3-1-0.5-1.6-0.6c-0.6,0.1-0.2-1,0.4-1.7s1.3-0.2,1.8-0.8
		c1-1.2,1-0.5,1.2-1.5c0.2-0.6,0.9-0.3,0.8-1s-0.6-0.3-0.7-1.1c-0.1-0.6,0.2-1.1,0.8-1.3c0.7-0.1,1.6,0.3,2.4-0.3
		c0.6-0.3,1.2-0.6,1.7-1c0.3-0.4,0.2-1,0.5-1.1s0.9,0.1,0.7-0.9c-0.2-0.7-1-0.2-1.6-0.7c-0.4-0.3-0.3-0.6-0.6-0.7
		c-1-0.1-0.5,0.6-1.8-0.2c-0.6-0.3-0.1-0.6-0.6-0.8s-0.9,0-1.8-0.5s-1.6,0.3-1.8-0.3c-0.3-0.4-0.6-0.7-1-0.9c-0.2-0.3-0.3-0.6-0.2-1
		c-0.1-0.5,0.1-1,0.4-1.3c0.4-0.2,0.8-0.6,1-1c0.5-0.6,0.2-1.2,0.5-1.5s1.1-1.7-0.7-0.7c-0.6,0.3-1.3-0.1-1.5,0.2s-1.4,0.2-1.4-0.3
		c0-0.7,1.2-0.6,0.6-1.4s-1-0.3-1-1.1c-0.1-0.4,0.9-1,1.5-1.2c0.8-0.5,1.8-0.5,2.6-0.2c2.9,1.4,2.4,0.3,3.4,0.3s0.8,0.5,2.8,0.7
		c0.9,0.1,2.1,0.1,2.1-0.5s-0.7-0.6-1.2-0.7s-1.1,0.5-1.5-0.3c-0.3-0.3,0.7-0.6,0.6-1.2s-1,0.1-1.1-0.5c-0.2-0.7,0.5-1.4-0.2-1.8
		c-0.4-0.3-0.9-0.3-1.4-0.1c-0.4,0.4-1.2,0.4-1.6-0.1c0,0,0,0-0.1-0.1c-0.8-0.7,0.5-1,0.1-1.6s-1.5,0.3-1.2-0.6
		c0.2-0.6,0.8-1.1,1.5-1.2c3.4,0.4,4.5-0.7,5.1-0.6c1,0.2,1,0.5,2.1,0.5c0.8-0.1,1.2-0.9,2.8-1c1.2-0.1,2.3,0.1,3.4,0.7
		c3.1,0.9,1.9-0.7,2.6-0.7c0.4,0.1,0.9-0.1,1-0.6c0-0.1,0-0.2,0-0.3c0-0.3-0.5-0.4-1.2-0.6s-0.6-0.7-2.1-0.4c-1.9,0.5-3,0.1-3.6,0.6
		c-1,0.8-2,0.6-2.4-0.2c-0.4-0.6-1.1-1-1.9-1c-1.1,0.3-1.6,0.2-1.9-0.3c-0.4-0.6-0.9-1.1-1.6-1.3c-0.6-0.2-1.4,0.5-1.8-0.7
		c-0.3-0.8,0.7-1,1-1.4s0-0.9,0.4-1.2c0.5-0.4,1.6-1,1.5-1.4c-0.6-1.1-0.9,0.2-1.2-0.1c-1.1-0.8-1.4,0.1-1.9-0.2s0.7-0.8,0.7-1.3
		s-0.2-1.1,0.6-1.8c1.4-1.1,0.4-1.1,0.3-1.5c0.1-0.3,0.1-0.7,0.1-1c-0.2-0.2-0.4-0.5-0.6-0.8c0-0.6,0.3-1.1,0.8-1.4
		c0.4-0.6,1-1,1.7-1c1.7-0.4,0.7-1.1,0.7-1.4c0-0.4,0.1-0.7,0.5-0.9c0.3-0.1,0.7-0.1,1-0.1c0.4-0.1,0.9-0.2,1.3-0.2
		c0.3,0.1,0.7,0.3,1,0.5c0.4,0,0.7,0,1.1-0.1c0.7,0.1,1,0.5,1.6,0.3c0.5-0.2,0.8-0.7,0.6-1.2c0-0.4-0.7-0.1-0.6-0.6s0.5-0.3,0.4-1.2
		c-0.1-0.4,0.1-0.8,0.5-0.9h0.1c0.4-0.2,0.8-0.3,1.2-0.4c0.4,0.1,1.1,0.4,1.7,0.5c0.4,0,1.4-0.1,1.5,0.4s0.4,1,0.5,1.4
		c0,0.3,0.2,0.6,0.5,0.8c0.3,0.1,0.5,0.4,0.5,0.7c0,0.7,0.2,2.4,0.2,2.4s0.2,0.6,0.5,0.4s0.7-0.3,0.8-2.3c0-0.4,0.3-4.7,0-5.1
		c-0.5-0.8-0.2-1-0.5-1.4s-0.7,0-0.7-0.4s0.1-1.2-0.5-1.3c-0.8-0.2-0.8,0.7-0.8,1s-0.6,0.4-1.2,0.4c-0.5,0-1-0.1-1.4-0.4
		c-0.4-0.1-0.7-0.3-1-0.6c-0.3-0.2-0.4-0.3-0.3-1.4c0.1-0.8,0.8-1.4,0.4-1.8c-0.4-0.4-1-0.6-1.6-0.5c-1,0-1.7-0.1-1.7-0.6
		c0.1-0.8,1-0.8,2.5-0.7c0.6,0,1-0.4,1.1-0.9c0-0.1,0-0.2,0-0.3c-0.1-0.3,0.2-0.5,0.2-1.1c0-0.5-0.4-0.9-0.9-0.9
		c-0.1,0-0.3,0-0.4,0.1c-0.7,0.4-1.2,0.1-1.7,0.4c-0.6,0.5-1.4,0.6-2.1,0.2c-0.4-0.2-0.6-0.7-0.5-1.2c0.3-0.3,0.4-0.7,0.5-1.2
		c0-0.6-0.7-0.6-0.2-1.2s0-1.5,0.6-1.8c1.1-0.8,0.1-1.5,1-1.9c0.5-0.4,0.7-1,0.6-1.6c0-0.5-0.6-0.6-0.2-1.1s0.2-1.3,1.2-1.4
		c0.8-0.2,1.5-0.4,2.2-0.8c0.5-0.2,1.3-0.8,2.2-1.2c0.7-0.3,1.4-0.5,2.1-0.4c0.7-0.2,1.3-0.6,1.7-1.2c0.5-0.4,1.1-0.7,1.7-0.6
		c0.5-0.1,0.8,0.3,1.7,0.7s0.8,1,1.6,1.2c0.5,0.1,1.5-0.1,1,0.8c-0.4,0.7,0.2,1.2-0.7,1.3c-0.4,0-0.8,0.3-0.9,0.7
		c0.1,0.6,0.7,0.8,1.4,1.1c0.5,0.3,0.9,0.7,1.1,1.2c0.3,0.5,0.4,1.1,0.5,1.7c0.1,0.5,0.1,1,0.1,1.5c0.2,0.5,0.3,1,0.3,1.6
		c-0.1,0.5-0.3,1-0.6,1.4c-0.2,0.4-0.5,0.9-0.7,1.3c-0.1,0.5-0.1,1-0.1,1.5c-0.1,0.4-0.3,1.2,0,1.4s0.6,0,1.1,0.1
		c0.3,0.2,0.6,0.4,0.7,0.7c-0.1,0.6,0.3,1.1,0.8,1.2c0.3,0.1,0.6,0.3,0.6,0.7c-0.3,0.7-0.2,1.5,0.3,2.1c0.4,0.5,0.9,0.4,1.7,0.4
		s0.7-1.1,0.9-1.7c0.3-0.8,0.9-1.6,1.6-2.1c0.4-0.2-0.4-1.2,1.6-1.4s2.7-0.1,3,0.4c0.7,1.6-0.1,1.6-0.5,2.4
		c-0.4,0.3-0.6,0.8-0.7,1.3c0.1,1.1,1.4,0.9,1.4,1.4c-0.2,0.3-0.3,0.5-0.5,0.8c0,0.5,0.7,0.5,0.7,1.1c0,0.3-1.1,1-0.4,1.4
		c0.5,0.4,0.8,1.1,0.8,1.8c0.1,0.6-0.8,0.5-0.7,1.1c0.2,0.5-0.1,1-0.6,1.2c-0.7,0.4-1.1,1-0.7,1.4s1,0.1,1.2,0.5s-0.2,1.6,0.2,2
		c0.3,0.3,1.4-0.2,1,0.6c-0.6,1.2,0.8,1.4-0.6,2c-0.8,0.4-1.2,0.4-1.7,0.7c-0.6,0.2-1.2,0.5-1.6,1.1c-0.1,0.5,0.1,1.2-0.5,1.3
		s-0.6,0.9-0.5,1.2c0.3,0.3,0.5,0.7,0.7,1.1c-0.1,0.6-0.1,1.2-0.1,1.7c0.1,0.5,0.4,0.9,0.8,1.1c0.4,0.2-0.3,0.7-0.1,1
		c0.5,0.4,1.2,0.6,1.9,0.5c0.9,0,2.1-0.2,2.7-0.2s0.5,0.5,0.8,0.7c0.7,0.5,1.6,0,2,0.4c0.7,0.6,1.1,0.3,1.3,1
		c0.1,0.3,0.5,0.4,0.6,0.8s-0.3,0.8,0.1,1.3c0.2,0.3,0.2,0.8-0.1,1.1c-0.3,0.4-0.6,0.8-0.7,1.3c0,0.5-0.2,1-0.5,1.4
		c-0.2,0.4-0.7,0.7-1.2,0.6c-0.6-0.1-1.2-0.3-2.1-0.4c-1-0.2-1,0.4-1.3,0.7s-1.6,0.5-1.7,1.2c-0.1,0.5,0.2,0.5,1.5,0.3
		c0.5-0.1,0.5,0.8,0.2,1.2c-0.3,0.8-0.9,1.4-1.6,1.7c-0.6,0.2-1.5-0.9-1.7-0.8c-0.6,0.1-1.1-0.5-1.6,0c-0.4,0.3-0.8,0.5-1.2,0.6
		c-0.3,0.3,0.3,1.2-0.2,1.2c-0.4-0.1-0.9,0-1.2,0.4c-0.2,0.4,0.1,0.9,0.5,1.1h0.1c0.4,0.1,0.8,0.3,1,0.7c0,0.3-1,1.1-0.1,1.4
		c1.1,0.3,0.5,0.7,1.4,1s2.7,0.6,5,1.4c1.6,0.6,2.7,1,3,1.6c0.1,0.3,0,0.6-0.1,0.8c0.4,0.6,1,1,1.6,1.2c0.5,0.2,0.9,0.6,1.1,1.1
		c0.1,0.4-0.8,0.4-0.6,1.7c0.1,0.7-0.7,0.7-0.6,1.6s-0.1,0.7-0.6,1.5s-1.2,1-1,1.6c0.4,0.3,0.9,0.4,1.5,0.3c0.7,0.1,1.4,0.2,2.1,0.3
		c1.9,0.1,2.1-0.5,3.6-0.6c0.6,0,1.2,0.2,1.6,0.6c0.2,0.3,0.2,0.7,0.1,1.1c-0.1,0.8-0.4,1.5-1,2c-0.5,0.3-1,0-1.3,0.5s0.3,0.7,0.5,1
		c0.3,0.4,0.2,1-0.1,1.3c-0.4,0.4-0.8,0.8-1.1,1.4c-0.3,0.4-1.4,1-1.1,1.5c0.2,0.4,0.4,0.9,0.5,1.4c0,0.7-0.1,1.3-0.4,1.9
		c-0.1,0.5,0.5,0.4,0.1,1c-0.5,0.8-1,1-0.7,1.5s-0.9,0.3-1.1,0.4c-0.4,0.2-0.6,0.5-0.6,0.9c-0.1,0.5,0.1,1.2-0.8,1.2
		c-0.9-0.1-1.7,0-2.5,0.3c-0.3,0.3,0.3,0.8-0.1,1c-0.3,0.1-0.7,0.1-1,0c-0.3,0.1-0.6,0.2-0.8,0.4c-0.2,0.2-0.3,0.5-0.4,0.7
		c-0.2,0.2-0.5,0.5-0.7,0.7c0.1,0.3,0.1,0.6,0,1c-0.3,0.3-0.6,0.6-1,0.7c-0.4,0.2-0.6-0.2-0.8,0.4c0,0.3-0.1,0.6-0.2,0.9
		c-0.4,0.3-0.9,0.6-1.4,0.7c-1.2,0.5-2.4,0.8-3.7,0.9c-0.3,0-2.4-0.1-2.4-0.8c-0.1-1.2-1.1-1.3-1.2-1.7c-0.4-0.9-1.5-1.3-1.5-1.9
		c-0.1-0.8-3.1-0.6-3.2,0s0,3.2,0,3.9c-0.1,1.1,0,2.4,0.2,7.8c0,2.7,0.1,5.4,0.4,8.1c0.1,1.3,0.5,2.6,1.1,3.8l0.8-0.3
		c-0.1,0,1.2-0.2,0.6-0.8c0.8-0.1,0.9-0.8-0.5-0.8c1-0.2,0.9-0.8,0.3-0.8c0.8-0.2,1.1-0.5,0.8-1c0.7,0.1,0.5-0.5,0.3-0.8
		c0.5,0.2,0.8-0.1,0.7-0.4c0.8,0.5,1.5-0.1,0.5-0.4c0.7-0.1,0.5-0.4-0.6-0.5c0.4,0.1,1.1-0.2,0.9-0.6c0.5,0.4,1.2-0.2,0.3-1
		c0.4-0.3,0.7-0.7,0.8-1.2c0.1,0.6-0.2,1.6,0.5,1.4c-0.3,0.4-0.3,0.7,0.8,0.7c-1,0.1-1.3,0.9-0.1,1c-0.5,0.4,0.8,0.3,1.4,0.5
		c-0.8,0.1-1,0.3-0.6,0.5c-0.8,0.3,0.1,0.6,1.4,0.8c-1.2,0.1-1.5,0.8-1,1.2c0.4,0.1,0.8,0.1,1.1,0c0.3-0.1,0.5-0.3,0.9-0.4
		s0.6-0.5-0.5-0.8c0.5,0.1,1.4,0.1,1.1-0.2c1.2-0.2,1.2-0.8-0.6-1.3c0.5,0.2,2.4-0.2,1.5-0.6c0.5-0.1,0.1-0.9-0.6-0.8
		c0.4-0.2,0.5-0.8-0.2-1.1c0.7,0,1.4-0.1,0.8-0.5c0.5,0,0.8-0.2,0.6-0.4c1,0.2,0.8-0.5,0.3-0.6c0.2-0.2,1-0.3,0.2-0.9
		c0.6,0.1,1.3,0,1.2-0.3c0.7-0.1,1.2-0.8-0.1-0.7c0.2-0.2,0.3-0.5-0.1-0.7c0.6,0,1.1-0.4,1.1-1c0-0.2,0-0.4-0.1-0.5
		c0.6,0.1,0.5-1.5,0.4-1.9c0.3,0.8,0.5,1.3,0.8,1.3c-0.5,0.3,0.1,0.9,0.7,1c-0.5,0.3,0.4,0.9,0.8,0.8c-0.8,0.4-0.8,1.3,1,1.8
		c-0.8-0.1-0.3,0.7,0,0.9c-0.3-0.2-1.3-0.2-1,0.3c-0.4,0.1-0.6,0.8,0.5,0.5c-0.2,0.3,0.5,0.5,1.4,0.7c-0.5,0.5-0.3,0.7,0.4,0.8
		c-0.3,0.2-0.6,0.4-0.1,0.7c-0.4,0.3-1,1,1,1.1c-0.9,0.4-0.1,0.6,0.4,0.9c-1.7,0-1.2,1.3,0.1,1.3c-0.7,0.2-0.3,0.8,0.5,1.1
		c-0.5,0.4,1.1,0.6,0.7-0.2c1-0.1,1.4-0.7,0.7-0.9c1.2-0.3,0.5-1.8,0.1-1.7c0.6-0.2,1.3-0.5,0.7-1c0.8,0.2,1.8-0.6-0.4-0.7
		c1.7-0.2,1.3-1,0.5-1.2c0.2-0.1,2.3,0.2,1.5-0.7c0.6-0.2-0.1-0.6-0.7-0.5c0.5-0.2,1.2-0.7,0.6-1c0.3,0.1,0.6,0,0.3-0.7
		c0.3,0.3,1.6,0.3,1.2-0.3c0.5-0.2,0.1-0.6-0.2-0.8c0.7-0.3,0.3-1.3,0-1.5c3.8-0.2,0.3-1.5,0-1.6c0.9,0,1.8-0.3,1.4-0.7
		c1.9,0.4,0.8-1.2,0.3-1.5c0.2-0.1,0.9-0.4,0.5-0.9c0.9,0.4,1.5,0.3,0.6-0.7c0.4-0.1,0.2-0.6-0.2-0.7c0.8,0.1,0.8-1.7,0.8-1.7
		s0.6,1.7,1.4,1.8c-0.5,0.2-0.7,0.7-0.5,1.2c0.1,0.2,0.2,0.3,0.4,0.4c-0.2,0.6,0.8,0.5,1.3,0.6c-1.5,0.1-1.2,0.9,0.1,1.1
		c-0.6,0.4,0,0.8,0.8,0.7c-0.8,0.3-0.8,0.8,0.2,1.4c-0.4,0.2-0.7,0.7-0.3,1.1c-0.6,0.1,0,0.8,1.2,1.1c-1.5,0.1-1.9,0.6,0,1.2
		c-0.3,0.1-0.2,0.6,0.5,0.8c-1,0.5-1,1.3,0.8,1.4c-0.7,0.2-0.1,0.4,0.5,0.8c-3.2,0.2-1.5,1.6-0.2,1.3c-1.2,0.5,0.6,0.4,1.3,0.7
		c-1.1,0.1-2.5,0.3-1.9,0.6c-0.6,0.2-0.7,1,1.9,1c-0.5,0.3,0.4,1.1,0.8,1.4c-3,0.4-1.6,0.8-0.1,1.2c-0.5,0.1-0.8,0.9,0.8,0.7
		c-1,0.3-1.9,0.7-1.1,1.2s0.7,0.6,9.9,1.3c7.3,0.7,8.5,0.9,10.2,1.1c2,0.3,0.5-1-0.1-1.5c3,0.5,1.5-1,1.1-1.3c0.4,0,1.3-0.2,0.6-0.7
		c1.6,0.2,1.1-0.9,0.8-1.2c2.1-0.5,1-1.1,0.3-1.5c0.4-0.1,0.7-0.3,0.5-0.7c1.4,0.5,1-0.2,0.5-0.5c0.6,0,1.4-0.8,0.5-1.2
		c0.9-0.2,0.6-0.6,0.4-0.7c2.2-0.1-0.3-1.1,0.3-0.8c1-0.3,1.7-1.4,0.9-1.7c0.8-0.1,1.4-0.8,0.6-1.2c0.4-0.3,0.5-0.9,0.3-1.3
		c1.5,0.2,1-1,0.6-1.1c1.1,0.2,1.2-2.3,1.2-2.3s0.1,1.6,1.1,1.7c-0.6,0.3,0.6,1.1,1.1,1.2c-1,0-1.1,0.6-0.6,0.8
		c-0.8,0.1,0.1,1,0.7,1.2c-1.4,0.3-0.3,0.8,0.1,1.1c-0.7,0.1-0.6,0.6,0.1,0.8c-0.7,0.3-0.1,1.1,0.2,1.2c0.4,0.2,0.9,0,1.2-0.3
		c0.6-0.6-0.2-1.1-0.6-1.2c1.4-0.2,1.3-1.3,0.8-1.5c1.1-0.1,0.8-1.2,0.3-1.5c0.8,0,0.9-1,1-1.6c0.2,0.8,0.2,1.5,0.7,1.7
		c-0.3,0.4-0.3,0.9,0.1,1.3c0.2,0.2,0.4,0.2,0.6,0.2c-0.4,0.2,0.1,0.9,0.5,1.1c-1.3,0.3,0.3,1.3,0.7,1.3c-0.7,0.7,0.5,1.3,0.5,1.3
		c-0.4,0.4-0.5,0.9-0.5,1.4c0.2,0.8,1.3,0.6,1.6,0.3c0.7-0.5-0.1-1.3-0.4-1.5c0.4,0,0.8-0.3,0.8-0.8c0-0.3-0.2-0.6-0.5-0.7
		c1.1,0,2.6-0.4,1-0.8c-0.2,0.1,1.3-0.6,0.3-0.8c1.4,0.1,0.5-1.3,0.5-1.3s1.5-0.2,0.7-0.8c0.4,0.1,0.9-0.1,1-0.5v-0.1
		c-0.1,0.7,0.4,1.3,1.1,1.4c-0.8,0.4,0.2,0.4,0.4,0.6c-1.3,0.4-0.3,0.9,0.3,1.1c-0.7,0.2-0.7,0.7-0.1,1c-0.6,0.1,0.1,0.6,0.6,0.7
		c-0.9,0.7-0.5,1.5,0.2,1.6c-0.9,1.2,0.5,1.1,0.8,0.8c0.3-0.1,0.5-0.4,0.4-0.7c-0.2-0.2-0.4-0.3-0.6-0.3c1.2-0.3,0.6-1.1,0.2-1.3
		c1.6-0.2,1.2-1.2,0.8-1.4c0.5-0.1,0.9-0.2,0.6-0.6c0.3,0,0.2-0.5,0.4-1c0.1,0.7,0.2,1.3,0.6,1.4c-0.3,0.3,0.1,0.5,0.3,0.6
		c-1.1-0.2-0.2,0.7,0.1,0.7c-0.5,0.4-0.1,0.5,0.3,0.5c-0.3,0.3-0.1,0.5,0.3,0.6c-0.5,0.3,0.1,1.1,0.9,0.8c1.2-0.4,0-1.2,0-1.2
		c0.7,0,1.2-0.2,0.8-0.6c1.2,0.4,2-0.7,1-1.2c0.3-0.1,0.5-0.5,0.4-0.9c-0.1-0.3-0.3-0.4-0.6-0.4c1.2,0.2,2-0.2,1.2-1.1
		c0.7,0.1,0.7-0.6,0.7-0.9c0.2,0.8,0.5,0.8,0.7,0.8c-0.5,0.5-0.1,0.7,0.2,0.9c-0.1,0.3,0.1,0.6,0.4,0.6c0.1,0,0.2,0,0.3,0
		c-0.3,0.2,0,0.5,0.3,0.5c-1.4,0.1-1,0.9-0.3,0.8c-0.1,0.5,0,0.7,0.8,0.6c-0.5,0.6,0.4,0.7,0.7,0.7c-1.2,0-1,1.3-0.2,1
		c-0.1,0.7,1.1,0.2,1.5,0.4c-0.8,0.8-0.6,1.4,1.1,1.1c-0.8,1.2,0.7,0.8,0.8,0.5c1.1,0.7,1.4-0.3,0.7-0.7c0.5-0.1,0.3-0.5-0.4-0.7
		c1,0,0.7-0.3,0.6-0.6c0.7,0.2,1-0.2,0.7-0.7c0.4,0.1,0.7-0.2,0.8-0.5c0-0.1,0-0.1,0-0.2c0.1,0.3,0.3,0.5,0.6,0.5l0,0
		c-0.3,0.6,0.2,0.8,1,0.6c-0.3,0.6,0,0.8,0.5,0.8c0,0.3,0.1,0.7,0.4,0.8l-0.1,0.2c-0.3,0.5-0.5,1-0.6,1.6c0,0.7,0.4,1.2-0.3,1.7
		l-0.2,0.2c-6.8-0.5-18,0.6-22.6,1.1l-7.3,0.7c-10.2,1.5-7.2,1.7,6.7,3.4c4.2,0.5,4.6,0.8,5.7,0.8s1.6,0.4,5.3,0.8
		c1.7,0.2,4.6,1,5.3,1 M335.9,253.6h0.1l0.1-0.1h0.1l0.1-0.1h0.1l0.1-0.1l0.1-0.1h0.1l0.1-0.1h0.1l0,0h0.1V253h0.1l0,0l0,0l0.1-0.1
		l0,0c0.3-0.1,0.5-0.4,0.6-0.7c0-0.3,0-0.6,0-0.8c0-0.6-0.4-0.4-0.7-0.2c-0.2,0.2-0.5,0.4-0.6,0.6c-0.3,0.2-0.7,0.4-1.1,0.6
		c-0.5,0.2-0.8,0.3-0.6,0.6c0,0.3,0.2,0.5,0.5,0.6C335.3,253.9,335.6,253.8,335.9,253.6z M344.8,272.1v0.1h0.1v1l0,0v0.1v0.1l0,0
		v0.1l0,0l0.1,0.1h0.1c0.3,0.1,0.3,0.3,0.7,0.3c0.1-0.1,0.2-0.3,0.3-0.5c0.3-0.2,0.4,0.4,0.8-0.5c0.1-0.2,0.3-0.4,0.5-0.6
		c0.1-0.3,0.1-0.7,0-1c0-0.4-0.2-0.7-0.4-1c-0.8-0.5-1.5-0.2-1.5,0.2c-0.1,0.3-0.3,0.3-0.4,0.6C344.9,271.4,344.8,271.7,344.8,272.1
		L344.8,272.1z M353.7,261.4L353.7,261.4L353.7,261.4L353.7,261.4L353.7,261.4l-0.1,1.2l-0.1,0.2v2.8l-0.1,0.3v1.2l-0.1,0.1v0.3
		c-0.1,0.4,0,0.8,0.4,1c0.2,0,0.4-0.2,0.5-0.3c0,0,0.2-0.3,0.2,0.1s-0.1,0.3,0.1,0.5s0.5,0.2,0.8-0.4s0-1.3,0.5-1.3
		c1.2,0.2,0.7-1,0.9-1.5c0.2-0.8,0.2-1.7,0.2-2.6c-0.1-0.2-0.7,0.1-0.7-0.2c0-0.6,0.3-1.4-0.3-1.4c-0.5,0-0.3,0.5-0.6,0.5
		c-0.2,0-0.4,0-0.6-0.1c-0.1-0.2-0.3-0.4-0.5-0.5C354,261.3,353.8,261.3,353.7,261.4L353.7,261.4z M343.4,257.2v0.3l0.1,0.1l0,0v0.1
		l0,0l0.1,0.1v0.1l0,0v0.1l0.1,0.1l0,0l0.1,0.1l0,0v0.1h0.1l0,0l0,0l0.1,0.1h0.1l0.1,0.1h0.1c0.3,0,0.6,0.1,0.8,0.2
		c0.4,0.2,0.8,0.3,1.2,0.3c0.6,0.1,0.8-0.1,0.8-0.3c0-0.3,0.1-0.6,0.3-0.8c0.1-0.2,0.2-0.8-0.1-0.9c-0.4,0-0.8-0.1-1.2-0.3
		c-0.3-0.3-0.6-0.5-1-0.5c-0.4,0.1-0.7,0.3-0.8,0.6C343.7,256.8,343.4,256.7,343.4,257.2L343.4,257.2z M353.7,256.6L353.7,256.6
		L353.7,256.6L353.7,256.6L353.7,256.6L353.7,256.6l-0.1,0.1l0,0v0.1h0.1v0.1l0,0v0.1l0,0v0.1h0.1l0,0h0.1v0.1h0.1v0.1h0.1v0.1h0.1
		v0.1h0.1l0,0c0.2,0.2-0.4,0.3-0.1,0.7s0.7,0.3,1.3,0.4s0.2,0.3,0.6,0.8c0.4,0.3,0.8,0.5,1.4,0.6c0.6,0.2,0.3,0.7,1.1,0.6
		c0.5-0.1,1.8-0.2,2.1-0.7s0-0.7-0.5-1.1c-0.2-0.1,0.2-0.7-0.1-1.2s-1.4-0.8-1.7-1.1c-0.4-0.5-0.9-0.8-1.5-1.1
		c-0.6-0.2-0.1-0.4-1-0.4c-0.5,0-1.2,0.4-1.9,0.5C353.7,255.4,354,256,353.7,256.6L353.7,256.6z M353.3,249.1L353.3,249.1l-0.1,0.2
		l0,0v0.1h0.1v0.1l0,0l0,0v0.1l0.1,0.1l0.1,0.1v0.1l0.1,0.1v0.1l0.1,0.1l0.1,0.1l0.1,0.1v0.1l0.1,0.1l0.1,0.1v0.1l0.1,0.1l0.1,0.1
		l0.1,0.1l0.1,0.1l0.1,0.1l0.1,0.2l0.1,0.1c0.2,0.3,0.7,0.1,1.5,0.5c0.6,0.3,1,0.2,1.5,0.4c0.4,0.2,0.7,0.5,1,0.8
		c0.2,0.1,0.5,0.2,0.8,0.3s0.4,0.5,0.8,0.8c0.2,0.3,0.5,0.5,0.8,0.6c0.2-0.1,0.4-0.1,0.5-0.1c0.3,0.1,0.6,0.1,0.8,0
		c0.1-0.3,0.1-0.6,0-0.9c0-0.2,0.4-0.1,0.4-0.3c0-0.4-0.2-0.7-0.5-1c-0.1-0.3-0.2-0.7-0.3-1c-0.2-0.3-0.4-0.6-0.7-0.8
		c-0.2-0.5-0.4-1-0.7-1.5c-0.8-0.8-1.6-0.9-3.2-1.2c-1.4-0.3-2.8-0.7-3.2-0.3S353.6,248.2,353.3,249.1L353.3,249.1z M360.4,244.5
		L360.4,244.5l0.1-0.1h0.1l0.1-0.1l0,0h0.1h0.1v-0.1l0,0v-0.1h0.1l0,0l0,0V244l0,0v0l0,0l0,0l0,0v-0.1l0,0v-0.1l0,0v-0.1v-0.1l0,0
		v-0.1l-0.1-0.1l0,0v-0.1h-0.1v-0.1h-0.1l-0.1-0.1h-0.1c-0.4-0.1-0.9-0.2-1.3-0.2c-0.5-0.2-1-0.3-1.6-0.4c-1.1-0.1-2.2-0.1-3.3-0.1
		c-0.2,0-0.4,0.1-0.4,0.3c0,0.1,0,0.2,0.1,0.3c0.7,0.6,0.1,1-0.1,1.2s-0.1,0.4,0.2,0.7c0.3,0.2,0.7,0.3,1.1,0.4
		c0.3,0.2,0.7,0.3,1,0.4c0.5,0.1,1.6,0.3,1.9,0.4c0.3,0.1,0.5,0,0.7-0.2c0.2-0.3,0.6-0.5,1-0.7C360,245.4,359.9,244.7,360.4,244.5
		L360.4,244.5z M337.7,230.8L337.7,230.8L337.7,230.8L337.7,230.8v0.2l0,0l0.1,0.1l0,0v0.1h0.1l0.1,0.1h0.1l0.1,0.1h0.3h0.1l0,0
		c0.4,0.1,0.9,0.1,1.3-0.2c0.2-0.2,0.4-0.3,0.6-0.3s0.8,0.1,0.7-0.4s-0.8-0.6-1.7-0.5c-0.4,0-1.1-0.5-1.6-0.1
		S337.8,230.3,337.7,230.8L337.7,230.8z M353.6,234.8L353.6,234.8L353.6,234.8L353.6,234.8v0.1l0,0l0,0l0,0v0.1l0,0v0.1h0.1v0.1l0,0
		l0.1,0.1l0,0v0.1l0,0h0.1h0.1l0,0h0.1v0.1h0.1c0.3,0,0.7-0.1,0.9-0.4c0.2-0.2,0.4-0.4,0.7-0.6c0.3-0.2,0-0.6-0.3-0.6
		c-0.3,0.1-0.6,0.2-0.9,0.3C354.1,234.3,353.8,234.6,353.6,234.8L353.6,234.8z M357,232.6L357,232.6L357,232.6l1,0.1
		c0.5,0.1,1,0,1.5-0.1c0.3,0,0.6-0.3,0.7-0.6s-0.3-0.5-0.7-0.6c-0.5-0.1-1.1-0.1-1.6,0.1c-0.4,0.1-0.8,0.4-1.1,0.7
		C356.7,232.3,356.8,232.4,357,232.6L357,232.6z M346.2,228.1V228l0.1-0.1l0,0v-0.1l0,0l-0.1-0.1l0,0v-0.1l0,0v-0.1l0,0l-0.1-0.1
		l0,0v-0.1H346v-0.1l0,0v-0.1h-0.1V227h-0.1l0,0h-0.1h-0.1h-0.1c-0.6-0.2-1.2-0.2-1.9-0.2c-0.6,0.1-1.3,0.2-1.9,0.4
		c-0.4,0.1,0.3,0.7-0.8,0.5c-0.1-0.1-0.4,0.2,0,0.6c0.3,0.2,0.6,0.3,1,0.2c0.3,0,0.6,0,0.8,0.1c0.2,0.1,0.5,0.2,0.8,0.2
		c0.6,0,0.7-0.2,1.4-0.2C345.5,228.7,345.9,228.5,346.2,228.1L346.2,228.1z M352.9,229.2L352.9,229.2L352.9,229.2L352.9,229.2
		L352.9,229.2L352.9,229.2L352.9,229.2L352.9,229.2v0.2l0,0v0.1l0,0v0.3v0.1v1l-0.1,0.1v0.2l0.1,0.1v0.2l0,0v0.2l0,0v0.1l0,0v0.1
		l0,0c0.2,0.5,0.5,0.5,0.6,0.2s0.3-0.5,0.6-0.6c0.3-0.1,0-1.1,0.2-1.5c0.3-1,0.4-2.1,0.2-3.1c0-0.4-0.2-0.8-0.3-1.2
		c-0.3-0.6-0.7-1-1-0.7s0,0.4-0.3,1.2C352.9,226.5,352.9,229.6,352.9,229.2L352.9,229.2z M359,221.4L359,221.4L359,221.4v0.1l0,0
		v0.1l0,0v0.1h0.1v0.1h0.1l0,0h0.2l0.1,0.1h0.2c0.3,0.1,0.5,0.2,0.8,0.1c0.4-0.3,0.7-0.6,1-1c0.1-0.3,0.3-0.5,0.5-0.8
		c0.1-0.2,0-0.5-0.3-0.6l0,0c-0.3,0-0.6,0.1-0.8,0.3c-0.4,0.2-0.7,0.5-1.1,0.8C359.3,220.7,359.1,221,359,221.4L359,221.4z
		 M358.8,217.9L358.8,217.9L358.8,217.9L358.8,217.9L358.8,217.9v0.1h0.1v0.1l0,0l0.1,0.1l0,0l0.1,0.1l0,0l0.1,0.1h0.6l0.1-0.1h0.1
		c0.5-0.2,0.9-0.5,1.2-0.9c0.3-0.2,0.5-0.6,0.4-1s-1.3,0.1-1.1-0.1c-0.3,0.3-0.6,0.5-0.9,0.7C359.1,217.2,358.9,217.6,358.8,217.9
		L358.8,217.9z M357.9,214.8h0.2v-0.1h0.1v-0.1h0.1v-0.1h0.1v-0.1l0,0v-0.1l0,0l0.1-0.1l0,0v-0.1h0.1V214l0,0
		c0.2-0.3,0.4-0.7,0.3-1.1c0-0.2,0.4-0.7,0.2-0.9s-0.9,0.7-1.1,0.9c-0.2,0.4-0.4,0.8-0.5,1.2C357.4,214.7,357.7,214.8,357.9,214.8
		L357.9,214.8z M352.8,214.6v0.8l0.1,0.1v0.2l0.1,0.1v0.2v0.1v0.1l0.1,0.2v0.1l0.1,0.1v0.4l0,0c-0.1,0.5,0,1.1,0.2,1.6
		c0.1,0.3-0.3,2.6,0.1,2.8s0.6-0.4,0.9-0.8c0.4-1,0.6-2,0.8-3c0.3-1,0.5-1.9,0.6-2.9c0-1.1-0.1-2.2-0.4-3.2
		c-0.1-0.5-0.4-0.9-0.8-1.2c-0.3-0.2-0.6-0.2-0.7,0.1s-0.2-0.2-0.2-0.2c-0.5-0.2-0.6-0.1-0.6,0.2s-0.2,1.2-0.3,1.6
		C352.3,212.6,352.9,213.1,352.8,214.6L352.8,214.6z M346.6,206.4h0.1v-0.1h0.1v-0.1h0.1v-0.1l0,0l0.1-0.1v0l0,0v-0.1v-0.1l0,0l0,0
		v-0.5h0.1v-0.1c0.1-0.4,0-0.9-0.2-1.2c-0.3-0.4-0.6-0.1-0.8-0.1l-0.1,1c0.2,0.2,0.3,0.5,0.3,0.8C346.1,206,346.3,206.4,346.6,206.4
		L346.6,206.4z M348,203.2h0.3l0.1-0.1h0.1l0.1-0.1h0.1v0h0.2v-0.1c0.3,0,0.4-0.1,0.6-0.6c0.1-0.4,0.1-0.8-0.1-1.2
		c-0.1-0.3-0.5-0.1-0.7-0.2s-0.4-0.5-0.7-0.3c-0.2,0.3-0.4,0.6-0.4,1C347.5,202.2,347.7,202.7,348,203.2L348,203.2z M347.5,197.3
		v0.2l0,0v0.1h-0.1v0.1l0,0v0.1l0,0l-0.1,0.1v0.1h-0.1v0.1l0,0v0.1l0,0l-0.1,0.1l0,0l0,0l0,0v0.1l0,0v0.1v0.1l0,0v0.1
		c0.1,0.5,0.4,0.9,0.7,1.3c0.3,0.2,0.8,0.2,1.1,0c0.1-0.4-0.1-0.7,0.1-1.5s-0.5-0.9-0.7-1.3s-0.5-0.5-0.6-0.3
		C347.6,196.7,347.5,197,347.5,197.3L347.5,197.3z M351.8,194.5v0.1l0,0l-0.1,0.1v0.1l0,0v0.5l-0.1,0.1l0,0v0.1l0,0v0.1l0,0v0.1l0,0
		v0.1l0,0c0,0.3,0,0.7-0.2,1c-0.1,0.2-0.1,0.5,0.1,0.6c0.2,0.2,0.3,0.1,0.5,0s0.2,0.3,0.3,0.5l0.7-0.2c0.1-0.4,0.3-0.8,0.3-1.3
		c0.1-0.8,0.2-1.5,0.1-2.3c-0.1-1.2-1.2-0.5-1.2-0.5C352,193.7,351.8,194.1,351.8,194.5L351.8,194.5z M341.6,218.3L341.6,218.3
		L341.6,218.3L341.6,218.3L341.6,218.3L341.6,218.3l0.1,0.1l0,0v0.1l0.1,0.1v0.1h0.1v0.1l0,0l0.1,0.1l0,0l0.1,0.1h0.1v0.1l0,0
		l0.1,0.1l0,0h0.1h0.1v0.1h0.1l0.1,0.1h0.1l0.1,0.1h0.1v0.1l0,0v0.1l0,0l0.1,0.1c0.5,0.3-0.3,0.7,0.3,1.2c0.5,0.3,0.2,0.6,1.8,0.7
		c1,0,0.7-0.3,1.6-0.7s-0.6-0.8-0.3-1.4c-0.2-0.6-0.8-0.9-1.4-0.9c-0.7-0.1-0.7-0.7-1.1-0.9c-0.4-0.1-0.8-0.2-1.2-0.2
		c-0.5-0.1-0.9-0.3-1.1,0.1C341.2,217.5,341.3,217.9,341.6,218.3L341.6,218.3z M357.5,275.3L357.5,275.3L357.5,275.3l0.2,0.1v0.1
		h0.2v-0.1h0.3l0.1-0.1h0.1l0.1-0.1h0.5c0.6,0.1,1.2,0.1,1.8,0c0.5-0.1,1-0.3,1.4-0.6c0.6,0,1.3-0.1,1.9-0.5
		c0.2-0.2,0.3-0.5,0.2-0.7c0-0.5-0.3-0.4-0.6-0.4s-0.1-0.2,0.3-0.3c0.3,0,0.6-0.1,0.8-0.3c0.2-0.2,0.2-0.3-0.2-0.7s-0.7,0-4.2,1
		s-3.2,1.8-2.9,1.9C357.8,274.6,357.1,275,357.5,275.3L357.5,275.3z"/>
	<path id="path6712" class="st5" d="M332.8,285.1h-0.1h-0.2l-0.1,0.1H332l-0.1-0.1h-0.3h-0.2h-0.1l-0.2-0.1h-0.2v-0.1h-0.7l-0.1,0.1
		c-1.3,0.3-4.5,0.4-6.6,0.7c-0.8,0.2-1.7,0.3-2.6,0.3c-0.9,0.2-1.9,0.2-2.9,0.1v0.1c0.2,0.7,0.5,1.4,0.8,2c0.5,1,1.3,4,1.5,4.6
		s-0.1,1.6,0.1,2.1s0.9,1.1,1.1,1.6s2,4.1,2.8,5.3c0.7,1,2.7,4.8,3.6,6.8l0.1,0.1l0.6-0.2c0.4-0.2,0.3-0.3-0.2-0.4
		c0.4-0.1,0.8-0.5,0.5-0.6c0.4-0.2,0.8-0.7,0.4-0.8c0.2-0.4,0.4-0.8,0.5-1.2c0.1,0.4,0.2,0.7,0.5,1c-0.4,0,0,0.2,0.2,0.4
		c-0.2,0.1,0.1,0.2,0.3,0.5c-0.3,0.1-0.2,0.3,0.1,0.4c-0.2,0.2,0.2,0.3,0.5,0.1c-0.1,0.1-0.2,0.3-0.3,0.3c0.9-0.1,1.8-0.3,2.6-0.8
		c0.9-0.6,0.6-0.8-0.2-1.2c0.7-0.2,2.4-0.7,1.8-1.2c0.4-0.3-0.2-0.6-0.7-0.7c2-0.5,2.1-0.8,1.9-0.9c1.1-0.6-0.2-0.9-0.6-1.1
		c1.4,0.3,1.1-0.2,0.9-0.5c1.1,0.5,1.2-0.7,0.7-1c0.5-0.1,0.5-0.7-0.2-1.1c1.1,0.1,1.8-0.1,0.9-0.7c0.6-0.2,0.6-0.5,0.4-0.7
		c0.6-0.4,0.2-0.8,0-0.9c0.3-0.1,0.5-0.4,0.4-0.8c0-0.1-0.1-0.2-0.2-0.3c0.4-0.6,0.6-1.3,0.7-2c0,0.6,0.3,1.2,0.8,1.6
		c-0.2,0.2-0.2,0.5,0,0.7c0.1,0.1,0.2,0.1,0.3,0.1c-0.5,0.7-0.2,0.9,0.6,1c-0.3,0.4-0.6,0.8,0.5,0.8c-0.9,0.6-0.6,1,0.3,0.9
		c-0.9,0.3-0.3,0.9,0.6,0.7c-0.7,0.5-0.7,1.1,0.3,0.9c-1,0.5-1.1,1.2,0.5,1.1c-0.5,0-1,1.3,0.9,1.7c0.2-1.5,0.7-11.9,0.8-13.8
		c0.1-2.1,0-3.5,0-3.5c-0.3-0.1-0.7-0.1-1.1-0.1c-0.8,0.3-1.8,0.2-2.6-0.1c-0.8-0.3-1.7-0.3-2.5-0.1c-0.8-0.1-1.5,0-2.2,0.2
		c-0.9,0.3-1.8,0.1-2.5-0.5c-0.5-0.3,0-1.1,0.7-1.1C334.5,284.9,333.6,284.9,332.8,285.1z"/>
	<path id="path6714" class="st3" d="M449.1,314.4h-0.2h-0.1h-0.3l-0.1-0.1h-0.2l-0.1-0.1h-0.2l-0.2-0.1l-0.2-0.1h-0.2l-0.2-0.1h-0.2
		h-0.2l-0.4-0.1l-0.4-0.1l-0.4-0.1h-0.4l-0.4-0.1l-0.2-0.1h-0.2l-0.2-0.1h-0.2l-0.2-0.1h-0.2c-3.6-0.5-4.2-0.8-5.3-0.9
		s-1.5-0.3-5.7-0.8c-14-1.7-17-2-6.7-3.4c0,0,2.3-0.3,7.3-0.8c4.5-0.5,15.8-1.5,22.6-1l-0.2,0.1c-1.5,1.2-4.4,4.8-5,5.5
		c-0.5,0.6-1,1.3-1.5,2C449.2,314.2,449.2,314.3,449.1,314.4z"/>
	<path id="path6718" class="st3" d="M380.3,323.3h0.1l0.1-0.1h0.1l0.1-0.1h0.1l0.1-0.1h0.1l0.1-0.1l0.1-0.1h0.1h0.2l0.1-0.1h0.2h0.1
		l0.2-0.1l0.2-0.1l0.2-0.1h0.2h0.2l0.2-0.1l0.2-0.1h0.2h0.2l0.2-0.1h0.2l0.2-0.1h0.4l0.2-0.1c2.6-0.1,2.2,0.2,4.8,0.4
		c0.5,0.1,1,0.2,1.5,0.2c0.9,0.1,1.8,0.2,2.7,0.4c0.9,0.4,1.8,0.8,2.8,1.1c0.6,0.1,1.3,0.3,1.9,0.5c0.5,0.1,1,0.3,1.5,0.6
		c1.1,0.4,2.2,0.8,3.4,1.1c1.4,0.3,2.2,0.4,3.2,0.6s3,0.6,3.9,1c1.3,0.5,2.6,1.3,3.8,2.1c0.8,0.9,1.2,1.1,1.8,3.5
		c0.3,1.2,0,1.6-0.3,2.9s-0.5,1.7-0.3,2.2c0.1,0.6,0.1,1.1-0.1,1.7c-0.2,0.3-0.4,0.6-0.7,0.8c-0.2,0.3-0.5,0.5-0.8,0.7
		c-0.2-0.1-0.3-0.2-0.5-0.3c-0.1-0.2-0.2-0.4-0.3-0.6c-0.2-0.2-0.3-0.5-0.3-0.8c-0.1-0.3,0-0.7,0.1-1c0.2-0.3,0.4-0.5,0.5-0.8
		c0.2-0.5,0.4-0.9,0.5-1.4c0.2-0.6,0.3-1.3,0.3-1.9c-0.1-0.3-0.2-1.2-0.2-1.2l-0.5-0.7c-0.3-0.1-0.6,0-0.7,0.2l0,0
		c-0.2,0.6-0.1,0.4-0.5,1.9c-0.2,0.7-0.4,1.4-0.7,2c-0.4,0.7-0.7,1.5-1,2.2c-0.2,0.7,1,1.5,1.2,2.7c0.1,0.7,0.3,1.5,0.7,2.1
		c0,0.3,0.2,0.5,0.4,0.7c0.2,0.1,0.6,0.1,0.3,0.9c-0.4,1.1-0.8,2.2-1.1,3.3c-0.1,0.8-0.1,1.4-0.1,1.5s-0.2,0.1-0.2,0.3
		c-0.1,0.1-0.1,0.3-0.1,0.5c0,0.4-0.1,1.4-0.1,1.4c0.1,0.2,0,0.3-0.2,0.4h-0.1c-0.4,0-2.5,0-2.8,0s-0.8-0.2-0.7-0.6
		c0-0.5,0.1-0.9,0.3-1.3c0.3-0.1,0.6-0.3,0.6-0.3s0.3-0.7,0.4-1c0.1-0.4,0.2-0.8,0.3-1.2c0.1-0.5,0.2-1,0.2-1.6
		c0-0.9-0.2-1.8-0.7-2.6c-0.7-1-0.4-1-1-1.4c-0.7-0.5-1.5-0.8-2.3-1c-0.6,0-1.2,0.2-1.7,0.4c-0.4,0.2-1.2,0.6-2,1s-1.6,0.8-2,1
		c-0.2,0.1-0.4,0.1-0.5-0.1c-0.1-0.1-0.1-0.1-0.1-0.2c-0.1-0.3,0-0.7-0.4-0.7c-0.3,0.1-0.7,0.2-1,0.3c-0.5,0.2-0.9,0.6-1.1,1.1
		c-0.2,0.6-0.3,0.7-0.5,1.3c-0.1,0.5-0.4,0.9-0.7,1.2c-0.4,0.2-0.7,0.5-1.1,0.8s-0.8,0.8-1,1.3s-0.3,0.9-0.4,1.4
		c-0.1,0.3-0.1,0.5-0.1,0.8c0,0.2-0.1,0.8-0.1,0.8s0,0.5-0.2,0.5c-1,0-2.1,0-2.6,0s-0.5-0.2-0.4-0.5c0.2-0.4,0.4-0.8,0.7-1.1
		c0.1-0.6,0.2-1.2,0.1-1.9c-0.1-0.3-0.8-1.2-0.9-1.4c-0.1-0.4-0.2-0.7-0.4-1c-0.4-0.3-0.7-0.6-1-1s-0.8-0.6-1.3-0.7
		c-1-0.1-2-0.4-3-0.7c-0.5-0.3-2.1-1.1-2.4-1.3c-0.5-0.3-1-0.5-1.5-0.7c-0.3-0.1-0.7,0-1,0.3c-0.6,0.6-0.8,0.6-1.1,0.8
		c-0.2,0.1-0.4,0.3-0.5,0.6c-0.2,0.3-0.6,1.2-0.7,1.5c-0.6,1.2-1.2,1.1-1.2,1.1s-0.6,0.3-1.4-1.1s-1.2-1.8-1.2-1.8
		c-0.2-0.2-0.5-0.3-0.8-0.3c-0.3,0.1-1.3,0.2-1.5,0.2c-0.4,0-0.7-0.1-1-0.4c-0.4-0.6-0.6-1.3-0.6-2c0-0.6-0.1-1.2-0.4-1.8
		c-0.2-0.4-0.4-0.8-0.6-1.2c-0.1-0.8-0.3-1.6-0.6-2.4c-0.4-0.7-0.6-1.5-0.7-2.4c0,0,0-0.4,0.1-1.1c0-0.7,0.1-1.5,0.2-2.2
		c0.1-0.8,0.5-1.5,1.1-2c0.5-0.5,1-1,1.6-1.4c0.6-0.3,1.2-0.6,1.8-0.8c0.6-0.2,1.2-0.2,1.7-0.2c0.8,0.3,1.6,0.4,2.5,0.3
		c0.8,0,1.5-0.4,1.9-1s0.9-1.2,1.4-1.7L380.3,323.3z M373.9,332.9h0.3l0.1,0.1h0.2v0.1h0.1l0.1,0.1h0.1l0.1,0.1l0.1,0.1h0.1l0.1,0.1
		h0.1h0.1l0,0l0,0l0.1,0.1l0,0l0.1,0.1l0,0l0.1,0.1v0.1l0.1,0.1v0.1v0.1v0.1l0.1,0.1v0.2v0.1v0.4c0.8-0.5,1.2-1.3,1.3-2.2
		c0-1-0.4-2-1.1-2.8c-1.2-1.2-1.4-0.7-1.3,0.2s0.4,1.1,0.1,1.7C374.4,331.9,374.1,332.4,373.9,332.9L373.9,332.9z M371.5,335.2
		L371.5,335.2L371.5,335.2l-0.1,0.1l0,0l-0.1,0.1l0,0v0.1h-0.1v0.1h-0.1v0.1l0,0l0,0H371l-0.1,0.1h0.1c-0.2,0.1-0.5,0.6,0.1,0.7
		c0.4,0.1,0.8,0.1,1.2,0c0.4-0.1,0.8-0.2,1.2-0.3c0.3-0.1,0.6-0.6,0-0.7c-0.8-0.2-0.9-0.7-1.4-0.6
		C371.8,334.7,371.6,334.9,371.5,335.2z"/>
	<polygon id="polygon6724" class="st3" points="380.8,194.8 385,194.8 389.1,202.6 389.1,202.6 389.1,194.8 392,194.8 392,206.4 
		388,206.4 383.7,198.5 383.7,198.5 383.9,206.4 380.8,206.4 	"/>
	<polygon id="polygon6726" class="st7" points="380.8,194.8 385,194.8 389.1,202.6 389.1,202.6 389.1,194.8 392,194.8 392,206.4 
		388,206.4 383.7,198.5 383.7,198.5 383.9,206.4 380.8,206.4 	"/>
	<path id="polygon6728" class="st3" d="M398.1,194.8h4l4.6,11.6h-3.5l-0.9-2.5h-4.6l-1,2.5h-3.2L398.1,194.8z M400.1,197.2
		L400.1,197.2l-1.6,4.6h3L400.1,197.2z"/>
	<path id="polygon6732" class="st8" d="M398.1,194.8h4l4.6,11.6h-3.5l-0.9-2.5h-4.6l-1,2.5h-3.2L398.1,194.8z M400.1,197.2
		L400.1,197.2l-1.6,4.6h3L400.1,197.2z"/>
	<polygon id="polygon6736" class="st3" points="409.1,197.1 406.1,197.1 406.1,194.8 415.3,194.8 415.3,197.1 412.4,197.1 
		412.4,206.4 409.1,206.4 	"/>
	<polygon id="polygon6738" class="st7" points="409.1,197.1 406.1,197.1 406.1,194.8 415.3,194.8 415.3,197.1 412.4,197.1 
		412.4,206.4 409.1,206.4 	"/>
	<polygon id="polygon6740" class="st3" points="417.1,206.4 420.3,206.4 420.3,194.8 417.1,194.8 	"/>
	<polygon id="polygon6742" class="st7" points="417.1,206.4 420.3,206.4 420.3,194.8 417.1,194.8 	"/>
	<path id="path6744" class="st3" d="M428.6,194.5h0.3l0.4,0.1h0.3l0.3,0.1l0.3,0.1l0.3,0.1l0.3,0.1l0.3,0.1l0.3,0.1l0.3,0.1l0.2,0.1
		l0.3,0.2l0.2,0.2l0.2,0.2l0.2,0.2l0.2,0.2l0.2,0.2l0.2,0.2l0.2,0.2l0.2,0.2l0.1,0.3l0.2,0.2l0.1,0.3l0.1,0.3l0.1,0.3l0.1,0.3v0.3
		l0.1,0.3v0.3v0.7l0.1,0.3c0,3.7-2.1,6-6.1,6s-6.1-2.3-6.1-6S424.5,194.5,428.6,194.5z M428.6,204.2h0.3l0.2-0.1h0.2l0.2-0.1
		l0.1-0.1l0.2-0.1l0.1-0.1l0.1-0.1l0.2-0.1l0.1-0.1l0.1-0.1l0.1-0.1l0.1-0.1l0.1-0.2v-0.1l0.1-0.1l0.1-0.2l0.1-0.1l0.1-0.2l0.1-0.1
		v-0.2v-0.2l0.1-0.2l0.1-0.2v-0.2l0.1-0.2v-0.3l0.1-0.2V200c0-2-0.8-3.7-2.7-3.7s-2.8,1.7-2.8,3.7S426.5,204.2,428.6,204.2
		L428.6,204.2z"/>
	<path id="path6748" class="st8" d="M428.6,194.5h0.3l0.4,0.1h0.3l0.3,0.1l0.3,0.1l0.3,0.1l0.3,0.1l0.3,0.1l0.3,0.1l0.3,0.1l0.2,0.1
		l0.3,0.2l0.2,0.2l0.2,0.2l0.2,0.2l0.2,0.2l0.2,0.2l0.2,0.2l0.2,0.2l0.2,0.2l0.1,0.3l0.2,0.2l0.1,0.3l0.1,0.3l0.1,0.3l0.1,0.3v0.3
		l0.1,0.3v0.3v0.7l0.1,0.3c0,3.7-2.2,6-6.1,6s-6.1-2.3-6.1-6S424.5,194.5,428.6,194.5z M428.6,204.3h0.2h0.2h0.2l0.2-0.1l0.2-0.1
		h0.1l0.2-0.1l0.1-0.1l0.1-0.1l0.2-0.1l0.1-0.1l0.1-0.1l0.1-0.1l0.1-0.1l0.1-0.1V203l0.1-0.1l0.1-0.1l0.1-0.2l0.1-0.2l0.1-0.1v-0.2
		v-0.2l0.1-0.2l0.1-0.2v-0.2l0.1-0.2v-0.3l0.1-0.2v-0.4c0-2-0.8-3.7-2.7-3.7s-2.8,1.7-2.8,3.7S426.5,204.3,428.6,204.3z"/>
	<polygon id="polygon6752" class="st3" points="436.7,194.8 440.8,194.8 444.9,202.6 445,202.6 444.9,194.8 447.8,194.8 
		447.8,206.4 443.8,206.4 439.5,198.5 439.5,198.5 439.6,206.4 436.7,206.4 	"/>
	<polygon id="polygon6754" class="st7" points="436.7,194.8 440.8,194.8 444.9,202.6 445,202.6 444.9,194.8 447.8,194.8 
		447.8,206.4 443.8,206.4 439.5,198.5 439.5,198.5 439.6,206.4 436.7,206.4 	"/>
	<path id="polygon6756" class="st3" d="M453.9,194.8h4l4.7,11.6h-3.5l-1-2.5h-4.6l-1,2.5h-3.3L453.9,194.8z M455.9,197.2
		L455.9,197.2l-1.6,4.6h3L455.9,197.2z"/>
	<path id="polygon6760" class="st8" d="M453.9,194.8h4l4.7,11.6h-3.5l-1-2.5h-4.6l-1,2.5h-3.3L453.9,194.8z M455.9,197.2
		L455.9,197.2l-1.6,4.6h3L455.9,197.2z"/>
	<polygon id="polygon6764" class="st3" points="464.1,194.8 467.3,194.8 467.3,204.1 472.3,204.1 472.3,206.4 464.1,206.4 	"/>
	<polygon id="polygon6766" class="st7" points="464.1,194.8 467.3,194.8 467.3,204.1 472.3,204.1 472.3,206.4 464.1,206.4 	"/>
	<path id="path6768" class="st3" d="M402.6,213.4h4c3.8,0,5.6,1.2,5.6,3.8c0,2.4-1.9,3.8-4.9,3.8H406v4h-3.3L402.6,213.4
		L402.6,213.4L402.6,213.4z M405.9,218.8h0.9c1.2,0,2.1-0.4,2.1-1.6s-0.9-1.6-2.1-1.6h-0.9V218.8z"/>
	<path id="path6772" class="st8" d="M402.6,213.4h4c3.8,0,5.6,1.2,5.6,3.8c0,2.4-1.9,3.8-4.9,3.8H406v4h-3.3L402.6,213.4
		L402.6,213.4L402.6,213.4z M405.9,218.8h0.9c1.2,0,2.1-0.4,2.1-1.6s-0.9-1.6-2.1-1.6h-0.9V218.8z"/>
	<path id="polygon6776" class="st3" d="M416.3,213.4h4.1l4.8,11.6h-3.7l-0.9-2.5H416l-1,2.5h-3.4L416.3,213.4z M418.3,215.7
		L418.3,215.7l-1.6,4.6h3.1L418.3,215.7z"/>
	<path id="polygon6780" class="st8" d="M416.3,213.4h4.1l4.8,11.6h-3.7l-0.9-2.5H416l-1,2.5h-3.4L416.3,213.4z M418.3,215.7
		L418.3,215.7l-1.6,4.6h3.1L418.3,215.7z"/>
	<path id="path6784" class="st3" d="M426.6,213.4h5.9c2.2,0,4,0.9,4,2.9c0.1,1.5-0.9,2.8-2.4,3l0,0c1.1,0.3,1.1,1.1,1.7,2.5l1.2,3.2
		h-3.5l-0.7-2.1c-0.7-2-1.1-2.5-2.4-2.5H430v4.6h-3.3L426.6,213.4L426.6,213.4L426.6,213.4z M429.9,218.2h0.9c1.1,0,2.4-0.1,2.4-1.4
		c0-1.1-1.2-1.3-2.4-1.3H430L429.9,218.2L429.9,218.2z"/>
	<path id="path6788" class="st8" d="M426.6,213.4h5.9c2.2,0,4,0.9,4,2.9c0.1,1.5-0.9,2.8-2.4,3l0,0c1.1,0.3,1.1,1.1,1.7,2.5l1.2,3.2
		h-3.5l-0.7-2.1c-0.7-2-1.1-2.5-2.4-2.5H430v4.6h-3.3L426.6,213.4L426.6,213.4L426.6,213.4z M429.9,218.2h0.9c1.1,0,2.4-0.1,2.4-1.4
		c0-1.1-1.2-1.3-2.4-1.3H430L429.9,218.2L429.9,218.2z"/>
	<polygon id="polygon6792" class="st3" points="438.9,213.4 442.2,213.4 442.2,218.1 442.2,218.1 446,213.4 450,213.4 445.4,218.8 
		450.4,225 446.1,225 442.2,219.7 442.2,219.7 442.2,225 438.9,225 	"/>
	<polygon id="polygon6794" class="st7" points="438.9,213.4 442.2,213.4 442.2,218.1 442.2,218.1 446,213.4 450,213.4 445.4,218.8 
		450.4,225 446.1,225 442.2,219.7 442.2,219.7 442.2,225 438.9,225 	"/>
	<path id="path6796" class="st3" d="M389.3,240.7l0.2,0.1l0.2,0.1h0.2l0.2,0.1l0.2,0.1l0.2,0.1l0.2,0.1h0.2l0.2,0.1l0.2,0.1l0.3,0.1
		h0.2l0.2,0.1h0.7c1.1,0,2.1-0.2,2.1-1.1c0-2.2-5.9-0.8-5.9-5c0-2.8,2.9-3.5,5.4-3.5c1.1,0,2.2,0.1,3.2,0.4l-0.2,2.4
		c-0.9-0.4-1.8-0.6-2.8-0.5c-0.8,0-2.2,0.1-2.2,1.1c0,1.8,5.9,0.6,5.9,4.8c0,3-2.7,3.8-5.5,3.8c-1.2,0-2.5-0.2-3.6-0.5L389.3,240.7z
		"/>
	<path id="path6798" class="st8" d="M389.3,240.7l0.2,0.1l0.2,0.1h0.2l0.2,0.1l0.2,0.1l0.2,0.1l0.2,0.1h0.2l0.2,0.1l0.2,0.1l0.3,0.1
		h0.2l0.2,0.1h0.7c1.1,0,2.1-0.2,2.1-1.1c0-2.2-5.9-0.8-5.9-5c0-2.8,2.9-3.5,5.4-3.5c1.1,0,2.2,0.1,3.2,0.4l-0.2,2.4
		c-0.9-0.4-1.8-0.6-2.8-0.5c-0.8,0-2.2,0.1-2.2,1.1c0,1.8,5.9,0.6,5.9,4.8c0,3-2.7,3.8-5.5,3.8c-1.2,0-2.5-0.2-3.6-0.5L389.3,240.7z
		"/>
	<polygon id="polygon6800" class="st3" points="400.2,232 408.9,232 408.9,234.1 403.5,234.1 403.5,236.5 408.6,236.5 408.6,238.7 
		403.5,238.7 403.5,241.3 409.1,241.3 409.1,243.6 400.2,243.6 	"/>
	<polygon id="polygon6802" class="st7" points="400.2,232 408.9,232 408.9,234.1 403.5,234.1 403.5,236.5 408.6,236.5 408.6,238.7 
		403.5,238.7 403.5,241.3 409.1,241.3 409.1,243.6 400.2,243.6 	"/>
	<path id="path6804" class="st3" d="M411.2,232h5.9c2.2,0,4,1,4,2.9c0.1,1.5-0.9,2.8-2.4,3l0,0c1.1,0.3,1.1,1.2,1.7,2.6l1.2,3.1
		h-3.5l-0.7-2.1c-0.6-2-1.1-2.5-2.3-2.5h-0.7v4.6h-3.3L411.2,232L411.2,232L411.2,232z M414.5,236.8h0.8c1.1,0,2.4-0.1,2.4-1.4
		c0-1-1.1-1.3-2.4-1.3h-0.8V236.8L414.5,236.8z"/>
	<path id="path6808" class="st8" d="M411.2,232h5.9c2.2,0,4,1,4,2.9c0.1,1.5-0.9,2.8-2.4,3l0,0c1.1,0.3,1.1,1.2,1.7,2.6l1.2,3.1
		h-3.5l-0.7-2.1c-0.6-2-1.1-2.5-2.3-2.5h-0.7v4.6h-3.3L411.2,232L411.2,232L411.2,232z M414.5,236.8h0.8c1.1,0,2.4-0.1,2.4-1.4
		c0-1-1.1-1.3-2.4-1.3h-0.8V236.8L414.5,236.8z"/>
	<polygon id="polygon6812" class="st3" points="422.4,232 425.9,232 428.7,241 428.7,241 431.5,232 434.8,232 430.6,243.6 
		426.5,243.6 	"/>
	<polygon id="polygon6814" class="st7" points="422.4,232 425.9,232 428.7,241 428.7,241 431.5,232 434.8,232 430.6,243.6 
		426.5,243.6 	"/>
	<polygon id="polygon6816" class="st3" points="436.6,243.6 439.8,243.6 439.8,232 436.6,232 	"/>
	<polygon id="polygon6818" class="st7" points="436.6,243.6 439.8,243.6 439.8,232 436.6,232 	"/>
	<path id="path6820" class="st3" d="M452.8,243.3l-0.2,0.1l-0.2,0.1h-0.2H452l-0.2,0.1h-0.2l-0.2,0.1h-0.2H451h-0.2l-0.1,0.1h-0.6
		l-0.1,0.1h-0.9c-3.3,0-7.1-1.6-7.1-5.9c0-4.1,3-6,7.1-6c1.2,0,2.5,0.2,3.6,0.5l-0.2,2.5c-1-0.5-2.1-0.8-3.3-0.8
		c-2-0.1-3.8,1.5-3.9,3.5c0,0.1,0,0.2,0,0.3c0,2.2,1.7,3.6,4.1,3.6c1,0,2.1-0.2,3.1-0.5L452.8,243.3z"/>
	<path id="path6822" class="st8" d="M452.8,243.3l-0.2,0.1l-0.2,0.1h-0.2H452l-0.2,0.1h-0.2l-0.2,0.1h-0.2H451h-0.2l-0.1,0.1h-0.6
		l-0.1,0.1h-0.9c-3.3,0-7.1-1.6-7.1-5.9c0-4.1,3-6,7.1-6c1.2,0,2.5,0.2,3.6,0.5l-0.2,2.5c-1-0.5-2.1-0.8-3.3-0.8
		c-2-0.1-3.8,1.5-3.9,3.5c0,0.1,0,0.2,0,0.3c0,2.2,1.7,3.6,4.1,3.6c1,0,2.1-0.2,3.1-0.5L452.8,243.3z"/>
	<polygon id="polygon6824" class="st3" points="454.4,232 463.1,232 463.1,234.1 457.7,234.1 457.7,236.5 462.8,236.5 462.8,238.7 
		457.7,238.7 457.7,241.3 463.4,241.3 463.4,243.6 454.4,243.6 	"/>
	<polygon id="polygon6826" class="st7" points="454.4,232 463.1,232 463.1,234.1 457.7,234.1 457.7,236.5 462.8,236.5 462.8,238.7 
		457.7,238.7 457.7,241.3 463.4,241.3 463.4,243.6 454.4,243.6 	"/>
</g>
<g class="st10">
	<path class="st3" d="M264.3,447.7v8.6h-3.5v-21.4h6c2.8,0,4.8,0.5,6.1,1.6s2,2.6,2,4.7c0,2.7-1.4,4.6-4.2,5.7l6,9.5h-4l-5.1-8.6
		H264.3z M264.3,444.8h2.4c1.6,0,2.8-0.3,3.5-0.9s1.1-1.5,1.1-2.7c0-1.2-0.4-2.1-1.2-2.6s-2-0.8-3.6-0.8h-2.3V444.8z"/>
	<path class="st3" d="M288.4,456.2h-3.5v-18.4h-6.3v-3h16.1v3h-6.3V456.2z"/>
	<path class="st3" d="M308,437.5c-2,0-3.6,0.7-4.7,2.1s-1.7,3.4-1.7,5.9c0,2.6,0.6,4.6,1.7,6s2.7,2,4.8,2c0.9,0,1.8-0.1,2.6-0.3
		c0.8-0.2,1.7-0.4,2.7-0.7v3c-1.7,0.6-3.6,1-5.7,1c-3.1,0-5.5-0.9-7.2-2.8c-1.7-1.9-2.5-4.6-2.5-8.2c0-2.2,0.4-4.2,1.2-5.8
		s2-2.9,3.5-3.8s3.4-1.3,5.4-1.3c2.2,0,4.2,0.5,6.1,1.4l-1.3,2.9c-0.7-0.3-1.5-0.6-2.3-0.9S308.9,437.5,308,437.5z"/>
	<path class="st3" d="M332.2,456.2l-2.1-5.9h-8.2l-2.1,5.9h-3.7l8-21.5h3.8l8,21.5H332.2z M329.2,447.3l-2-5.8
		c-0.1-0.4-0.3-1-0.6-1.8s-0.4-1.5-0.5-1.8c-0.3,1.2-0.6,2.5-1.2,3.9l-1.9,5.6H329.2z"/>
	<path class="st3" d="M355.9,456.2h-3.5v-18.4h-6.3v-3h16.1v3h-6.3V456.2z"/>
	<path class="st3" d="M374.4,439.7c0.7,0,1.3,0,1.7,0.1l-0.3,3.2c-0.5-0.1-1-0.2-1.5-0.2c-1.4,0-2.5,0.4-3.3,1.3s-1.3,2.1-1.3,3.5
		v8.5h-3.4V440h2.7l0.5,2.9h0.2c0.5-1,1.2-1.7,2.1-2.3S373.4,439.7,374.4,439.7z"/>
	<path class="st3" d="M390.2,456.2l-0.7-2.3h-0.1c-0.8,1-1.6,1.7-2.4,2c-0.8,0.4-1.8,0.5-3,0.5c-1.6,0-2.8-0.4-3.7-1.3
		s-1.3-2.1-1.3-3.6c0-1.7,0.6-2.9,1.9-3.8s3.1-1.3,5.7-1.4l2.8-0.1v-0.9c0-1-0.2-1.8-0.7-2.3c-0.5-0.5-1.2-0.8-2.2-0.8
		c-0.8,0-1.6,0.1-2.4,0.4s-1.5,0.5-2.2,0.9l-1.1-2.5c0.9-0.5,1.8-0.8,2.9-1s2-0.4,3-0.4c2.1,0,3.6,0.4,4.7,1.3s1.6,2.3,1.6,4.2v10.9
		H390.2z M385.1,453.9c1.2,0,2.3-0.3,3-1s1.1-1.7,1.1-2.9v-1.4l-2.1,0.1c-1.6,0.1-2.8,0.3-3.5,0.8c-0.7,0.5-1.1,1.2-1.1,2.2
		c0,0.7,0.2,1.3,0.6,1.7C383.6,453.7,384.2,453.9,385.1,453.9z"/>
	<path class="st3" d="M398.3,435.7c0-0.6,0.2-1.1,0.5-1.4s0.8-0.5,1.4-0.5c0.6,0,1.1,0.2,1.4,0.5s0.5,0.8,0.5,1.4
		c0,0.6-0.2,1-0.5,1.4c-0.3,0.3-0.8,0.5-1.4,0.5c-0.6,0-1.1-0.2-1.4-0.5C398.4,436.8,398.3,436.3,398.3,435.7z M401.9,456.2h-3.4
		V440h3.4V456.2z"/>
	<path class="st3" d="M411.3,456.2h-3.4v-22.8h3.4V456.2z"/>
	<path class="st3" d="M443.7,445.3c0,3.5-1,6.2-2.9,8.1s-4.8,2.8-8.5,2.8h-6v-21.4h6.6c3.4,0,6.1,0.9,8,2.8S443.7,442,443.7,445.3z
		 M440,445.4c0-5.1-2.4-7.7-7.2-7.7h-3v15.5h2.5C437.5,453.3,440,450.7,440,445.4z"/>
	<path class="st3" d="M456,456.5c-2.5,0-4.5-0.7-5.9-2.2c-1.4-1.5-2.1-3.5-2.1-6.1c0-2.6,0.7-4.7,2-6.2s3.1-2.3,5.4-2.3
		c2.1,0,3.8,0.6,5.1,1.9s1.9,3.1,1.9,5.4v1.9h-10.8c0,1.6,0.5,2.8,1.3,3.6c0.8,0.8,1.9,1.3,3.4,1.3c1,0,1.8-0.1,2.7-0.3
		c0.8-0.2,1.7-0.5,2.7-0.9v2.8c-0.8,0.4-1.7,0.7-2.5,0.8S457.1,456.5,456,456.5z M455.4,442.3c-1.1,0-2,0.3-2.6,1s-1.1,1.7-1.2,3
		h7.4c0-1.3-0.3-2.4-1-3C457.4,442.7,456.5,442.3,455.4,442.3z"/>
	<path class="st3" d="M478.1,451.6c0,1.6-0.6,2.8-1.7,3.6c-1.2,0.8-2.8,1.3-5,1.3c-2.2,0-3.9-0.3-5.2-1v-3c1.9,0.9,3.7,1.3,5.3,1.3
		c2.1,0,3.2-0.6,3.2-1.9c0-0.4-0.1-0.8-0.4-1s-0.6-0.6-1.2-0.8s-1.3-0.6-2.2-1c-1.9-0.7-3.1-1.4-3.8-2.2s-1-1.7-1-2.8
		c0-1.4,0.6-2.5,1.7-3.2s2.6-1.2,4.6-1.2c1.9,0,3.7,0.4,5.4,1.2l-1.1,2.6c-1.7-0.7-3.2-1.1-4.4-1.1c-1.8,0-2.7,0.5-2.7,1.6
		c0,0.5,0.2,0.9,0.7,1.3s1.5,0.8,3.1,1.5c1.3,0.5,2.3,1,2.9,1.4s1.1,0.9,1.3,1.5C478,450.2,478.1,450.8,478.1,451.6z"/>
	<path class="st3" d="M482.6,435.7c0-0.6,0.2-1.1,0.5-1.4s0.8-0.5,1.4-0.5c0.6,0,1.1,0.2,1.4,0.5s0.5,0.8,0.5,1.4
		c0,0.6-0.2,1-0.5,1.4c-0.3,0.3-0.8,0.5-1.4,0.5c-0.6,0-1.1-0.2-1.4-0.5C482.8,436.8,482.6,436.3,482.6,435.7z M486.3,456.2h-3.4
		V440h3.4V456.2z"/>
	<path class="st3" d="M505.9,440v1.9l-2.8,0.5c0.3,0.3,0.5,0.8,0.6,1.3s0.2,1,0.2,1.6c0,1.7-0.6,3-1.7,3.9s-2.7,1.4-4.8,1.4
		c-0.5,0-1,0-1.4-0.1c-0.7,0.5-1.1,1-1.1,1.6c0,0.4,0.2,0.6,0.5,0.8s1,0.3,1.9,0.3h2.8c1.8,0,3.1,0.4,4.1,1.1s1.4,1.9,1.4,3.3
		c0,1.8-0.8,3.3-2.3,4.2s-3.7,1.5-6.6,1.5c-2.2,0-3.9-0.4-5.1-1.2s-1.7-1.9-1.7-3.3c0-1,0.3-1.8,0.9-2.5c0.6-0.7,1.5-1.2,2.6-1.4
		c-0.5-0.2-0.8-0.5-1.1-0.9c-0.3-0.4-0.4-0.9-0.4-1.4c0-0.6,0.2-1.1,0.5-1.5s0.8-0.8,1.5-1.2c-0.8-0.4-1.5-0.9-2-1.8
		c-0.5-0.8-0.8-1.8-0.8-2.9c0-1.8,0.6-3.1,1.7-4.1s2.7-1.5,4.7-1.5c0.5,0,0.9,0,1.4,0.1s0.9,0.1,1.1,0.2H505.9z M493.1,458.8
		c0,0.7,0.3,1.3,1,1.7s1.6,0.6,2.8,0.6c1.9,0,3.3-0.3,4.2-0.8s1.4-1.2,1.4-2.1c0-0.7-0.3-1.2-0.8-1.5c-0.5-0.3-1.4-0.4-2.8-0.4h-2.6
		c-1,0-1.8,0.2-2.4,0.7S493.1,458,493.1,458.8z M494.6,445.3c0,1,0.3,1.8,0.8,2.3s1.3,0.8,2.2,0.8c2,0,3-1.1,3-3.2
		c0-1.1-0.2-1.9-0.7-2.4c-0.5-0.6-1.2-0.9-2.2-0.9c-1,0-1.8,0.3-2.3,0.8S494.6,444.2,494.6,445.3z"/>
	<path class="st3" d="M524.1,456.2h-3.5v-10c0-1.2-0.3-2.2-0.8-2.8s-1.3-0.9-2.4-0.9c-1.5,0-2.5,0.4-3.2,1.3s-1,2.3-1,4.3v8.1h-3.4
		V440h2.7l0.5,2.1h0.2c0.5-0.8,1.2-1.4,2.1-1.8s1.9-0.6,3-0.6c3.9,0,5.8,2,5.8,5.9V456.2z"/>
</g>
</svg>
