<?xml version="1.0" encoding="utf-8"?>
<!-- Generator: Adobe Illustrator 19.2.1, SVG Export Plug-In . SVG Version: 6.00 Build 0)  -->
<svg version="1.1" id="Layer_1" xmlns="http://www.w3.org/2000/svg" xmlns:xlink="http://www.w3.org/1999/xlink" x="0px" y="0px"
	 viewBox="0 0 792 593.2" style="enable-background:new 0 0 792 593.2;" xml:space="preserve">
<style type="text/css">
	.st0{fill:#0277BD;}
	.st1{fill:#FFFFFF;}
	.st2{opacity:0.8;fill:#03A9F4;enable-background:new    ;}
	.st3{opacity:0.4;fill:#03A9F4;enable-background:new    ;}
	.st4{fill:none;}
	.st5{enable-background:new    ;}
</style>
<rect class="st0" width="792" height="593.5"/>
<g>
	<rect x="263.5" y="110.8" class="st1" width="273.7" height="248.4"/>
	<rect x="231.2" y="122.4" class="st2" width="329.6" height="76.5"/>
	<rect x="252.9" y="199.1" class="st3" width="286.1" height="66.4"/>
	<rect x="439.3" y="99.7" class="st2" width="76.5" height="281.7"/>
	<rect x="372.9" y="109.4" class="st3" width="66.4" height="272"/>
	<path class="st0" d="M220.8,91.6v299.1h350.4V91.6H220.8z M466.7,284.9c-19.5,16.7-43,25-70.6,25c-9.7,0-18.3-1-25.9-3l-10.9,9.8
		h-0.1c-0.7,0.5-1.2,0.9-1.7,1.3c-10.2,6.5-21,9.7-32.3,9.6c-0.7,0-1.2-0.1-1.4-0.4c-0.4-0.5-0.7-1.1-0.8-1.7c0-0.5,0.1-1,0.4-1.5
		c5.5-7.4,9.2-15.1,11.3-23.1l-0.1,0.4l1.3-8.7c-12.1-8-21.4-17.7-28.1-29.1c-7.7-12.5-11.6-25.8-11.6-40c0-23.8,9.8-44.2,29.5-61.1
		c8.4-7.2,17.4-12.9,27-17.1c13.1-5.6,27.6-8.5,43.5-8.5c27.6,0,51.1,8.5,70.6,25.5c19.5,16.9,29.3,37.3,29.3,61.1
		S486.2,267.7,466.7,284.9z"/>
</g>
<rect x="260" y="397" class="st4" width="272" height="55"/>
<g class="st5">
	<path class="st1" d="M312.7,413.8c0,3.5-0.9,6.3-2.6,8.2s-4.3,2.9-7.6,2.9s-5.8-1-7.6-2.9s-2.6-4.6-2.6-8.2s0.9-6.3,2.6-8.2
		c1.8-1.9,4.3-2.8,7.6-2.8s5.8,0.9,7.6,2.8S312.7,410.2,312.7,413.8z M297.1,413.8c0,2.4,0.5,4.2,1.4,5.4s2.3,1.8,4.1,1.8
		c3.6,0,5.4-2.4,5.4-7.2c0-4.8-1.8-7.2-5.4-7.2c-1.8,0-3.2,0.6-4.1,1.8C297.5,409.6,297.1,411.4,297.1,413.8z"/>
	<path class="st1" d="M321.7,416.3v8.2h-4.5v-21.4h6.2c2.9,0,5.1,0.5,6.5,1.6s2.1,2.7,2.1,4.8c0,1.3-0.3,2.4-1,3.4s-1.7,1.8-2.9,2.3
		c3.2,4.8,5.3,7.9,6.3,9.3h-5l-5.1-8.2L321.7,416.3L321.7,416.3z M321.7,412.6h1.5c1.4,0,2.5-0.2,3.2-0.7s1-1.2,1-2.3
		c0-1-0.3-1.7-1-2.2s-1.8-0.6-3.2-0.6h-1.4v5.8H321.7z"/>
	<path class="st1" d="M350.9,424.5H335v-2.9l10.3-14.7h-10v-3.8h15.4v2.9l-10.3,14.7h10.5V424.5z"/>
	<path class="st1" d="M373.8,413.8c0,3.5-0.9,6.3-2.6,8.2s-4.3,2.9-7.6,2.9s-5.8-1-7.6-2.9s-2.6-4.6-2.6-8.2s0.9-6.3,2.6-8.2
		c1.8-1.9,4.3-2.8,7.6-2.8s5.8,0.9,7.6,2.8S373.8,410.2,373.8,413.8z M358.1,413.8c0,2.4,0.5,4.2,1.4,5.4s2.3,1.8,4.1,1.8
		c3.6,0,5.4-2.4,5.4-7.2c0-4.8-1.8-7.2-5.4-7.2c-1.8,0-3.2,0.6-4.1,1.8C358.6,409.6,358.1,411.4,358.1,413.8z"/>
	<path class="st1" d="M395.1,406.6c-1.7,0-3,0.6-4,1.9s-1.4,3.1-1.4,5.4c0,4.8,1.8,7.2,5.4,7.2c1.5,0,3.3-0.4,5.5-1.1v3.8
		c-1.8,0.7-3.7,1.1-5.9,1.1c-3.1,0-5.5-0.9-7.1-2.8c-1.7-1.9-2.5-4.6-2.5-8.1c0-2.2,0.4-4.2,1.2-5.9c0.8-1.7,2-3,3.5-3.9
		s3.3-1.3,5.3-1.3c2.1,0,4.2,0.5,6.3,1.5l-1.5,3.7c-0.8-0.4-1.6-0.7-2.4-1S395.9,406.6,395.1,406.6z"/>
	<path class="st1" d="M422.7,424.5h-4.5v-9.2h-8.5v9.2h-4.5v-21.4h4.5v8.4h8.5v-8.4h4.5V424.5z"/>
	<path class="st1" d="M441.2,424.5l-1.6-5.1h-7.8l-1.6,5.1h-4.9l7.6-21.5h5.6l7.6,21.5H441.2z M438.5,415.6
		c-1.4-4.6-2.2-7.2-2.4-7.8s-0.3-1.1-0.4-1.4c-0.3,1.2-1.2,4.3-2.8,9.3h5.6V415.6z"/>
	<path class="st1" d="M457,424.5h-4.5v-17.6h-5.8v-3.8h16.2v3.8H457V424.5z"/>
	<path class="st1" d="M487,424.5l-1.6-5.1h-7.8l-1.6,5.1h-4.9l7.6-21.5h5.6l7.6,21.5H487z M484.4,415.6c-1.4-4.6-2.2-7.2-2.4-7.8
		s-0.3-1.1-0.4-1.4c-0.3,1.2-1.2,4.3-2.8,9.3h5.6V415.6z"/>
	<path class="st1" d="M509.4,409.8c0,2.3-0.7,4.1-2.2,5.3s-3.5,1.8-6.1,1.8h-1.9v7.6h-4.5v-21.4h6.8c2.6,0,4.6,0.6,5.9,1.7
		S509.4,407.5,509.4,409.8z M499.2,413.2h1.5c1.4,0,2.4-0.3,3.1-0.8c0.7-0.6,1-1.4,1-2.4c0-1.1-0.3-1.9-0.9-2.4s-1.5-0.8-2.7-0.8
		h-2.1v6.4H499.2z"/>
	<path class="st1" d="M528.3,409.8c0,2.3-0.7,4.1-2.2,5.3s-3.5,1.8-6.1,1.8h-2v7.6h-4.5v-21.4h6.8c2.6,0,4.6,0.6,5.9,1.7
		S528.3,407.5,528.3,409.8z M518,413.2h1.5c1.4,0,2.4-0.3,3.1-0.8c0.7-0.6,1-1.4,1-2.4c0-1.1-0.3-1.9-0.9-2.4s-1.5-0.8-2.7-0.8h-2
		V413.2z"/>
</g>
</svg>
