<?xml version="1.0" encoding="utf-8"?>
<!-- Generator: Adobe Illustrator 19.2.1, SVG Export Plug-In . SVG Version: 6.00 Build 0)  -->
<svg version="1.1" id="Layer_1" xmlns="http://www.w3.org/2000/svg" xmlns:xlink="http://www.w3.org/1999/xlink" x="0px" y="0px"
	 viewBox="0 0 792 593.2" style="enable-background:new 0 0 792 593.2;" xml:space="preserve">
<style type="text/css">
	.st0{fill:#80CBC4;}
	.st1{fill:#FFFFFF;}
	.st2{fill:#26A69A;}
	.st3{fill:#79CDCD;}
	.st4{fill:#97CE8B;}
	.st5{fill:none;}
	.st6{enable-background:new    ;}
</style>
<rect class="st0" width="792" height="593.2"/>
<path class="st1" d="M225.6,305.5c-9-1.5-23.3-7.7-29.5-14.6c-7.4-8.4-12.1-20.1-12.1-32.9c0-12.9,4.6-24.5,12.1-32.9
	c7.6-8.4,17.9-13.7,29.5-13.7c11.5,0,21.9,5.2,29.5,13.7c7.6,8.4,12.1,20.1,12.1,32.9c0,12.9-4.6,24.5-12.1,32.9
	C249.1,297.6,234.1,303.9,225.6,305.5"/>
<path class="st2" d="M222.6,365.5c1-51.4,3.2-70.2-17.8-102.1c-0.6-0.9-0.4-2.2,0.5-2.8c0.9-0.6,2.2-0.5,2.8,0.5
	c8.5,12.3,14,24.1,17.3,36.3c1.6-9.2,4.1-18.9,7.7-27.7c3.7-9.2,0.5-18.7-7.8-26.7c-0.7-0.7-0.9-2.1,0-2.8c0.7-0.7,2.1-0.9,2.8,0
	c5.2,5.1,8.8,10.5,11,17.6c2.7-4.5,5.9-8.3,9.4-11c0.9-0.7,2.1-0.5,2.8,0.4c0.7,0.9,0.5,2.1-0.4,2.8c-27.4,30.7-19.7,71-20.3,116
	h-8.2L222.6,365.5L222.6,365.5z"/>
<path class="st1" d="M320,325.4c-5.6-0.9-14.4-4.7-18.2-9c-4.6-5.2-7.4-12.4-7.4-20.3s2.8-15.1,7.4-20.3c4.6-5.2,11-8.4,18.1-8.4
	s13.5,3.2,18.1,8.4s7.4,12.4,7.4,20.3s-2.8,15.1-7.4,20.3C334.5,320.5,325.3,324.3,320,325.4"/>
<path class="st2" d="M318.2,362.3c0.6-31.7,2-43.2-11-63c-0.4-0.6-0.2-1.4,0.4-1.7s1.4-0.2,1.7,0.2c5.3,7.6,8.5,14.9,10.6,22.3
	c1-5.7,2.5-11.6,4.7-17.1c2.2-5.6,0.2-11.5-4.8-16.5c-0.5-0.5-0.5-1.2,0-1.7s1.2-0.5,1.7,0c3.2,3.1,5.4,6.6,6.8,10.8
	c1.7-2.7,3.6-5.1,5.8-6.8c0.5-0.4,1.4-0.4,1.7,0.2c0.4,0.5,0.4,1.4-0.2,1.7c-16.8,18.9-12.1,43.8-12.5,71.4L318.2,362.3L318.2,362.3
	z"/>
<g>
	<rect x="390.4" y="266.6" class="st5" width="206.7" height="101.3"/>
	<g class="st6">
		<path class="st1" d="M414.9,263.9c0,3.1-1.1,5.5-3.3,7.3s-5.3,2.7-9.3,2.7c-3.7,0-6.9-0.7-9.7-2.1v-6.8c2.3,1,4.3,1.8,5.9,2.2
			s3.1,0.6,4.4,0.6c1.6,0,2.8-0.3,3.7-0.9s1.3-1.5,1.3-2.7c0-0.7-0.2-1.3-0.6-1.8s-0.9-1-1.7-1.5s-2.2-1.3-4.4-2.3
			c-2.1-1-3.7-1.9-4.7-2.8s-1.9-2-2.5-3.2s-0.9-2.6-0.9-4.2c0-3,1-5.4,3.1-7.1s4.9-2.6,8.5-2.6c1.8,0,3.5,0.2,5.1,0.6s3.3,1,5.1,1.8
			l-2.3,5.6c-1.8-0.8-3.3-1.3-4.5-1.6s-2.4-0.4-3.5-0.4c-1.4,0-2.4,0.3-3.2,1s-1.1,1.5-1.1,2.5c0,0.6,0.1,1.2,0.4,1.7
			s0.8,0.9,1.4,1.4s2.2,1.2,4.6,2.4c3.2,1.5,5.4,3.1,6.6,4.6S414.9,261.7,414.9,263.9z"/>
		<path class="st1" d="M458.6,239.1v22.2c0,2.5-0.6,4.8-1.7,6.7s-2.8,3.4-4.9,4.4s-4.7,1.5-7.6,1.5c-4.4,0-7.8-1.1-10.3-3.4
			s-3.7-5.3-3.7-9.3v-22.1h7.2v21c0,2.6,0.5,4.6,1.6,5.8s2.8,1.9,5.3,1.9c2.4,0,4.1-0.6,5.2-1.9s1.6-3.2,1.6-5.8v-20.9H458.6z"/>
		<path class="st1" d="M507,273.4h-9.2l-14.9-25.9h-0.2c0.3,4.6,0.4,7.8,0.4,9.8v16.1h-6.5v-34.3h9.2l14.9,25.7h0.2
			c-0.2-4.5-0.4-7.6-0.4-9.4v-16.2h6.5V273.4z"/>
		<path class="st1" d="M555.6,273.4h-9.2l-14.9-25.9h-0.2c0.3,4.6,0.4,7.8,0.4,9.8v16.1h-6.5v-34.3h9.2l14.9,25.7h0.2
			c-0.2-4.5-0.4-7.6-0.4-9.4v-16.2h6.5V273.4z"/>
		<path class="st1" d="M584.5,253.3l7.1-14.1h7.8l-11.4,20.9v13.3h-7.2v-13.1l-11.4-21.2h7.9L584.5,253.3z"/>
	</g>
	<g class="st6">
		<path class="st1" d="M405.5,332.3c0,1.9-0.7,3.4-2.1,4.5s-3.3,1.6-5.7,1.6s-4.4-0.4-5.9-1.1V334c1,0.5,2,0.8,3.1,1.1
			s2.1,0.4,3.1,0.4c1.4,0,2.4-0.3,3.1-0.8s1-1.2,1-2.1c0-0.8-0.3-1.5-0.9-2s-1.9-1.2-3.8-2c-2-0.8-3.3-1.7-4.1-2.7s-1.2-2.2-1.2-3.7
			c0-1.8,0.6-3.2,1.9-4.2s3-1.5,5.1-1.5c2.1,0,4.1,0.4,6.1,1.3l-1.1,2.9c-1.9-0.8-3.6-1.2-5.1-1.2c-1.1,0-2,0.2-2.6,0.7
			s-0.9,1.1-0.9,2c0,0.6,0.1,1,0.4,1.4c0.2,0.4,0.6,0.8,1.2,1.1s1.5,0.8,2.9,1.4c1.6,0.7,2.7,1.3,3.5,1.8s1.3,1.2,1.6,1.9
			S405.5,331.3,405.5,332.3z"/>
		<path class="st1" d="M423,338.1h-3.5v-10c0-1.2-0.2-2.2-0.7-2.8s-1.2-0.9-2.2-0.9c-1.3,0-2.3,0.4-2.9,1.3
			c-0.6,0.9-0.9,2.3-0.9,4.3v8.1h-3.4v-16.2h2.7l0.5,2.1h0.2c0.4-0.8,1.1-1.4,2-1.8s1.8-0.6,2.8-0.6c2.5,0,4.1,0.8,5,2.5h0.2
			c0.5-0.8,1.2-1.4,2-1.9s1.9-0.7,3-0.7c1.9,0,3.3,0.5,4.2,1.5s1.3,2.5,1.3,4.5v10.6h-3.4v-10c0-1.2-0.2-2.2-0.7-2.8
			s-1.2-0.9-2.2-0.9c-1.3,0-2.3,0.4-2.9,1.3c-0.6,0.8-0.9,2.1-0.9,3.8V338.1z"/>
		<path class="st1" d="M448.1,338.1l-0.7-2.3h-0.1c-0.8,1-1.6,1.7-2.4,2c-0.8,0.4-1.8,0.5-3,0.5c-1.6,0-2.8-0.4-3.7-1.3
			s-1.3-2.1-1.3-3.6c0-1.7,0.6-2.9,1.9-3.8s3.1-1.3,5.7-1.4l2.8-0.1v-0.9c0-1-0.2-1.8-0.7-2.3c-0.5-0.5-1.2-0.8-2.2-0.8
			c-0.8,0-1.6,0.1-2.4,0.4s-1.5,0.5-2.2,0.9l-1.1-2.5c0.9-0.5,1.8-0.8,2.9-1s2-0.4,3-0.4c2.1,0,3.6,0.4,4.7,1.3s1.6,2.3,1.6,4.2
			v10.9H448.1z M443,335.8c1.2,0,2.3-0.3,3-1s1.1-1.7,1.1-2.9v-1.4l-2.1,0.1c-1.6,0.1-2.8,0.3-3.5,0.8c-0.7,0.5-1.1,1.2-1.1,2.2
			c0,0.7,0.2,1.3,0.6,1.7C441.5,335.6,442.1,335.8,443,335.8z"/>
		<path class="st1" d="M463.6,321.6c0.7,0,1.3,0,1.7,0.1L465,325c-0.5-0.1-1-0.2-1.5-0.2c-1.4,0-2.5,0.4-3.3,1.3s-1.3,2.1-1.3,3.5
			v8.5h-3.4v-16.2h2.7l0.5,2.9h0.2c0.5-1,1.2-1.7,2.1-2.3S462.6,321.6,463.6,321.6z"/>
		<path class="st1" d="M474.4,335.6c0.8,0,1.7-0.1,2.5-0.4v2.6c-0.4,0.2-0.9,0.3-1.5,0.4c-0.6,0.1-1.2,0.2-1.9,0.2
			c-3.3,0-4.9-1.7-4.9-5.2v-8.7h-2.2V323l2.4-1.3l1.2-3.4h2.1v3.6h4.6v2.6h-4.6v8.7c0,0.8,0.2,1.4,0.6,1.8
			C473.1,335.4,473.7,335.6,474.4,335.6z"/>
		<path class="st1" d="M493.4,338.1l-2.1-7.6c-0.3-0.8-0.7-2.7-1.4-5.6h-0.1c-0.6,2.6-1,4.5-1.3,5.6l-2.2,7.5h-3.8l-4.5-16.2h3.5
			l2.1,8c0.5,2,0.8,3.7,1,5.1h0.1c0.1-0.7,0.2-1.5,0.4-2.5c0.2-0.9,0.4-1.6,0.5-2.1l2.5-8.5h3.8l2.4,8.5c0.1,0.5,0.3,1.2,0.5,2.2
			s0.3,1.8,0.4,2.3h0.1c0.1-1.2,0.5-2.9,1-5l2.1-8h3.5l-4.6,16.2H493.4z"/>
		<path class="st1" d="M514.8,338.1l-0.7-2.3H514c-0.8,1-1.6,1.7-2.4,2c-0.8,0.4-1.8,0.5-3,0.5c-1.6,0-2.8-0.4-3.7-1.3
			s-1.3-2.1-1.3-3.6c0-1.7,0.6-2.9,1.9-3.8s3.1-1.3,5.7-1.4l2.8-0.1v-0.9c0-1-0.2-1.8-0.7-2.3c-0.5-0.5-1.2-0.8-2.2-0.8
			c-0.8,0-1.6,0.1-2.4,0.4s-1.5,0.5-2.2,0.9l-1.1-2.5c0.9-0.5,1.8-0.8,2.9-1s2-0.4,3-0.4c2.1,0,3.6,0.4,4.7,1.3s1.6,2.3,1.6,4.2
			v10.9H514.8z M509.6,335.8c1.2,0,2.3-0.3,3-1s1.1-1.7,1.1-2.9v-1.4l-2.1,0.1c-1.6,0.1-2.8,0.3-3.5,0.8c-0.7,0.5-1.1,1.2-1.1,2.2
			c0,0.7,0.2,1.3,0.6,1.7C508.1,335.6,508.8,335.8,509.6,335.8z"/>
		<path class="st1" d="M528.1,335.6c0.8,0,1.7-0.1,2.5-0.4v2.6c-0.4,0.2-0.9,0.3-1.5,0.4c-0.6,0.1-1.2,0.2-1.9,0.2
			c-3.3,0-4.9-1.7-4.9-5.2v-8.7h-2.2V323l2.4-1.3l1.2-3.4h2.1v3.6h4.6v2.6h-4.6v8.7c0,0.8,0.2,1.4,0.6,1.8
			C526.8,335.4,527.4,335.6,528.1,335.6z"/>
		<path class="st1" d="M540.3,338.4c-2.5,0-4.3-0.7-5.6-2.1c-1.3-1.4-1.9-3.5-1.9-6.2c0-2.7,0.7-4.8,2-6.3s3.3-2.2,5.8-2.2
			c1.7,0,3.2,0.3,4.6,1l-1,2.8c-1.5-0.6-2.7-0.8-3.6-0.8c-2.8,0-4.2,1.9-4.2,5.6c0,1.8,0.3,3.2,1,4.1s1.7,1.4,3.1,1.4
			c1.5,0,3-0.4,4.4-1.1v3c-0.6,0.4-1.3,0.6-2,0.8S541.3,338.4,540.3,338.4z"/>
		<path class="st1" d="M562.9,338.1h-3.5v-10c0-1.2-0.3-2.2-0.8-2.8s-1.3-0.9-2.4-0.9c-1.4,0-2.5,0.4-3.2,1.3c-0.7,0.9-1,2.3-1,4.3
			v8h-3.4v-22.8h3.4v5.8c0,0.9-0.1,1.9-0.2,3h0.2c0.5-0.8,1.1-1.4,2-1.8s1.8-0.6,2.9-0.6c3.9,0,5.9,2,5.9,5.9V338.1z"/>
		<path class="st1" d="M589.2,338.1l-2.1-5.9h-8.2l-2.1,5.9H573l8-21.5h3.8l8,21.5H589.2z M586.1,329.2l-2-5.8
			c-0.1-0.4-0.3-1-0.6-1.8s-0.4-1.5-0.5-1.8c-0.3,1.2-0.6,2.5-1.2,3.9l-1.9,5.6H586.1z"/>
		<path class="st1" d="M609.9,323.2c0,2.2-0.7,4-2.2,5.1s-3.5,1.8-6.3,1.8h-2.2v8h-3.5v-21.4h6.2c2.7,0,4.7,0.5,6,1.6
			S609.9,321,609.9,323.2z M599.2,327.2h1.9c1.8,0,3.1-0.3,4-0.9s1.3-1.6,1.3-2.9c0-1.2-0.4-2.1-1.1-2.8s-1.9-0.9-3.5-0.9h-2.4
			V327.2z"/>
		<path class="st1" d="M628.3,323.2c0,2.2-0.7,4-2.2,5.1s-3.5,1.8-6.3,1.8h-2.2v8h-3.5v-21.4h6.2c2.7,0,4.7,0.5,6,1.6
			S628.3,321,628.3,323.2z M617.7,327.2h1.9c1.8,0,3.1-0.3,4-0.9s1.3-1.6,1.3-2.9c0-1.2-0.4-2.1-1.1-2.8s-1.9-0.9-3.5-0.9h-2.4
			V327.2z"/>
	</g>
</g>
</svg>
