<?xml version="1.0" encoding="utf-8"?>
<!-- Generator: Adobe Illustrator 19.2.1, SVG Export Plug-In . SVG Version: 6.00 Build 0)  -->
<svg version="1.1" id="Layer_1" xmlns="http://www.w3.org/2000/svg" xmlns:xlink="http://www.w3.org/1999/xlink" x="0px" y="0px"
	 viewBox="0 0 792 593.2" style="enable-background:new 0 0 792 593.2;" xml:space="preserve">
<style type="text/css">
	.st0{fill:#9E9E9E;}
	.st1{fill:none;}
	.st2{enable-background:new    ;}
	.st3{fill:#FFFFFF;}
	.st4{fill:none;stroke:#D6F6FE;stroke-width:6;stroke-miterlimit:10;}
	.st5{fill:#28CBFA;}
	.st6{opacity:0.6;fill:none;stroke:#FFFFFF;stroke-width:6;stroke-miterlimit:10;enable-background:new    ;}
</style>
<rect x="-22.9" y="-24.4" class="st0" width="832.4" height="650.9"/>
<g>
	<rect x="436.3" y="239.7" class="st1" width="206.7" height="101.3"/>
	<g class="st2">
		<path class="st3" d="M452.8,262.1h-7.3v-28.2h-9.3v-6h25.9v6h-9.3V262.1z"/>
		<path class="st3" d="M497.2,227.8V250c0,2.5-0.6,4.8-1.7,6.7s-2.8,3.4-4.9,4.4s-4.7,1.5-7.6,1.5c-4.4,0-7.8-1.1-10.3-3.4
			s-3.7-5.3-3.7-9.3v-22.1h7.2v21c0,2.6,0.5,4.6,1.6,5.8s2.8,1.9,5.3,1.9c2.4,0,4.1-0.6,5.2-1.9s1.6-3.2,1.6-5.8v-20.9H497.2z"/>
		<path class="st3" d="M520.8,262.1h-7.3v-28.2h-9.3v-6h25.9v6h-9.3V262.1z"/>
		<path class="st3" d="M550.6,262.1h-7.3v-28.2H534v-6h25.9v6h-9.3V262.1z"/>
		<path class="st3" d="M567.1,262.1v-34.3h7.3v34.3H567.1z"/>
	</g>
	<g class="st2">
		<path class="st3" d="M448.4,316.2l-6.2-17.9H442c0.2,2.7,0.2,5.1,0.2,7.5v10.4h-3.2v-21.4h4.9l5.9,17h0.1l6.1-17h5v21.4h-3.4
			v-10.6c0-1.1,0-2.5,0.1-4.2s0.1-2.7,0.1-3.1h-0.1l-6.4,17.9H448.4z"/>
		<path class="st3" d="M480.8,308.1c0,2.6-0.7,4.7-2,6.2s-3.2,2.2-5.7,2.2c-1.5,0-2.9-0.3-4-1s-2.1-1.7-2.7-2.9s-0.9-2.8-0.9-4.5
			c0-2.6,0.7-4.7,2-6.2s3.2-2.2,5.7-2.2c2.3,0,4.2,0.8,5.6,2.3C480.1,303.5,480.8,305.6,480.8,308.1z M469,308.1
			c0,3.7,1.4,5.6,4.1,5.6c2.7,0,4.1-1.9,4.1-5.6c0-3.7-1.4-5.6-4.1-5.6c-1.4,0-2.5,0.5-3.1,1.4S469,306.3,469,308.1z"/>
		<path class="st3" d="M490.8,313.8c0.8,0,1.7-0.1,2.5-0.4v2.6c-0.4,0.2-0.9,0.3-1.5,0.4c-0.6,0.1-1.2,0.2-1.9,0.2
			c-3.3,0-4.9-1.7-4.9-5.2v-8.7h-2.2v-1.5l2.4-1.3l1.2-3.4h2.1v3.6h4.6v2.6h-4.6v8.7c0,0.8,0.2,1.4,0.6,1.8
			C489.6,313.6,490.1,313.8,490.8,313.8z"/>
		<path class="st3" d="M496.3,295.8c0-0.6,0.2-1.1,0.5-1.4s0.8-0.5,1.4-0.5c0.6,0,1.1,0.2,1.4,0.5s0.5,0.8,0.5,1.4
			c0,0.6-0.2,1-0.5,1.4c-0.3,0.3-0.8,0.5-1.4,0.5c-0.6,0-1.1-0.2-1.4-0.5C496.5,296.8,496.3,296.3,496.3,295.8z M500,316.2h-3.4V300
			h3.4V316.2z"/>
		<path class="st3" d="M519.3,308.1c0,2.6-0.7,4.7-2,6.2s-3.2,2.2-5.7,2.2c-1.5,0-2.9-0.3-4-1s-2.1-1.7-2.7-2.9s-0.9-2.8-0.9-4.5
			c0-2.6,0.7-4.7,2-6.2s3.2-2.2,5.7-2.2c2.3,0,4.2,0.8,5.6,2.3C518.6,303.5,519.3,305.6,519.3,308.1z M507.5,308.1
			c0,3.7,1.4,5.6,4.1,5.6c2.7,0,4.1-1.9,4.1-5.6c0-3.7-1.4-5.6-4.1-5.6c-1.4,0-2.5,0.5-3.1,1.4S507.5,306.3,507.5,308.1z"/>
		<path class="st3" d="M537.5,316.2H534v-10c0-1.2-0.3-2.2-0.8-2.8s-1.3-0.9-2.4-0.9c-1.5,0-2.5,0.4-3.2,1.3s-1,2.3-1,4.3v8.1h-3.4
			V300h2.7l0.5,2.1h0.2c0.5-0.8,1.2-1.4,2.1-1.8s1.9-0.6,3-0.6c3.9,0,5.8,2,5.8,5.9V316.2z"/>
	</g>
	<g class="st2">
		<path class="st3" d="M456.5,354.3c0,3.5-1,6.2-2.9,8.1s-4.8,2.8-8.5,2.8h-6v-21.4h6.6c3.4,0,6.1,0.9,8,2.8S456.5,351,456.5,354.3z
			 M452.8,354.4c0-5.1-2.4-7.7-7.2-7.7h-3v15.5h2.5C450.3,362.3,452.8,359.7,452.8,354.4z"/>
		<path class="st3" d="M467.8,365.5c-2.5,0-4.5-0.7-5.9-2.2c-1.4-1.5-2.1-3.5-2.1-6.1c0-2.6,0.7-4.7,2-6.2s3.1-2.3,5.4-2.3
			c2.1,0,3.8,0.6,5.1,1.9s1.9,3.1,1.9,5.4v1.9h-10.8c0,1.6,0.5,2.8,1.3,3.6c0.8,0.8,1.9,1.3,3.4,1.3c1,0,1.8-0.1,2.7-0.3
			c0.8-0.2,1.7-0.5,2.7-0.9v2.8c-0.8,0.4-1.7,0.7-2.5,0.8S468.9,365.5,467.8,365.5z M467.2,351.4c-1.1,0-2,0.3-2.6,1s-1.1,1.7-1.2,3
			h7.4c0-1.3-0.3-2.4-1-3C469.2,351.7,468.3,351.4,467.2,351.4z"/>
		<path class="st3" d="M488.9,360.6c0,1.6-0.6,2.8-1.7,3.6c-1.2,0.8-2.8,1.3-5,1.3c-2.2,0-3.9-0.3-5.2-1v-3c1.9,0.9,3.7,1.3,5.3,1.3
			c2.1,0,3.2-0.6,3.2-1.9c0-0.4-0.1-0.8-0.4-1s-0.6-0.6-1.2-0.8s-1.3-0.6-2.2-1c-1.9-0.7-3.1-1.4-3.8-2.2s-1-1.7-1-2.8
			c0-1.4,0.6-2.5,1.7-3.2s2.6-1.2,4.6-1.2c1.9,0,3.7,0.4,5.4,1.2l-1.1,2.6c-1.7-0.7-3.2-1.1-4.4-1.1c-1.8,0-2.7,0.5-2.7,1.6
			c0,0.5,0.2,0.9,0.7,1.3s1.5,0.8,3.1,1.5c1.3,0.5,2.3,1,2.9,1.4s1.1,0.9,1.3,1.5C488.8,359.2,488.9,359.8,488.9,360.6z"/>
		<path class="st3" d="M492.4,344.8c0-0.6,0.2-1.1,0.5-1.4s0.8-0.5,1.4-0.5c0.6,0,1.1,0.2,1.4,0.5s0.5,0.8,0.5,1.4
			c0,0.6-0.2,1-0.5,1.4c-0.3,0.3-0.8,0.5-1.4,0.5c-0.6,0-1.1-0.2-1.4-0.5C492.6,345.8,492.4,345.3,492.4,344.8z M496.1,365.2h-3.4
			V349h3.4V365.2z"/>
		<path class="st3" d="M514.7,349v1.9l-2.8,0.5c0.3,0.3,0.5,0.8,0.6,1.3s0.2,1,0.2,1.6c0,1.7-0.6,3-1.7,3.9s-2.7,1.4-4.8,1.4
			c-0.5,0-1,0-1.4-0.1c-0.7,0.5-1.1,1-1.1,1.6c0,0.4,0.2,0.6,0.5,0.8s1,0.3,1.9,0.3h2.8c1.8,0,3.1,0.4,4.1,1.1s1.4,1.9,1.4,3.3
			c0,1.8-0.8,3.3-2.3,4.2s-3.7,1.5-6.6,1.5c-2.2,0-3.9-0.4-5.1-1.2s-1.7-1.9-1.7-3.3c0-1,0.3-1.8,0.9-2.5c0.6-0.7,1.5-1.2,2.6-1.4
			c-0.5-0.2-0.8-0.5-1.1-0.9c-0.3-0.4-0.4-0.9-0.4-1.4c0-0.6,0.2-1.1,0.5-1.5s0.8-0.8,1.5-1.2c-0.8-0.4-1.5-0.9-2-1.8
			c-0.5-0.8-0.8-1.8-0.8-2.9c0-1.8,0.6-3.1,1.7-4.1s2.7-1.5,4.7-1.5c0.5,0,0.9,0,1.4,0.1s0.9,0.1,1.1,0.2H514.7z M502,367.8
			c0,0.7,0.3,1.3,1,1.7s1.6,0.6,2.8,0.6c1.9,0,3.3-0.3,4.2-0.8s1.4-1.2,1.4-2.1c0-0.7-0.3-1.2-0.8-1.5c-0.5-0.3-1.4-0.4-2.8-0.4
			h-2.6c-1,0-1.8,0.2-2.4,0.7S502,367,502,367.8z M503.4,354.3c0,1,0.3,1.8,0.8,2.3s1.3,0.8,2.2,0.8c2,0,3-1.1,3-3.2
			c0-1.1-0.2-1.9-0.7-2.4c-0.5-0.6-1.2-0.9-2.2-0.9c-1,0-1.8,0.3-2.3,0.8S503.4,353.2,503.4,354.3z"/>
		<path class="st3" d="M532,365.2h-3.5v-10c0-1.2-0.3-2.2-0.8-2.8s-1.3-0.9-2.4-0.9c-1.5,0-2.5,0.4-3.2,1.3s-1,2.3-1,4.3v8.1h-3.4
			V349h2.7l0.5,2.1h0.2c0.5-0.8,1.2-1.4,2.1-1.8s1.9-0.6,3-0.6c3.9,0,5.8,2,5.8,5.9V365.2z"/>
	</g>
</g>
<path class="st6" d="M351.3,276.3c22.1,11.8,45.1,4.4,59.8-22"/>
<path class="st6" d="M257.6,276.3c-37.1,9.4-32.7,47.6-7.7,48.6"/>
<line class="st6" x1="283.2" y1="323.1" x2="283.2" y2="370.9"/>
<line class="st6" x1="320.9" y1="321.5" x2="320.9" y2="369.4"/>
<polygon class="st3" points="304.1,203.3 373.4,253.7 346.9,335.3 261.2,335.3 234.7,253.7 "/>
<g>
	<circle class="st0" cx="289.4" cy="265.9" r="4.2"/>
	<circle class="st0" cx="316.8" cy="265.9" r="4.2"/>
</g>
</svg>
