<?xml version="1.0" encoding="utf-8"?>
<!-- Generator: Adobe Illustrator 19.2.1, SVG Export Plug-In . SVG Version: 6.00 Build 0)  -->
<svg version="1.1" id="Layer_1" xmlns="http://www.w3.org/2000/svg" xmlns:xlink="http://www.w3.org/1999/xlink" x="0px" y="0px"
	 viewBox="0 0 792 593.2" style="enable-background:new 0 0 792 593.2;" xml:space="preserve">
<style type="text/css">
	.st0{fill:#4DB6AC;}
	.st1{fill:none;}
	.st2{enable-background:new    ;}
	.st3{fill:#FFFFFF;}
</style>
<rect class="st0" width="792" height="593.2"/>
<rect x="418.8" y="246.5" class="st1" width="162.7" height="112.8"/>
<g class="st2">
	<path class="st3" d="M446.4,242.6h3.6l-7.5,21.4h-3.7l-7.5-21.4h3.6l4.5,13.3c0.2,0.6,0.5,1.5,0.7,2.5s0.4,1.7,0.5,2.2
		c0.1-0.7,0.3-1.6,0.6-2.6s0.5-1.7,0.6-2.2L446.4,242.6z"/>
	<path class="st3" d="M454.3,264v-21.4h3.5V264H454.3z"/>
	<path class="st3" d="M477.3,258.2c0,1.9-0.7,3.4-2.1,4.5s-3.3,1.6-5.7,1.6s-4.4-0.4-5.9-1.1v-3.3c1,0.5,2,0.8,3.1,1.1
		s2.1,0.4,3.1,0.4c1.4,0,2.4-0.3,3.1-0.8s1-1.2,1-2.1c0-0.8-0.3-1.5-0.9-2s-1.9-1.2-3.8-2c-2-0.8-3.3-1.7-4.1-2.7s-1.2-2.2-1.2-3.7
		c0-1.8,0.6-3.2,1.9-4.2s3-1.5,5.1-1.5c2.1,0,4.1,0.4,6.1,1.3l-1.1,2.9c-1.9-0.8-3.6-1.2-5.1-1.2c-1.1,0-2,0.2-2.6,0.7
		s-0.9,1.1-0.9,2c0,0.6,0.1,1,0.4,1.4c0.2,0.4,0.6,0.8,1.2,1.1s1.5,0.8,2.9,1.4c1.6,0.7,2.7,1.3,3.5,1.8s1.3,1.2,1.6,1.9
		S477.3,257.2,477.3,258.2z"/>
	<path class="st3" d="M499.8,242.6v13.9c0,1.6-0.3,3-1,4.2c-0.7,1.2-1.7,2.1-2.9,2.7s-2.8,1-4.6,1c-2.7,0-4.7-0.7-6.2-2.1
		s-2.2-3.3-2.2-5.8v-13.8h3.5v13.5c0,1.8,0.4,3.1,1.2,3.9s2.1,1.3,3.8,1.3c3.3,0,5-1.7,5-5.2v-13.5H499.8z"/>
	<path class="st3" d="M520,264l-2.1-5.9h-8.2l-2.1,5.9h-3.7l8-21.5h3.8l8,21.5H520z M517,255l-2-5.8c-0.1-0.4-0.3-1-0.6-1.8
		s-0.4-1.5-0.5-1.8c-0.3,1.2-0.6,2.5-1.2,3.9l-1.9,5.6H517z"/>
	<path class="st3" d="M528.1,264v-21.4h3.5V261h9.1v3H528.1z"/>
</g>
<g class="st2">
	<path class="st3" d="M451.6,298.5c0,3.5-1,6.2-2.9,8.1s-4.8,2.8-8.5,2.8h-6V288h6.6c3.4,0,6.1,0.9,8,2.8S451.6,295.1,451.6,298.5z
		 M447.9,298.6c0-5.1-2.4-7.7-7.2-7.7h-3v15.5h2.5C445.3,306.4,447.9,303.8,447.9,298.6z"/>
	<path class="st3" d="M469.8,309.4h-12.1V288h12.1v3h-8.6v5.8h8.1v2.9h-8.1v6.7h8.6V309.4z"/>
	<path class="st3" d="M488.3,303.6c0,1.9-0.7,3.4-2.1,4.5s-3.3,1.6-5.7,1.6s-4.4-0.4-5.9-1.1v-3.3c1,0.5,2,0.8,3.1,1.1
		s2.1,0.4,3.1,0.4c1.4,0,2.4-0.3,3.1-0.8s1-1.2,1-2.1c0-0.8-0.3-1.5-0.9-2s-1.9-1.2-3.8-2c-2-0.8-3.3-1.7-4.1-2.7s-1.2-2.2-1.2-3.7
		c0-1.8,0.6-3.2,1.9-4.2s3-1.5,5.1-1.5c2.1,0,4.1,0.4,6.1,1.3l-1.1,2.9c-1.9-0.8-3.6-1.2-5.1-1.2c-1.1,0-2,0.2-2.6,0.7
		s-0.9,1.1-0.9,2c0,0.6,0.1,1,0.4,1.4c0.2,0.4,0.6,0.8,1.2,1.1s1.5,0.8,2.9,1.4c1.6,0.7,2.7,1.3,3.5,1.8s1.3,1.2,1.6,1.9
		S488.3,302.6,488.3,303.6z"/>
	<path class="st3" d="M493.9,309.4V288h3.5v21.4H493.9z"/>
	<path class="st3" d="M513.3,297.8h7.9v10.8c-1.3,0.4-2.5,0.7-3.7,0.9s-2.5,0.3-3.8,0.3c-3.2,0-5.7-1-7.5-2.9
		c-1.8-1.9-2.6-4.6-2.6-8.1c0-3.4,1-6.1,3-8.1c2-1.9,4.7-2.9,8.2-2.9c2.2,0,4.4,0.4,6.4,1.3l-1.2,2.9c-1.7-0.8-3.5-1.2-5.2-1.2
		c-2.3,0-4.1,0.7-5.4,2.2s-2,3.4-2,5.9c0,2.6,0.6,4.6,1.8,6c1.2,1.4,2.9,2,5.2,2c1.1,0,2.3-0.1,3.6-0.4v-5.5h-4.4V297.8z"/>
	<path class="st3" d="M545.7,309.4h-4.3l-10.5-17.1h-0.1l0.1,1c0.1,1.8,0.2,3.5,0.2,5v11.1h-3.2V288h4.2l10.5,17h0.1
		c0-0.2-0.1-1-0.1-2.5c-0.1-1.4-0.1-2.5-0.1-3.3V288h3.2V309.4z"/>
</g>
<g class="st2">
	<path class="st3" d="M453.9,353.8h-3.8l-3.6-12.8c-0.2-0.6-0.4-1.4-0.6-2.4c-0.2-1-0.4-1.8-0.4-2.2c-0.1,0.6-0.3,1.4-0.5,2.4
		s-0.4,1.7-0.5,2.2l-3.5,12.7h-3.8l-2.8-10.7l-2.8-10.7h3.6l3.1,12.5c0.5,2,0.8,3.8,1,5.3c0.1-0.8,0.3-1.8,0.5-2.8s0.4-1.9,0.6-2.5
		l3.5-12.5h3.5l3.6,12.6c0.3,1.2,0.7,2.9,1.1,5.2c0.1-1.4,0.5-3.2,1.1-5.3l3-12.5h3.5L453.9,353.8z"/>
	<path class="st3" d="M481.5,343c0,3.5-0.9,6.2-2.6,8.1s-4.2,2.9-7.4,2.9c-3.2,0-5.7-1-7.4-2.9c-1.7-1.9-2.6-4.6-2.6-8.2
		s0.9-6.2,2.6-8.1s4.2-2.8,7.5-2.8c3.2,0,5.6,1,7.4,2.9S481.5,339.5,481.5,343z M465.2,343c0,2.6,0.5,4.6,1.6,6c1.1,1.4,2.6,2,4.7,2
		c2.1,0,3.7-0.7,4.7-2s1.6-3.4,1.6-6c0-2.6-0.5-4.6-1.6-6s-2.6-2-4.7-2c-2.1,0-3.7,0.7-4.8,2S465.2,340.4,465.2,343z"/>
	<path class="st3" d="M489.6,345.2v8.6h-3.5v-21.4h6c2.8,0,4.8,0.5,6.1,1.6s2,2.6,2,4.7c0,2.7-1.4,4.6-4.2,5.7l6,9.5h-4l-5.1-8.6
		H489.6z M489.6,342.3h2.4c1.6,0,2.8-0.3,3.5-0.9s1.1-1.5,1.1-2.7c0-1.2-0.4-2.1-1.2-2.6s-2-0.8-3.6-0.8h-2.3V342.3z"/>
	<path class="st3" d="M521.7,353.8h-4.1l-6.7-9.7l-2.1,1.7v8h-3.5v-21.4h3.5v10.2c1-1.2,1.9-2.3,2.9-3.4l5.8-6.8h4
		c-3.7,4.4-6.4,7.5-8,9.4L521.7,353.8z"/>
	<path class="st3" d="M536.8,348c0,1.9-0.7,3.4-2.1,4.5s-3.3,1.6-5.7,1.6s-4.4-0.4-5.9-1.1v-3.3c1,0.5,2,0.8,3.1,1.1
		s2.1,0.4,3.1,0.4c1.4,0,2.4-0.3,3.1-0.8s1-1.2,1-2.1c0-0.8-0.3-1.5-0.9-2s-1.9-1.2-3.8-2c-2-0.8-3.3-1.7-4.1-2.7s-1.2-2.2-1.2-3.7
		c0-1.8,0.6-3.2,1.9-4.2s3-1.5,5.1-1.5c2.1,0,4.1,0.4,6.1,1.3l-1.1,2.9c-1.9-0.8-3.6-1.2-5.1-1.2c-1.1,0-2,0.2-2.6,0.7
		s-0.9,1.1-0.9,2c0,0.6,0.1,1,0.4,1.4c0.2,0.4,0.6,0.8,1.2,1.1s1.5,0.8,2.9,1.4c1.6,0.7,2.7,1.3,3.5,1.8s1.3,1.2,1.6,1.9
		S536.8,347,536.8,348z"/>
</g>
<path class="st3" d="M286.3,238.8h-22c-4,0-7.3,3.9-7.3,8.5v102.1c0,4.7,3.3,8.5,7.3,8.5h22c4,0,7.3-3.9,7.3-8.5V247.3
	C293.6,242.7,290.4,238.8,286.3,238.8z M388.7,238.8h-22c-4,0-7.3,3.9-7.3,8.5v102.1c0,4.7,3.3,8.5,7.3,8.5h22c4,0,7.3-3.9,7.3-8.5
	V247.3C396,242.7,392.7,238.8,388.7,238.8z M337.5,238.8h-22c-4,0-7.3,3.9-7.3,8.5v102.1c0,4.7,3.3,8.5,7.3,8.5h22
	c4,0,7.3-3.9,7.3-8.5V247.3C344.8,242.7,341.6,238.8,337.5,238.8z"/>
</svg>
