<?xml version="1.0" encoding="utf-8"?>
<!-- Generator: Adobe Illustrator 19.2.1, SVG Export Plug-In . SVG Version: 6.00 Build 0)  -->
<svg version="1.1" id="Layer_1" xmlns="http://www.w3.org/2000/svg" xmlns:xlink="http://www.w3.org/1999/xlink" x="0px" y="0px"
	 viewBox="0 0 792 593.2" style="enable-background:new 0 0 792 593.2;" xml:space="preserve">
<style type="text/css">
	.st0{fill:#FF5722;}
	.st1{clip-path:url(#SVGID_2_);}
	.st2{clip-path:url(#SVGID_8_);}
	.st3{clip-path:url(#SVGID_9_);}
	.st4{clip-path:url(#SVGID_10_);}
	.st5{clip-path:url(#SVGID_11_);}
	.st6{clip-path:url(#SVGID_12_);fill:#FFFFFF;}
	.st7{clip-path:url(#SVGID_2_);fill:#FF5722;}
	.st8{fill:#FFFFFF;}
	.st9{font-family:'OpenSans';}
	.st10{font-size:32px;}
</style>
<rect class="st0" width="792" height="593.2"/>
<g>
	<g>
		<g>
			<defs>
				<rect id="SVGID_1_" x="272.3" y="205.5" width="247.3" height="112.2"/>
			</defs>
			<clipPath id="SVGID_2_">
				<use xlink:href="#SVGID_1_"  style="overflow:visible;"/>
			</clipPath>
			<g class="st1">
				<g>
					<g>
						<defs>
							<rect id="SVGID_3_" x="272.3" y="205.5" width="247.3" height="112.2"/>
						</defs>
						<defs>
							<rect id="SVGID_4_" x="272.3" y="205.5" width="247.3" height="112.2"/>
						</defs>
						<defs>
							<rect id="SVGID_5_" x="272.3" y="205.5" width="247.3" height="112.2"/>
						</defs>
						<defs>
							<rect id="SVGID_6_" x="272.3" y="205.5" width="247.3" height="112.2"/>
						</defs>
						<defs>
							<rect id="SVGID_7_" x="272.3" y="205.5" width="247.3" height="112.2"/>
						</defs>
						<clipPath id="SVGID_8_">
							<use xlink:href="#SVGID_3_"  style="overflow:visible;"/>
						</clipPath>
						<clipPath id="SVGID_9_" class="st2">
							<use xlink:href="#SVGID_4_"  style="overflow:visible;"/>
						</clipPath>
						<clipPath id="SVGID_10_" class="st3">
							<use xlink:href="#SVGID_5_"  style="overflow:visible;"/>
						</clipPath>
						<clipPath id="SVGID_11_" class="st4">
							<use xlink:href="#SVGID_6_"  style="overflow:visible;"/>
						</clipPath>
						<clipPath id="SVGID_12_" class="st5">
							<use xlink:href="#SVGID_7_"  style="overflow:visible;"/>
						</clipPath>
						<path class="st6" d="M488.4,307.9v-2.6h1.9c1.3,0,1.6,0.4,1.6,1.2c0,0.8-0.3,1.4-1.8,1.4 M489.8,309.5c0.6,0.1,1.1,0,1.5,0.4
							c0.5,0.5,0.5,1.3,0.6,2.2c0.1,0.7,0.3,1.3,0.3,1.8h2.1c-0.3-0.9-0.5-2-0.7-2.9c-0.2-1.1-0.3-1.8-1.8-2v-0.1
							c1.3-0.3,2.1-1.2,2.1-2.4c0-2.4-1.9-2.8-3.9-2.8h-3.3V314h1.6v-4.5L489.8,309.5L489.8,309.5z M490.3,317.7
							c4.9,0,8.7-3.9,8.7-8.8c0-4.8-3.9-8.7-8.7-8.7c-4.9,0-8.8,3.9-8.8,8.7C481.4,313.8,485.4,317.7,490.3,317.7 M490.3,316.2
							c-4,0-7.2-3.3-7.2-7.2s3.2-7.2,7.2-7.2s7.2,3.3,7.2,7.2C497.4,312.9,494.2,316.2,490.3,316.2"/>
						<path class="st6" d="M475.5,229.5h-14v14h14c3.4,0,6,2.7,6,6c0,3.4-2.7,6-6,6h-14v14h14c11.1,0,20.1-9,20.1-20.1
							C495.6,238.6,486.6,229.5,475.5,229.5 M395.5,303.7c16.8,0,31.3-9.8,38-24.1h17.9v24.1h10v-24h14c16.6,0,30.1-13.5,30.1-30.1
							c0-16.6-13.5-30.1-30.1-30.1h-24v36.1h-14.3c-2.9-20.3-20.4-36.1-41.7-36.1h-49.3L297,303.7h11.8l14-24.1h50.5v24.1H395.5
							L395.5,303.7z M519.7,249.6c0,24.4-19.7,44.1-44.1,44.1v24h-38.1V299c-10.3,11.5-25.2,18.7-41.9,18.7h-36.2v-24.1h-28.3
							l-14,24h-44.5l65.3-112.2h57.7c16.7,0,31.6,7.2,41.9,18.7v-18.7h38.1C499.8,205.5,519.7,225.2,519.7,249.6 M359.3,229.5v26
							h-22.3l-8.1,14h44.6v-40.1H359.3z M427.6,261.6c0,17.7-14.4,32.1-32.1,32.1h-12.2v-14h12.2c10,0,18.1-8.1,18.1-18.1
							s-8.1-18.1-18.1-18.1h-12.2v-14h12.2C413.2,229.5,427.6,243.9,427.6,261.6"/>
					</g>
				</g>
			</g>
			<rect x="480.8" y="299.5" class="st7" width="54.5" height="36.5"/>
		</g>
	</g>
	<text transform="matrix(1 0 0 1 239.3361 410.4014)" class="st8 st9 st10">UX Design Internship</text>
</g>
</svg>
