<?xml version="1.0" encoding="utf-8"?>
<!-- Generator: Adobe Illustrator 19.2.1, SVG Export Plug-In . SVG Version: 6.00 Build 0)  -->
<svg version="1.1" id="Layer_1" xmlns="http://www.w3.org/2000/svg" xmlns:xlink="http://www.w3.org/1999/xlink" x="0px" y="0px"
	 viewBox="0 0 792 593.2" style="enable-background:new 0 0 792 593.2;" xml:space="preserve">
<style type="text/css">
	.st0{fill:#E0E0E0;}
	.st1{fill:#FF5722;}
	.st2{fill:#FFFFFF;}
	.st3{fill:none;}
	.st4{font-family:'OpenSans-Bold';}
	.st5{font-size:28.6106px;}
	.st6{font-family:'OpenSans-Semibold';}
	.st7{font-size:27px;}
</style>
<rect class="st0" width="792" height="593.2"/>
<rect x="-109.6" y="346.9" class="st0" width="79.4" height="62.2"/>
<rect x="-123.2" y="226" class="st1" width="80.1" height="68.9"/>
<path class="st2" d="M338.3,251.6v-51.9c-1-0.1-2-0.1-3.1-0.1c-26.6,0-48.2,21.6-48.2,48.2s21.6,48.2,48.2,48.2
	c25.3,0,46.1-19.5,48-44.3L338.3,251.6L338.3,251.6z"/>
<polygon class="st2" points="473.1,241.1 430.9,198.9 430.2,198.9 430.2,285.3 516.6,285.3 516.6,198.9 515.4,198.9 "/>
<rect x="259.5" y="358.6" class="st3" width="272" height="55"/>
<text transform="matrix(1 0 0 1 287.1199 378.3075)" class="st2 st4 st5">GUAVA MOTION</text>
<text transform="matrix(1 0 0 1 290.1198 426.8009)" class="st2 st6 st7">FITNESS TRACKER</text>
</svg>
