<?xml version="1.0" encoding="utf-8"?>
<!-- Generator: Adobe Illustrator 19.2.1, SVG Export Plug-In . SVG Version: 6.00 Build 0)  -->
<svg version="1.1" id="Layer_1" xmlns="http://www.w3.org/2000/svg" xmlns:xlink="http://www.w3.org/1999/xlink" x="0px" y="0px"
	 viewBox="0 0 792 593.2" style="enable-background:new 0 0 792 593.2;" xml:space="preserve">
<style type="text/css">
	.st0{fill:#80DEEA;}
	.st1{fill:#FFFFFF;}
	.st2{fill:none;}
	.st3{font-family:'OpenSans-Bold';}
	.st4{font-size:48px;}
	.st5{font-family:'OpenSans';}
	.st6{font-size:30px;}
</style>
<rect x="-8.4" y="-6" class="st0" width="811.5" height="607.6"/>
<g>
	<polygon class="st1" points="316.5,301.6 314.5,309.5 360.1,321.1 362.1,313.1 343.9,308.5 382.4,297.7 380,290 328.2,304.5 	"/>
	<polygon class="st1" points="370.3,334.5 317.9,321 309.4,312.7 303.7,318.5 337.3,351.4 343.1,345.6 329.8,332.6 368.3,342.5 	"/>
	<polygon class="st1" points="234.5,339 240.4,344.8 253.4,331.5 243.5,370 251.5,372 264.9,319.6 273.2,311.2 267.3,305.4 	"/>
	<polygon class="st1" points="276.4,316.3 264.9,361.8 272.6,363.9 277.4,345.7 288.2,384.1 296,381.8 281.5,329.9 284.4,318.2 	"/>
	<polygon class="st1" points="218,341.3 255.6,302.6 267,299.3 264.9,291.5 219.6,304.3 221.7,312.2 239.7,307.1 212,335.5 	"/>
	<polygon class="st1" points="297.6,318.9 289.8,321.1 302.4,366.4 310.5,364.2 305.4,346 333.8,374 339.6,368 300.8,330.3 	"/>
	<polygon class="st1" points="286.6,268.8 294.5,266.6 281.7,221.3 273.8,223.5 278.9,241.5 250.4,213.7 244.7,219.7 283.4,257.3 	
		"/>
	<polygon class="st1" points="274.8,274.9 280.5,269.2 246.7,236.2 241.1,242.1 254.5,255.1 216,245.2 214,253.2 266.3,266.7 	"/>
	<polygon class="st1" points="256,283.2 267.6,286.1 269.7,278.1 224,266.6 222.1,274.5 240.3,279.2 202,290 204.2,297.7 	"/>
	<polygon class="st1" points="311,276.5 316.8,282.3 349.7,248.7 343.9,242.8 330.7,256.2 340.7,217.6 332.6,215.7 319.3,268 	"/>
	<polygon class="st1" points="299.7,269.5 307.8,271.4 311,258.8 319.4,225.9 311.4,223.8 306.8,242 296,203.6 288.2,205.9 
		302.8,257.8 	"/>
	<polygon class="st1" points="317.2,288.3 319.3,296.2 364.7,283.4 362.5,275.5 344.4,280.6 372.2,252.2 366.2,246.4 328.6,285.1 	
		"/>
</g>
<g>
	<rect x="435.2" y="237.9" class="st2" width="206.7" height="101.3"/>
	<text transform="matrix(1 0 0 1 434.1824 260.2121)" class="st1 st3 st4">ITASA</text>
	<text transform="matrix(1 0 0 1 435.1824 314.3935)" class="st1 st5 st6">Motion </text>
	<text transform="matrix(1 0 0 1 435.1824 363.3935)" class="st1 st5 st6">Design</text>
</g>
</svg>
