<?xml version="1.0" encoding="utf-8"?>
<!-- Generator: Adobe Illustrator 19.2.1, SVG Export Plug-In . SVG Version: 6.00 Build 0)  -->
<svg version="1.1" id="Layer_1" xmlns="http://www.w3.org/2000/svg" xmlns:xlink="http://www.w3.org/1999/xlink" x="0px" y="0px"
	 viewBox="0 0 792 593.2" style="enable-background:new 0 0 792 593.2;" xml:space="preserve">
<style type="text/css">
	.st0{fill:#FFEB3B;}
	.st1{fill:none;}
	.st2{enable-background:new    ;}
	.st3{fill:#FFFFFF;}
</style>
<rect x="-22.9" y="-24.4" class="st0" width="832.4" height="650.9"/>
<g>
	<rect x="424.8" y="251.7" class="st1" width="206.7" height="101.3"/>
	<g class="st2">
		<path class="st3" d="M436.2,267.5h-7.1v-34.3h19.6v6h-12.5v8.8h11.6v5.9h-11.6V267.5z"/>
		<path class="st3" d="M477.6,267.5l-2.5-8.2h-12.5l-2.5,8.2h-7.8l12.1-34.4h8.9l12.1,34.4H477.6z M473.4,253.3
			c-2.3-7.4-3.6-11.6-3.9-12.5s-0.5-1.7-0.6-2.3c-0.5,2-2,6.9-4.4,14.8H473.4z"/>
		<path class="st3" d="M505.5,267.5l-8.2-26.9h-0.2c0.3,5.5,0.4,9.1,0.4,10.9v15.9H491v-34.3h9.9l8.1,26.2h0.1l8.6-26.2h9.9v34.3
			h-6.8v-16.2c0-0.8,0-1.6,0-2.6s0.1-3.7,0.3-8H521l-8.8,26.8H505.5z"/>
		<path class="st3" d="M552.1,238.8c-2.7,0-4.9,1-6.4,3.1s-2.2,4.9-2.2,8.6c0,7.6,2.9,11.5,8.6,11.5c2.4,0,5.3-0.6,8.7-1.8v6.1
			c-2.8,1.2-6,1.8-9.4,1.8c-5,0-8.8-1.5-11.4-4.5s-4-7.4-4-13c0-3.6,0.6-6.7,1.9-9.4s3.2-4.7,5.6-6.2s5.3-2.1,8.5-2.1
			c3.3,0,6.7,0.8,10,2.4l-2.3,5.9c-1.3-0.6-2.6-1.1-3.9-1.6S553.3,238.8,552.1,238.8z"/>
		<path class="st3" d="M590.4,267.5l-2.5-8.2h-12.5l-2.5,8.2h-7.8l12.1-34.4h8.9l12.1,34.4H590.4z M586.1,253.3
			c-2.3-7.4-3.6-11.6-3.9-12.5s-0.5-1.7-0.6-2.3c-0.5,2-2,6.9-4.4,14.8H586.1z"/>
		<path class="st3" d="M618.2,267.5l-8.2-26.9h-0.2c0.3,5.5,0.4,9.1,0.4,10.9v15.9h-6.5v-34.3h9.9l8.1,26.2h0.1l8.6-26.2h9.9v34.3
			h-6.8v-16.2c0-0.8,0-1.6,0-2.6s0.1-3.7,0.3-8h-0.2l-8.8,26.8H618.2z"/>
	</g>
	<g class="st2">
		<path class="st3" d="M440.9,322.2l-2.1-5.9h-8.2l-2.1,5.9h-3.7l8-21.5h3.8l8,21.5H440.9z M437.8,313.3l-2-5.8
			c-0.1-0.4-0.3-1-0.6-1.8s-0.4-1.5-0.5-1.8c-0.3,1.2-0.6,2.5-1.2,3.9l-1.9,5.6H437.8z"/>
		<path class="st3" d="M462.1,322.2h-3.5v-10c0-1.2-0.3-2.2-0.8-2.8s-1.3-0.9-2.4-0.9c-1.5,0-2.5,0.4-3.2,1.3s-1,2.3-1,4.3v8.1h-3.4
			V306h2.7l0.5,2.1h0.2c0.5-0.8,1.2-1.4,2.1-1.8s1.9-0.6,3-0.6c3.9,0,5.8,2,5.8,5.9V322.2z"/>
		<path class="st3" d="M473.1,322.5c-2,0-3.6-0.7-4.7-2.2s-1.7-3.5-1.7-6.2c0-2.7,0.6-4.7,1.7-6.2c1.1-1.5,2.7-2.2,4.8-2.2
			c2.1,0,3.8,0.8,4.9,2.4h0.2c-0.2-1.2-0.2-2.1-0.2-2.8v-5.9h3.5v22.8h-2.7l-0.6-2.1h-0.2C476.8,321.7,475.2,322.5,473.1,322.5z
			 M474,319.8c1.4,0,2.4-0.4,3.1-1.2s1-2.1,1-3.9v-0.5c0-2-0.3-3.5-1-4.4s-1.7-1.3-3.1-1.3c-1.2,0-2.1,0.5-2.8,1.5
			c-0.7,1-1,2.4-1,4.2c0,1.8,0.3,3.2,1,4.1C471.8,319.3,472.7,319.8,474,319.8z"/>
		<path class="st3" d="M495.3,305.7c0.7,0,1.3,0,1.7,0.1l-0.3,3.2c-0.5-0.1-1-0.2-1.5-0.2c-1.4,0-2.5,0.4-3.3,1.3s-1.3,2.1-1.3,3.5
			v8.5H487V306h2.7l0.5,2.9h0.2c0.5-1,1.2-1.7,2.1-2.3S494.3,305.7,495.3,305.7z"/>
		<path class="st3" d="M515.1,314.1c0,2.6-0.7,4.7-2,6.2s-3.2,2.2-5.7,2.2c-1.5,0-2.9-0.3-4-1s-2.1-1.7-2.7-2.9s-0.9-2.8-0.9-4.5
			c0-2.6,0.7-4.7,2-6.2s3.2-2.2,5.7-2.2c2.3,0,4.2,0.8,5.6,2.3C514.4,309.5,515.1,311.6,515.1,314.1z M503.3,314.1
			c0,3.7,1.4,5.6,4.1,5.6c2.7,0,4.1-1.9,4.1-5.6c0-3.7-1.4-5.6-4.1-5.6c-1.4,0-2.5,0.5-3.1,1.4S503.3,312.3,503.3,314.1z"/>
		<path class="st3" d="M519.6,301.8c0-0.6,0.2-1.1,0.5-1.4s0.8-0.5,1.4-0.5c0.6,0,1.1,0.2,1.4,0.5s0.5,0.8,0.5,1.4
			c0,0.6-0.2,1-0.5,1.4c-0.3,0.3-0.8,0.5-1.4,0.5c-0.6,0-1.1-0.2-1.4-0.5C519.8,302.8,519.6,302.3,519.6,301.8z M523.2,322.2h-3.4
			V306h3.4V322.2z"/>
		<path class="st3" d="M534.4,322.5c-2,0-3.6-0.7-4.7-2.2s-1.7-3.5-1.7-6.2c0-2.7,0.6-4.7,1.7-6.2c1.1-1.5,2.7-2.2,4.8-2.2
			c2.1,0,3.8,0.8,4.9,2.4h0.2c-0.2-1.2-0.2-2.1-0.2-2.8v-5.9h3.5v22.8H540l-0.6-2.1h-0.2C538.1,321.7,536.5,322.5,534.4,322.5z
			 M535.3,319.8c1.4,0,2.4-0.4,3.1-1.2s1-2.1,1-3.9v-0.5c0-2-0.3-3.5-1-4.4s-1.7-1.3-3.1-1.3c-1.2,0-2.1,0.5-2.8,1.5
			c-0.7,1-1,2.4-1,4.2c0,1.8,0.3,3.2,1,4.1C533.1,319.3,534,319.8,535.3,319.8z"/>
		<path class="st3" d="M570.6,322.2l-2.1-5.9h-8.2l-2.1,5.9h-3.7l8-21.5h3.8l8,21.5H570.6z M567.5,313.3l-2-5.8
			c-0.1-0.4-0.3-1-0.6-1.8s-0.4-1.5-0.5-1.8c-0.3,1.2-0.6,2.5-1.2,3.9l-1.9,5.6H567.5z"/>
		<path class="st3" d="M585.7,322.5c-2.1,0-3.6-0.7-4.8-2.2h-0.2c0.1,1.4,0.2,2.2,0.2,2.5v6.6h-3.4V306h2.8c0.1,0.3,0.2,1,0.5,2.2
			h0.2c1.1-1.6,2.7-2.5,4.8-2.5c2,0,3.6,0.7,4.7,2.2s1.7,3.5,1.7,6.2s-0.6,4.7-1.7,6.2S587.7,322.5,585.7,322.5z M584.9,308.6
			c-1.4,0-2.4,0.4-3,1.2s-0.9,2.1-0.9,3.8v0.5c0,2,0.3,3.4,0.9,4.3c0.6,0.9,1.6,1.3,3.1,1.3c1.2,0,2.1-0.5,2.8-1.5s1-2.4,1-4.2
			c0-1.8-0.3-3.2-1-4.1C587,309,586.1,308.6,584.9,308.6z"/>
		<path class="st3" d="M605.1,322.5c-2.1,0-3.6-0.7-4.8-2.2h-0.2c0.1,1.4,0.2,2.2,0.2,2.5v6.6h-3.4V306h2.8c0.1,0.3,0.2,1,0.5,2.2
			h0.2c1.1-1.6,2.7-2.5,4.8-2.5c2,0,3.6,0.7,4.7,2.2s1.7,3.5,1.7,6.2s-0.6,4.7-1.7,6.2S607.2,322.5,605.1,322.5z M604.3,308.6
			c-1.4,0-2.4,0.4-3,1.2s-0.9,2.1-0.9,3.8v0.5c0,2,0.3,3.4,0.9,4.3c0.6,0.9,1.6,1.3,3.1,1.3c1.2,0,2.1-0.5,2.8-1.5s1-2.4,1-4.2
			c0-1.8-0.3-3.2-1-4.1C606.5,309,605.6,308.6,604.3,308.6z"/>
	</g>
	<g class="st2">
		<path class="st3" d="M445,351.1c0,3.5-1,6.2-2.9,8.1s-4.8,2.8-8.5,2.8h-6v-21.4h6.6c3.4,0,6.1,0.9,8,2.8S445,347.8,445,351.1z
			 M441.3,351.2c0-5.1-2.4-7.7-7.2-7.7h-3v15.5h2.5C438.7,359.1,441.3,356.5,441.3,351.2z"/>
		<path class="st3" d="M457.1,362.3c-2.5,0-4.5-0.7-5.9-2.2c-1.4-1.5-2.1-3.5-2.1-6.1c0-2.6,0.7-4.7,2-6.2s3.1-2.3,5.4-2.3
			c2.1,0,3.8,0.6,5.1,1.9s1.9,3.1,1.9,5.4v1.9h-10.8c0,1.6,0.5,2.8,1.3,3.6c0.8,0.8,1.9,1.3,3.4,1.3c1,0,1.8-0.1,2.7-0.3
			c0.8-0.2,1.7-0.5,2.7-0.9v2.8c-0.8,0.4-1.7,0.7-2.5,0.8S458.2,362.3,457.1,362.3z M456.4,348.2c-1.1,0-2,0.3-2.6,1s-1.1,1.7-1.2,3
			h7.4c0-1.3-0.3-2.4-1-3C458.4,348.5,457.5,348.2,456.4,348.2z"/>
		<path class="st3" d="M471.7,362l-6.2-16.2h3.6l3.3,9.4c0.6,1.6,0.9,2.9,1,3.8h0.1c0.1-0.7,0.4-2,1-3.8l3.3-9.4h3.7l-6.2,16.2
			H471.7z"/>
		<path class="st3" d="M491.9,362.3c-2.5,0-4.5-0.7-5.9-2.2c-1.4-1.5-2.1-3.5-2.1-6.1c0-2.6,0.7-4.7,2-6.2s3.1-2.3,5.4-2.3
			c2.1,0,3.8,0.6,5.1,1.9s1.9,3.1,1.9,5.4v1.9h-10.8c0,1.6,0.5,2.8,1.3,3.6c0.8,0.8,1.9,1.3,3.4,1.3c1,0,1.8-0.1,2.7-0.3
			c0.8-0.2,1.7-0.5,2.7-0.9v2.8c-0.8,0.4-1.7,0.7-2.5,0.8S493,362.3,491.9,362.3z M491.3,348.2c-1.1,0-2,0.3-2.6,1s-1.1,1.7-1.2,3
			h7.4c0-1.3-0.3-2.4-1-3C493.2,348.5,492.4,348.2,491.3,348.2z"/>
		<path class="st3" d="M506.3,362h-3.4v-22.8h3.4V362z"/>
		<path class="st3" d="M526.4,353.9c0,2.6-0.7,4.7-2,6.2s-3.2,2.2-5.7,2.2c-1.5,0-2.9-0.3-4-1s-2.1-1.7-2.7-2.9s-0.9-2.8-0.9-4.5
			c0-2.6,0.7-4.7,2-6.2s3.2-2.2,5.7-2.2c2.3,0,4.2,0.8,5.6,2.3C525.7,349.3,526.4,351.4,526.4,353.9z M514.6,353.9
			c0,3.7,1.4,5.6,4.1,5.6c2.7,0,4.1-1.9,4.1-5.6c0-3.7-1.4-5.6-4.1-5.6c-1.4,0-2.5,0.5-3.1,1.4S514.6,352.1,514.6,353.9z"/>
		<path class="st3" d="M539.3,362.3c-2.1,0-3.6-0.7-4.8-2.2h-0.2c0.1,1.4,0.2,2.2,0.2,2.5v6.6h-3.4v-23.4h2.8c0.1,0.3,0.2,1,0.5,2.2
			h0.2c1.1-1.6,2.7-2.5,4.8-2.5c2,0,3.6,0.7,4.7,2.2s1.7,3.5,1.7,6.2s-0.6,4.7-1.7,6.2S541.3,362.3,539.3,362.3z M538.4,348.4
			c-1.4,0-2.4,0.4-3,1.2s-0.9,2.1-0.9,3.8v0.5c0,2,0.3,3.4,0.9,4.3c0.6,0.9,1.6,1.3,3.1,1.3c1.2,0,2.1-0.5,2.8-1.5s1-2.4,1-4.2
			c0-1.8-0.3-3.2-1-4.1C540.6,348.8,539.7,348.4,538.4,348.4z"/>
		<path class="st3" d="M564.2,362h-3.5v-10c0-1.2-0.2-2.2-0.7-2.8s-1.2-0.9-2.2-0.9c-1.3,0-2.3,0.4-2.9,1.3
			c-0.6,0.9-0.9,2.3-0.9,4.3v8.1h-3.4v-16.2h2.7l0.5,2.1h0.2c0.4-0.8,1.1-1.4,2-1.8s1.8-0.6,2.8-0.6c2.5,0,4.1,0.8,5,2.5h0.2
			c0.5-0.8,1.2-1.4,2-1.9s1.9-0.7,3-0.7c1.9,0,3.3,0.5,4.2,1.5s1.3,2.5,1.3,4.5V362h-3.4v-10c0-1.2-0.2-2.2-0.7-2.8
			s-1.2-0.9-2.2-0.9c-1.3,0-2.3,0.4-2.9,1.3c-0.6,0.8-0.9,2.1-0.9,3.8V362z"/>
		<path class="st3" d="M587,362.3c-2.5,0-4.5-0.7-5.9-2.2c-1.4-1.5-2.1-3.5-2.1-6.1c0-2.6,0.7-4.7,2-6.2s3.1-2.3,5.4-2.3
			c2.1,0,3.8,0.6,5.1,1.9s1.9,3.1,1.9,5.4v1.9h-10.8c0,1.6,0.5,2.8,1.3,3.6c0.8,0.8,1.9,1.3,3.4,1.3c1,0,1.8-0.1,2.7-0.3
			c0.8-0.2,1.7-0.5,2.7-0.9v2.8c-0.8,0.4-1.7,0.7-2.5,0.8S588.1,362.3,587,362.3z M586.4,348.2c-1.1,0-2,0.3-2.6,1s-1.1,1.7-1.2,3
			h7.4c0-1.3-0.3-2.4-1-3C588.3,348.5,587.5,348.2,586.4,348.2z"/>
		<path class="st3" d="M612.2,362h-3.5v-10c0-1.2-0.3-2.2-0.8-2.8s-1.3-0.9-2.4-0.9c-1.5,0-2.5,0.4-3.2,1.3s-1,2.3-1,4.3v8.1H598
			v-16.2h2.7l0.5,2.1h0.2c0.5-0.8,1.2-1.4,2.1-1.8s1.9-0.6,3-0.6c3.9,0,5.8,2,5.8,5.9V362z"/>
		<path class="st3" d="M623.8,359.6c0.8,0,1.7-0.1,2.5-0.4v2.6c-0.4,0.2-0.9,0.3-1.5,0.4c-0.6,0.1-1.2,0.2-1.9,0.2
			c-3.3,0-4.9-1.7-4.9-5.2v-8.7h-2.2v-1.5l2.4-1.3l1.2-3.4h2.1v3.6h4.6v2.6h-4.6v8.7c0,0.8,0.2,1.4,0.6,1.8
			C622.6,359.4,623.1,359.6,623.8,359.6z"/>
	</g>
</g>
<g>
	<path class="st3" d="M301.1,287.4c-19.8,0-35.9-16.1-35.9-35.9s16.1-35.9,35.9-35.9s35.9,16.1,35.9,35.9S320.9,287.4,301.1,287.4z"
		/>
	<path class="st3" d="M234.7,287.4c-12.6,0-22.7-10.4-22.7-23.3s10.2-23.3,22.7-23.3c12.6,0,22.7,10.4,22.7,23.3
		C257.3,276.9,247.2,287.4,234.7,287.4z"/>
	<path class="st3" d="M307.9,365.5h-66.8c-14,0-19.1-11.4-19.1-19.1v-33.6c0-14,11.4-19.1,19.1-19.1h66.8c14,0,19.1,11.4,19.1,19.1
		v33.6C327,360.4,315.6,365.5,307.9,365.5z"/>
	<path class="st3" d="M363.4,357.2L363.4,357.2c-1.8,0-3.7-0.6-5.7-1.7l-31.1-17.3v-17.4l31.1-17.2c0.4-0.2,2.9-1.6,5.7-1.6
		c3.9,0,8.6,2.7,8.6,10.1v34.8c0,0.3,0,2.2-0.8,4.2C370.1,354.9,367.1,357.2,363.4,357.2z"/>
</g>
</svg>
