<?xml version="1.0" encoding="utf-8"?>
<!-- Generator: Adobe Illustrator 19.2.1, SVG Export Plug-In . SVG Version: 6.00 Build 0)  -->
<svg version="1.1" id="Layer_1" xmlns="http://www.w3.org/2000/svg" xmlns:xlink="http://www.w3.org/1999/xlink" x="0px" y="0px"
	 viewBox="0 0 792 593.2" style="enable-background:new 0 0 792 593.2;" xml:space="preserve">
<style type="text/css">
	.st0{fill:#E0E0E0;}
	.st1{fill:#FF5722;}
	.st2{fill:#FFFFFF;}
	.st3{fill:none;}
	.st4{enable-background:new    ;}
</style>
<rect class="st0" width="792" height="593.2"/>
<rect x="-109.6" y="346.9" class="st0" width="79.4" height="62.2"/>
<rect x="-123.2" y="226" class="st1" width="80.1" height="68.9"/>
<path class="st2" d="M338.3,251.6v-51.9c-1-0.1-2-0.1-3.1-0.1c-26.6,0-48.2,21.6-48.2,48.2s21.6,48.2,48.2,48.2
	c25.3,0,46.1-19.5,48-44.3L338.3,251.6L338.3,251.6z"/>
<polygon class="st2" points="473.1,241.1 430.9,198.9 430.2,198.9 430.2,285.3 516.6,285.3 516.6,198.9 515.4,198.9 "/>
<rect x="259.5" y="358.6" class="st3" width="272" height="55"/>
<g class="st4">
	<path class="st2" d="M297.4,366.8h8.1v10.6c-1.3,0.4-2.5,0.7-3.7,0.9c-1.2,0.2-2.3,0.3-3.6,0.3c-3.1,0-5.4-0.9-7.1-2.7
		s-2.4-4.4-2.4-7.8c0-3.3,0.9-5.9,2.8-7.7c1.9-1.8,4.5-2.8,7.8-2.8c2.1,0,4.1,0.4,6.1,1.3l-1.4,3.5c-1.5-0.7-3-1.1-4.7-1.1
		c-1.9,0-3.4,0.6-4.5,1.9c-1.1,1.3-1.7,2.9-1.7,5.1c0,2.2,0.5,3.9,1.4,5.1s2.2,1.8,4,1.8c0.9,0,1.8-0.1,2.8-0.3v-4.3h-3.9V366.8z"/>
	<path class="st2" d="M327,357.9v13.2c0,1.5-0.3,2.8-1,4c-0.7,1.1-1.7,2-2.9,2.6c-1.3,0.6-2.8,0.9-4.5,0.9c-2.6,0-4.7-0.7-6.1-2
		c-1.5-1.3-2.2-3.2-2.2-5.5v-13.2h4.3v12.5c0,1.6,0.3,2.7,0.9,3.5c0.6,0.7,1.7,1.1,3.1,1.1c1.4,0,2.4-0.4,3.1-1.1
		c0.6-0.7,1-1.9,1-3.5v-12.5H327z"/>
	<path class="st2" d="M344.5,378.3l-1.5-4.9h-7.4l-1.5,4.9h-4.7l7.2-20.5h5.3l7.2,20.5H344.5z M342,369.8c-1.4-4.4-2.1-6.9-2.3-7.5
		s-0.3-1-0.4-1.4c-0.3,1.2-1.2,4.1-2.6,8.8H342z"/>
	<path class="st2" d="M363.4,357.9h4.4l-6.9,20.4h-4.7l-6.9-20.4h4.4l3.8,12.2c0.2,0.7,0.4,1.6,0.7,2.5c0.2,1,0.4,1.6,0.4,2
		c0.1-0.9,0.5-2.4,1-4.5L363.4,357.9z"/>
	<path class="st2" d="M382.9,378.3l-1.5-4.9h-7.4l-1.5,4.9h-4.7l7.2-20.5h5.3l7.2,20.5H382.9z M380.4,369.8
		c-1.4-4.4-2.1-6.9-2.3-7.5s-0.3-1-0.4-1.4c-0.3,1.2-1.2,4.1-2.6,8.8H380.4z"/>
	<path class="st2" d="M406.2,378.3l-4.9-16h-0.1c0.2,3.3,0.3,5.4,0.3,6.5v9.5h-3.9v-20.4h5.9l4.8,15.6h0.1l5.1-15.6h5.9v20.4h-4
		v-9.7c0-0.5,0-1,0-1.6c0-0.6,0.1-2.2,0.2-4.8h-0.1l-5.3,16H406.2z"/>
	<path class="st2" d="M443.1,368.1c0,3.4-0.8,6-2.5,7.8c-1.7,1.8-4.1,2.7-7.2,2.7s-5.5-0.9-7.2-2.7c-1.7-1.8-2.5-4.4-2.5-7.8
		s0.8-6,2.5-7.8c1.7-1.8,4.1-2.7,7.2-2.7c3.1,0,5.5,0.9,7.2,2.7S443.1,364.7,443.1,368.1z M428.1,368.1c0,2.3,0.4,4,1.3,5.2
		s2.2,1.7,3.9,1.7c3.5,0,5.2-2.3,5.2-6.9c0-4.6-1.7-6.9-5.2-6.9c-1.7,0-3,0.6-3.9,1.7C428.6,364.1,428.1,365.8,428.1,368.1z"/>
	<path class="st2" d="M455.2,378.3h-4.3v-16.8h-5.5v-3.6h15.4v3.6h-5.5V378.3z"/>
	<path class="st2" d="M463.9,378.3v-20.4h4.3v20.4H463.9z"/>
	<path class="st2" d="M491.9,368.1c0,3.4-0.8,6-2.5,7.8c-1.7,1.8-4.1,2.7-7.2,2.7c-3.1,0-5.5-0.9-7.2-2.7c-1.7-1.8-2.5-4.4-2.5-7.8
		s0.8-6,2.5-7.8c1.7-1.8,4.1-2.7,7.2-2.7s5.5,0.9,7.2,2.7C491,362.1,491.9,364.7,491.9,368.1z M477,368.1c0,2.3,0.4,4,1.3,5.2
		s2.2,1.7,3.9,1.7c3.5,0,5.2-2.3,5.2-6.9c0-4.6-1.7-6.9-5.2-6.9c-1.7,0-3,0.6-3.9,1.7C477.4,364.1,477,365.8,477,368.1z"/>
	<path class="st2" d="M514.2,378.3h-5.5l-8.9-15.5h-0.1c0.2,2.7,0.3,4.7,0.3,5.8v9.6h-3.9v-20.4h5.5l8.9,15.3h0.1
		c-0.1-2.7-0.2-4.5-0.2-5.6v-9.7h3.9V378.3z"/>
</g>
<g class="st4">
	<path class="st2" d="M295.8,426.8h-3.1v-19.3h10.9v2.7h-7.8v6h7.3v2.7h-7.3V426.8z"/>
	<path class="st2" d="M307,426.8v-19.3h3.2v19.3H307z"/>
	<path class="st2" d="M321.9,426.8h-3.2v-16.6h-5.7v-2.7h14.5v2.7h-5.7V426.8z"/>
	<path class="st2" d="M346.6,426.8h-3.9l-9.5-15.4h-0.1l0.1,0.9c0.1,1.6,0.2,3.1,0.2,4.5v10h-2.9v-19.3h3.8l9.5,15.3h0.1
		c0-0.2-0.1-0.9-0.1-2.2c-0.1-1.3-0.1-2.3-0.1-3v-10.1h2.9V426.8z"/>
	<path class="st2" d="M362.6,426.8h-10.9v-19.3h10.9v2.7h-7.8v5.2h7.3v2.6h-7.3v6.1h7.8V426.8z"/>
	<path class="st2" d="M377.9,421.6c0,1.7-0.6,3.1-1.9,4c-1.2,1-2.9,1.5-5.1,1.5s-4-0.3-5.4-1v-3c0.9,0.4,1.8,0.7,2.8,1
		c1,0.2,1.9,0.4,2.8,0.4c1.2,0,2.2-0.2,2.8-0.7c0.6-0.5,0.9-1.1,0.9-1.9c0-0.7-0.3-1.3-0.8-1.8s-1.7-1.1-3.4-1.8
		c-1.8-0.7-3-1.5-3.7-2.4s-1.1-2-1.1-3.3c0-1.6,0.6-2.9,1.7-3.8s2.7-1.4,4.6-1.4c1.8,0,3.7,0.4,5.5,1.2l-1,2.6
		c-1.7-0.7-3.2-1.1-4.6-1.1c-1,0-1.8,0.2-2.3,0.7c-0.5,0.4-0.8,1-0.8,1.8c0,0.5,0.1,0.9,0.3,1.3c0.2,0.4,0.6,0.7,1,1
		s1.4,0.7,2.6,1.3c1.4,0.6,2.5,1.1,3.1,1.6s1.1,1.1,1.5,1.7C377.7,419.9,377.9,420.7,377.9,421.6z"/>
	<path class="st2" d="M392.7,421.6c0,1.7-0.6,3.1-1.9,4c-1.2,1-2.9,1.5-5.1,1.5s-4-0.3-5.4-1v-3c0.9,0.4,1.8,0.7,2.8,1
		c1,0.2,1.9,0.4,2.8,0.4c1.2,0,2.2-0.2,2.8-0.7c0.6-0.5,0.9-1.1,0.9-1.9c0-0.7-0.3-1.3-0.8-1.8s-1.7-1.1-3.4-1.8
		c-1.8-0.7-3-1.5-3.7-2.4s-1.1-2-1.1-3.3c0-1.6,0.6-2.9,1.7-3.8s2.7-1.4,4.6-1.4c1.8,0,3.7,0.4,5.5,1.2l-1,2.6
		c-1.7-0.7-3.2-1.1-4.6-1.1c-1,0-1.8,0.2-2.3,0.7c-0.5,0.4-0.8,1-0.8,1.8c0,0.5,0.1,0.9,0.3,1.3c0.2,0.4,0.6,0.7,1,1
		s1.4,0.7,2.6,1.3c1.4,0.6,2.5,1.1,3.1,1.6s1.1,1.1,1.5,1.7C392.6,419.9,392.7,420.7,392.7,421.6z"/>
	<path class="st2" d="M410.1,426.8H407v-16.6h-5.7v-2.7h14.5v2.7h-5.7V426.8z"/>
	<path class="st2" d="M421.9,419.1v7.7h-3.2v-19.3h5.4c2.5,0,4.3,0.5,5.5,1.4s1.8,2.3,1.8,4.2c0,2.4-1.2,4.1-3.7,5.1l5.4,8.5h-3.6
		l-4.6-7.7H421.9z M421.9,416.5h2.2c1.5,0,2.5-0.3,3.2-0.8s1-1.4,1-2.4c0-1.1-0.4-1.9-1.1-2.3s-1.8-0.7-3.2-0.7h-2.1V416.5z"/>
	<path class="st2" d="M448,426.8l-1.9-5.4h-7.4l-1.9,5.4h-3.3l7.2-19.4h3.4l7.2,19.4H448z M445.2,418.7l-1.8-5.2
		c-0.1-0.4-0.3-0.9-0.5-1.7c-0.2-0.8-0.4-1.3-0.5-1.7c-0.2,1.1-0.6,2.3-1,3.5l-1.7,5H445.2z"/>
	<path class="st2" d="M462.1,410c-1.8,0-3.2,0.6-4.3,1.9s-1.6,3.1-1.6,5.3c0,2.4,0.5,4.2,1.5,5.4c1,1.2,2.4,1.8,4.3,1.8
		c0.8,0,1.6-0.1,2.4-0.2c0.8-0.2,1.6-0.4,2.4-0.6v2.7c-1.5,0.6-3.2,0.9-5.1,0.9c-2.8,0-5-0.9-6.5-2.6c-1.5-1.7-2.3-4.2-2.3-7.3
		c0-2,0.4-3.8,1.1-5.3c0.7-1.5,1.8-2.7,3.2-3.5s3-1.2,4.9-1.2c2,0,3.8,0.4,5.5,1.2l-1.1,2.6c-0.7-0.3-1.3-0.6-2.1-0.8
		C463.6,410.1,462.9,410,462.1,410z"/>
	<path class="st2" d="M485.7,426.8H482l-6.1-8.7l-1.9,1.5v7.2H471v-19.3h3.2v9.2c0.9-1.1,1.7-2.1,2.6-3l5.2-6.2h3.6
		c-3.4,4-5.8,6.8-7.2,8.5L485.7,426.8z"/>
	<path class="st2" d="M499.1,426.8h-10.9v-19.3h10.9v2.7h-7.8v5.2h7.3v2.6h-7.3v6.1h7.8V426.8z"/>
	<path class="st2" d="M506.4,419.1v7.7h-3.2v-19.3h5.4c2.5,0,4.3,0.5,5.5,1.4s1.8,2.3,1.8,4.2c0,2.4-1.2,4.1-3.7,5.1l5.4,8.5h-3.6
		l-4.6-7.7H506.4z M506.4,416.5h2.2c1.5,0,2.5-0.3,3.2-0.8s1-1.4,1-2.4c0-1.1-0.4-1.9-1.1-2.3s-1.8-0.7-3.2-0.7h-2.1V416.5z"/>
</g>
</svg>
