<?xml version="1.0" encoding="UTF-8"?>
<svg width="59px" height="62px" viewBox="0 0 59 62" version="1.1" xmlns="http://www.w3.org/2000/svg" xmlns:xlink="http://www.w3.org/1999/xlink">
    <!-- Generator: Sketch 51.2 (57519) - http://www.bohemiancoding.com/sketch -->
    <title>Group 2</title>
    <desc>Created with Sketch.</desc>
    <defs></defs>
    <g id="Page-1" stroke="none" stroke-width="1" fill="none" fill-rule="evenodd">
        <g id="Group-2" fill-rule="nonzero">
            <circle id="Oval-2" fill="#000000" cx="37" cy="39" r="2"></circle>
            <circle id="Oval-2" fill="#000000" cx="55" cy="39" r="2"></circle>
            <path d="M4.125,4.21289062 C9.21438013,-0.984928004 25.1563784,-1.37298757 51.9509949,3.04871193 L51.9509951,3.04871049 C55.8143021,3.6862409 58.6484375,7.02640149 58.6484375,10.9419584 L58.6484375,17.8730452 C58.6484375,22.2913232 55.0667155,25.8730452 50.6484375,25.8730452 L33.6990337,25.8730452 C29.2807557,25.8730452 25.6990337,29.4547672 25.6990337,33.8730452 L25.6990337,53.1699219 C25.6990337,57.5881999 22.1173117,61.1699219 17.6990337,61.1699219 L10.9290565,61.1699221 C6.9831047,61.1699221 3.62651212,58.2927517 3.02313562,54.393204 C-1.34652161,26.1526502 -0.979233483,9.42587908 4.125,4.21289062 Z" id="Rectangle" fill="#82D9D1"></path>
        </g>
    </g>
</svg>