<?xml version="1.0" encoding="utf-8"?>
<!-- Generator: Adobe Illustrator 19.2.1, SVG Export Plug-In . SVG Version: 6.00 Build 0)  -->
<svg version="1.1" id="Layer_1" xmlns="http://www.w3.org/2000/svg" xmlns:xlink="http://www.w3.org/1999/xlink" x="0px" y="0px"
	 viewBox="0 0 98.3 97.3" style="enable-background:new 0 0 98.3 97.3;" xml:space="preserve">
<style type="text/css">
	.st0{fill:#03A9F4;}
	.st1{opacity:0.8;fill:#FFFFFF;}
	.st2{opacity:0.4;fill:#FFFFFF;}
	.st3{fill:#FFFFFF;}
</style>
<g>
	<rect y="0.6" class="st0" width="106.6" height="96.8"/>
	<rect x="-12.6" y="5.1" class="st1" width="128.4" height="29.8"/>
	<rect x="-4.1" y="35" class="st2" width="111.5" height="25.9"/>
	
		<rect x="19.2" y="36.4" transform="matrix(4.489393e-11 -1 1 4.489393e-11 32.0407 134.7415)" class="st1" width="128.4" height="29.8"/>
	
		<rect x="-0.2" y="42.8" transform="matrix(4.489926e-11 -1 1 4.489926e-11 -0.1767 111.2741)" class="st2" width="111.5" height="25.9"/>
	<path class="st3" d="M-16.6-6.9v116.5h136.5V-6.9H-16.6z M79.1,68.4c-7.6,6.5-16.8,9.8-27.5,9.8c-3.8,0-7.1-0.4-10.1-1.2l-4.2,3.8
		h0c-0.3,0.2-0.5,0.4-0.7,0.5c-4,2.5-8.2,3.8-12.6,3.8c-0.3,0-0.5-0.1-0.5-0.2c-0.2-0.2-0.3-0.4-0.3-0.7c0-0.2,0-0.4,0.1-0.6
		c2.1-2.9,3.6-5.9,4.4-9l0,0.2l0.5-3.4c-4.7-3.1-8.4-6.9-11-11.3c-3-4.9-4.5-10.1-4.5-15.6c0-9.3,3.8-17.2,11.5-23.8
		c3.3-2.8,6.8-5,10.5-6.7c5.1-2.2,10.8-3.3,17-3.3c10.7,0,19.9,3.3,27.5,10c7.6,6.6,11.4,14.5,11.4,23.8S86.7,61.7,79.1,68.4z"/>
</g>
</svg>
