<?xml version="1.0" encoding="utf-8"?>
<!-- Generator: Adobe Illustrator 16.0.0, SVG Export Plug-In . SVG Version: 6.00 Build 0)  -->
<!DOCTYPE svg PUBLIC "-//W3C//DTD SVG 1.1//EN" "http://www.w3.org/Graphics/SVG/1.1/DTD/svg11.dtd">
<svg version="1.1" id="Layer_1" xmlns="http://www.w3.org/2000/svg" xmlns:xlink="http://www.w3.org/1999/xlink" x="0px" y="0px"
	 width="689px" height="241.574px" viewBox="-140.062 0 689 241.574" enable-background="new -140.062 0 689 241.574"
	 xml:space="preserve">
<path opacity="0.9" fill="#555658" d="M123.442,203.685h-3.764c-1.435,0-2.148-0.787-2.148-2.359V37.493
	c0-1.573,0.714-2.359,2.148-2.359h81.992c1.613,0,2.418,0.701,2.418,2.097v3.146c0,1.401-0.805,2.098-2.418,2.098h-73.656
	c-1.613,0-2.42,0.7-2.42,2.097v69.728c0,1.401,0.807,2.097,2.42,2.097h66.396c1.615,0,2.421,0.701,2.421,2.098v3.146
	c0,1.4-0.806,2.096-2.421,2.096h-66.396c-1.613,0-2.42,0.701-2.42,2.098v75.494C125.594,202.898,124.875,203.685,123.442,203.685z"
	/>
<path opacity="0.9" fill="#555658" d="M278.282,207.986h-81.725c-1.437,0-2.148-0.807-2.148-2.42V37.554
	c0-1.613,0.712-2.42,2.148-2.42h81.725c1.613,0,2.417,0.719,2.417,2.15v3.226c0,1.438-0.804,2.151-2.417,2.151h-73.39
	c-1.612,0-2.419,0.718-2.419,2.15v69.087c0,1.437,0.807,2.15,2.419,2.15h66.4c1.61,0,2.417,0.719,2.417,2.15v3.226
	c0,1.438-0.807,2.15-2.417,2.15h-66.4c-1.612,0-2.419,0.719-2.419,2.151v72.581c0,1.438,0.807,2.151,2.419,2.151h73.39
	c1.613,0,2.417,0.718,2.417,2.151v3.225C280.699,207.272,279.895,207.986,278.282,207.986z"/>
<path opacity="0.9" fill="#555658" d="M281.502,37.554v168.012c0,1.613-0.719,2.42-2.15,2.42h-3.764c-1.437,0-2.15-0.807-2.15-2.42
	V37.554c0-1.613,0.714-2.42,2.15-2.42h3.764C280.784,35.134,281.502,35.94,281.502,37.554z"/>
<g>
	<g>
		<path fill="#B1E0EB" d="M-94.962,36.415H70.107c1.586,0,2.377,1.117,2.377,3.348v5.855c0,2.236-0.791,3.347-2.377,3.347H-94.962
			c-1.584,0-2.376-1.11-2.376-3.347v-5.855C-97.338,37.532-96.546,36.415-94.962,36.415z"/>
	</g>
	<g>
		<path fill="#B1E0EB" d="M-49.851,111.903H71.595c1.166,0,1.749,1.08,1.749,3.232v5.654c0,2.158-0.583,3.23-1.749,3.23H-49.851
			c-1.167,0-1.748-1.072-1.748-3.23v-5.654C-51.599,112.982-51.018,111.903-49.851,111.903z"/>
	</g>
	<g>
		<path fill="#B1E0EB" d="M-8.326,195.695h81.357c0.783,0,1.172,0.967,1.172,2.893v5.062c0,1.933-0.389,2.892-1.172,2.892H-8.326
			c-0.781,0-1.171-0.959-1.171-2.892v-5.062C-9.497,196.662-9.107,195.695-8.326,195.695z"/>
	</g>
</g>
<g>
	<g>
		<path fill="#B1E0EB" d="M493.329,36.415H331.227c-1.558,0-2.335,1.117-2.335,3.348v5.855c0,2.236,0.777,3.347,2.335,3.347h162.102
			c1.556,0,2.333-1.11,2.333-3.347v-5.855C495.662,37.532,494.884,36.415,493.329,36.415z"/>
	</g>
	<g>
		<path fill="#B1E0EB" d="M449.028,111.903H329.765c-1.145,0-1.718,1.08-1.718,3.232v5.654c0,2.158,0.573,3.23,1.718,3.23h119.263
			c1.146,0,1.717-1.072,1.717-3.23v-5.654C450.745,112.982,450.174,111.903,449.028,111.903z"/>
	</g>
	<g>
		<path fill="#B1E0EB" d="M408.25,195.695h-79.895c-0.77,0-1.151,0.967-1.151,2.893v5.062c0,1.933,0.382,2.892,1.151,2.892h79.895
			c0.767,0,1.149-0.959,1.149-2.892v-5.062C409.399,196.662,409.016,195.695,408.25,195.695z"/>
	</g>
</g>
</svg>
