<?xml version="1.0" encoding="utf-8"?>
<!-- Generator: Adobe Illustrator 19.2.1, SVG Export Plug-In . SVG Version: 6.00 Build 0)  -->
<svg version="1.1" id="Layer_1" xmlns="http://www.w3.org/2000/svg" xmlns:xlink="http://www.w3.org/1999/xlink" x="0px" y="0px"
	 viewBox="0 0 792 593.2" style="enable-background:new 0 0 792 593.2;" xml:space="preserve">
<style type="text/css">
	.st0{fill:#9E9E9E;}
	.st1{fill:none;}
	.st2{fill:#FFFFFF;}
	.st3{font-family:'OpenSans-Bold';}
	.st4{font-size:48px;}
	.st5{letter-spacing:2;}
	.st6{font-family:'OpenSans';}
	.st7{font-size:30px;}
	.st8{fill:none;stroke:#D6F6FE;stroke-width:6;stroke-miterlimit:10;}
	.st9{fill:#28CBFA;}
	.st10{opacity:0.6;fill:none;stroke:#FFFFFF;stroke-width:6;stroke-miterlimit:10;enable-background:new    ;}
</style>
<rect x="-22.9" y="-24.4" class="st0" width="832.4" height="650.9"/>
<g>
	<rect x="436.3" y="239.7" class="st1" width="206.7" height="101.3"/>
	<text transform="matrix(1 0 0 1 435.2824 262.0621)" class="st2 st3 st4 st5">TUTTI</text>
	<text transform="matrix(1 0 0 1 436.2824 316.2435)" class="st2 st6 st7">Motion </text>
	<text transform="matrix(1 0 0 1 436.2824 365.2435)" class="st2 st6 st7">Design</text>
</g>
<line class="st8" x1="976.5" y1="608.9" x2="1008.7" y2="652.9"/>
<line class="st8" x1="918.3" y1="653.5" x2="918.3" y2="696"/>
<line class="st8" x1="951.7" y1="652.2" x2="951.7" y2="694.6"/>
<line class="st8" x1="869.6" y1="655.5" x2="893" y2="606.3"/>
<polygon class="st9" points="936.8,544.3 998.3,589 974.8,661.4 898.8,661.4 875.3,589 "/>
<g>
	<circle class="st2" cx="923.8" cy="599.9" r="3.7"/>
	<circle class="st2" cx="948.1" cy="599.9" r="3.7"/>
</g>
<path class="st10" d="M351.3,276.3c22.1,11.8,45.1,4.4,59.8-22"/>
<path class="st10" d="M257.6,276.3c-37.1,9.4-32.7,47.6-7.7,48.6"/>
<line class="st10" x1="283.2" y1="323.1" x2="283.2" y2="370.9"/>
<line class="st10" x1="320.9" y1="321.5" x2="320.9" y2="369.4"/>
<polygon class="st2" points="304.1,203.3 373.4,253.7 346.9,335.3 261.2,335.3 234.7,253.7 "/>
<g>
	<circle class="st0" cx="289.4" cy="265.9" r="4.2"/>
	<circle class="st0" cx="316.8" cy="265.9" r="4.2"/>
</g>
</svg>
