<?xml version="1.0" encoding="utf-8"?>
<!-- Generator: Adobe Illustrator 19.2.1, SVG Export Plug-In . SVG Version: 6.00 Build 0)  -->
<svg version="1.1" id="Layer_1" xmlns="http://www.w3.org/2000/svg" xmlns:xlink="http://www.w3.org/1999/xlink" x="0px" y="0px"
	 viewBox="0 0 792 593.2" style="enable-background:new 0 0 792 593.2;" xml:space="preserve">
<style type="text/css">
	.st0{fill:#01579B;}
	.st1{fill:#FFFFFF;}
	.st2{opacity:0.8;fill:#03A9F4;enable-background:new    ;}
	.st3{opacity:0.4;fill:#03A9F4;enable-background:new    ;}
	.st4{fill:none;}
	.st5{font-family:'OpenSans-Bold';}
	.st6{font-size:28.6106px;}
</style>
<rect class="st0" width="792" height="593.5"/>
<g>
	<rect x="263.5" y="110.8" class="st1" width="273.7" height="248.4"/>
	<rect x="231.2" y="122.4" class="st2" width="329.6" height="76.5"/>
	<rect x="252.9" y="199.1" class="st3" width="286.1" height="66.4"/>
	<rect x="439.3" y="99.7" class="st2" width="76.5" height="281.7"/>
	<rect x="372.9" y="109.4" class="st3" width="66.4" height="272"/>
	<path class="st0" d="M220.8,91.6v299.1h350.4V91.6H220.8z M466.7,284.9c-19.5,16.7-43,25-70.6,25c-9.7,0-18.3-1-25.9-3l-10.9,9.8
		h-0.1c-0.7,0.5-1.2,0.9-1.7,1.3c-10.2,6.5-21,9.7-32.3,9.6c-0.7,0-1.2-0.1-1.4-0.4c-0.4-0.5-0.7-1.1-0.8-1.7c0-0.5,0.1-1,0.4-1.5
		c5.5-7.4,9.2-15.1,11.3-23.1l-0.1,0.4l1.3-8.7c-12.1-8-21.4-17.7-28.1-29.1c-7.7-12.5-11.6-25.8-11.6-40c0-23.8,9.8-44.2,29.5-61.1
		c8.4-7.2,17.4-12.9,27-17.1c13.1-5.6,27.6-8.5,43.5-8.5c27.6,0,51.1,8.5,70.6,25.5c19.5,16.9,29.3,37.3,29.3,61.1
		S486.2,267.7,466.7,284.9z"/>
</g>
<rect x="260" y="397" class="st4" width="272" height="55"/>
<text transform="matrix(1 0 0 1 290.5698 424.5)" class="st1 st5 st6">ORZO CHAT APP</text>
<rect x="-100.7" y="312.8" class="st0" width="79.4" height="62.2"/>
</svg>
