<?xml version="1.0" encoding="utf-8"?>
<!-- Generator: Adobe Illustrator 19.2.1, SVG Export Plug-In . SVG Version: 6.00 Build 0)  -->
<svg version="1.1" id="Layer_1" xmlns="http://www.w3.org/2000/svg" xmlns:xlink="http://www.w3.org/1999/xlink" x="0px" y="0px"
	 viewBox="0 0 792 593.2" style="enable-background:new 0 0 792 593.2;" xml:space="preserve">
<style type="text/css">
	.st0{fill:#80CBC4;}
	.st1{fill:#FFFFFF;}
	.st2{fill:#26A69A;}
	.st3{fill:none;}
	.st4{font-family:'OpenSans-Bold';}
	.st5{font-size:42.6949px;}
	.st6{letter-spacing:1;}
	.st7{enable-background:new    ;}
	.st8{font-family:'OpenSans';}
	.st9{font-size:25px;}
	.st10{fill:#79CDCD;}
	.st11{fill:#97CE8B;}
</style>
<rect x="-22.9" y="-24.4" class="st0" width="832.4" height="650.9"/>
<path class="st1" d="M233.6,305.5c-9-1.5-23.3-7.7-29.5-14.6c-7.4-8.4-12.1-20.1-12.1-32.9c0-12.9,4.6-24.5,12.1-32.9
	c7.6-8.4,17.9-13.7,29.5-13.7c11.5,0,21.9,5.2,29.5,13.7c7.6,8.4,12.1,20.1,12.1,32.9c0,12.9-4.6,24.5-12.1,32.9
	C257.1,297.6,242.1,303.9,233.6,305.5"/>
<path class="st2" d="M230.6,365.5c1-51.4,3.2-70.2-17.8-102.1c-0.6-0.9-0.4-2.2,0.5-2.8c0.9-0.6,2.2-0.5,2.8,0.5
	c8.5,12.3,14,24.1,17.3,36.3c1.6-9.2,4.1-18.9,7.7-27.7c3.7-9.2,0.5-18.7-7.8-26.7c-0.7-0.7-0.9-2.1,0-2.8c0.7-0.7,2.1-0.9,2.8,0
	c5.2,5.1,8.8,10.5,11,17.6c2.7-4.5,5.9-8.3,9.4-11c0.9-0.7,2.1-0.5,2.8,0.4c0.7,0.9,0.5,2.1-0.4,2.8c-27.4,30.7-19.7,71-20.3,116
	h-8.2L230.6,365.5L230.6,365.5z"/>
<g>
	<rect x="408.2" y="233" class="st3" width="452.7" height="120.1"/>
	<text transform="matrix(1 0 0 1 408.2441 263.2856)" class="st1 st4 st5 st6">SUNNY</text>
	<text transform="matrix(1 0 0 1 408.2441 306.9856)" class="st7"><tspan x="0" y="0" class="st1 st8 st9">Smart Watch</tspan><tspan x="0" y="36" class="st1 st8 st9">Application</tspan></text>
</g>
<path class="st1" d="M328,325.4c-5.6-0.9-14.4-4.7-18.2-9c-4.6-5.2-7.4-12.4-7.4-20.3c0-7.9,2.8-15.1,7.4-20.3
	c4.6-5.2,11-8.4,18.1-8.4s13.5,3.2,18.1,8.4s7.4,12.4,7.4,20.3c0,7.9-2.8,15.1-7.4,20.3C342.5,320.5,333.3,324.3,328,325.4"/>
<path class="st2" d="M326.2,362.3c0.6-31.7,2-43.2-11-63c-0.4-0.6-0.2-1.4,0.4-1.7s1.4-0.2,1.7,0.2c5.3,7.6,8.5,14.9,10.6,22.3
	c1-5.7,2.5-11.6,4.7-17.1c2.2-5.6,0.2-11.5-4.8-16.5c-0.5-0.5-0.5-1.2,0-1.7s1.2-0.5,1.7,0c3.2,3.1,5.4,6.6,6.8,10.8
	c1.7-2.7,3.6-5.1,5.8-6.8c0.5-0.4,1.4-0.4,1.7,0.2c0.4,0.5,0.4,1.4-0.2,1.7c-16.8,18.9-12.1,43.8-12.5,71.4L326.2,362.3L326.2,362.3
	z"/>
<rect x="-151.3" y="121.2" class="st10" width="93.5" height="50.5"/>
<rect x="-151.3" y="323.1" class="st11" width="93.5" height="50.5"/>
<rect x="-118.3" y="452.1" class="st0" width="79.4" height="68"/>
</svg>
