<?xml version="1.0" encoding="utf-8"?>
<!-- Generator: Adobe Illustrator 19.2.1, SVG Export Plug-In . SVG Version: 6.00 Build 0)  -->
<svg version="1.1" id="Layer_1" xmlns="http://www.w3.org/2000/svg" xmlns:xlink="http://www.w3.org/1999/xlink" x="0px" y="0px"
	 viewBox="0 0 792 593.2" style="enable-background:new 0 0 792 593.2;" xml:space="preserve">
<style type="text/css">
	.st0{fill:#80DEEA;}
	.st1{fill:#FFFFFF;}
	.st2{font-family:'OpenSans-Semibold';}
	.st3{font-size:48px;}
	.st4{letter-spacing:3;}
	.st5{enable-background:new    ;}
	.st6{font-family:'OpenSans';}
	.st7{font-size:30px;}
	.st8{letter-spacing:2;}
</style>
<rect x="1.4" class="st0" width="790.6" height="593.2"/>
<g>
	<polygon class="st1" points="322.3,297.8 320,306.6 371.1,319.7 373.3,310.7 353,305.5 396,293.5 393.4,284.7 335.3,301 	"/>
	<polygon class="st1" points="382.5,334.6 323.9,319.5 314.3,310.2 307.9,316.8 345.6,353.6 352.1,347.1 337.1,332.5 380.2,343.5 	
		"/>
	<polygon class="st1" points="230.4,339.7 237,346.2 251.6,331.2 240.6,374.3 249.5,376.6 264.4,318 273.8,308.5 267.2,302 	"/>
	<polygon class="st1" points="277.4,314.2 264.4,365.2 273.2,367.6 278.4,347.2 290.5,390.1 299.4,387.6 283.1,329.4 286.3,316.4 	
		"/>
	<polygon class="st1" points="211.9,342.2 254.1,298.9 266.9,295.3 264.4,286.5 213.7,300.8 216.1,309.6 236.3,303.9 205.3,335.7 	
		"/>
	<polygon class="st1" points="301.2,317.1 292.3,319.7 306.5,370.3 315.5,367.8 309.8,347.6 341.6,378.8 348.1,372.2 304.7,329.9 	
		"/>
	<polygon class="st1" points="288.8,261.1 297.6,258.5 283.3,207.8 274.5,210.4 280.1,230.6 248.3,199.4 241.9,206 285.2,248.2 	"/>
	<polygon class="st1" points="275.6,267.9 281.9,261.4 244.2,224.5 237.9,231.1 252.9,245.7 209.7,234.7 207.5,243.6 266,258.7 	"/>
	<polygon class="st1" points="254.6,277.2 267.5,280.4 269.9,271.5 218.7,258.5 216.5,267.5 236.9,272.7 194,284.7 196.5,293.5 	"/>
	<polygon class="st1" points="316.1,269.7 322.7,276.2 359.5,238.5 352.9,232 338.2,247 349.3,203.8 340.3,201.6 325.4,260.1 	"/>
	<polygon class="st1" points="303.5,261.8 312.5,264 316.1,249.9 325.6,213 316.6,210.6 311.4,231 299.4,188.1 290.5,190.6 
		306.9,248.8 	"/>
	<polygon class="st1" points="323,282.9 325.4,291.7 376.2,277.4 373.7,268.6 353.5,274.3 384.6,242.5 378,236 335.8,279.3 	"/>
</g>
<text transform="matrix(1 0 0 1 445.9988 237.175)" class="st1 st2 st3 st4">ITASA</text>
<text transform="matrix(1 0 0 1 448.9985 293.1785)" class="st5"><tspan x="0" y="0" class="st1 st6 st7 st8">Branding</tspan><tspan x="0" y="42" class="st1 st6 st7 st8">Motion </tspan><tspan x="0" y="84" class="st1 st6 st7 st8">Design</tspan></text>
</svg>
